M48
; DRILL file {KiCad 8.0.4} date 2024-09-01T22:21:00-0500
; FORMAT={-:-/ absolute / inch / decimal}
; #@! TF.CreationDate,2024-09-01T22:21:00-05:00
; #@! TF.GenerationSoftware,Kicad,Pcbnew,8.0.4
; #@! TF.FileFunction,MixedPlating,1,2
FMAT,2
INCH
; #@! TA.AperFunction,Plated,PTH,ViaDrill
T1C0.0118
; #@! TA.AperFunction,Plated,PTH,ComponentDrill
T2C0.0138
; #@! TA.AperFunction,Plated,PTH,ComponentDrill
T3C0.0197
; #@! TA.AperFunction,Plated,PTH,ComponentDrill
T4C0.0236
; #@! TA.AperFunction,Plated,PTH,ComponentDrill
T5C0.0354
; #@! TA.AperFunction,Plated,PTH,ComponentDrill
T6C0.0394
; #@! TA.AperFunction,Plated,PTH,ViaDrill
T7C0.0472
; #@! TA.AperFunction,Plated,PTH,ComponentDrill
T8C0.0591
; #@! TA.AperFunction,Plated,PTH,ComponentDrill
T9C0.1260
; #@! TA.AperFunction,NonPlated,NPTH,ComponentDrill
T10C0.1575
%
G90
G05
T1
X-2.2543Y-0.0283
X-2.2528Y0.1705
X-2.1555Y0.2264
X-2.1063Y0.0295
X-2.1063Y-0.5516
X-2.0768Y-0.5827
X-2.05Y0.55
X-2.0358Y-0.5831
X-2.0177Y0.187
X-2.0059Y-0.5516
X-1.9858Y0.5598
X-1.9291Y-0.0886
X-1.9035Y-0.5555
X-1.8307Y0.0
X-1.8012Y-0.3937
X-1.8Y-0.5799
X-1.7606Y-0.5799
X-1.7543Y0.4713
X-1.7299Y-0.55
X-1.6929Y-0.1378
X-1.5Y0.55
X-1.4346Y0.5579
X-1.3976Y-0.1378
X-1.3878Y0.0394
X-1.25Y0.4626
X-1.25Y0.187
X-1.1516Y0.187
X-1.103Y-0.1311
X-1.05Y0.55
X-0.9941Y-0.1378
X-0.9941Y-0.3937
X-0.9835Y0.5579
X-0.7433Y0.5091
X-0.6988Y-0.1378
X-0.6988Y-0.4035
X-0.5Y0.55
X-0.4319Y0.5535
X-0.4035Y-0.1378
X-0.4035Y-0.3937
X-0.2559Y0.5118
X-0.05Y0.55
X-0.0492Y0.187
X0.0Y-0.1378
X0.0Y-0.4035
X0.0154Y0.5575
X0.0787Y0.187
X0.1969Y-0.1236
X0.2531Y0.5535
X0.3Y-0.1378
X0.3051Y-0.3937
X0.4035Y0.1772
X0.5004Y-0.1154
X0.502Y0.2165
X0.5118Y0.55
X0.5669Y0.5732
X0.5807Y-0.6201
X0.5906Y-0.3937
X0.6004Y-0.1378
X0.6496Y-0.187
X0.8563Y0.187
X0.9697Y-0.189
X1.0433Y0.374
X1.198Y0.198
X1.2Y0.1602
X1.2008Y0.1287
X1.2248Y0.3791
X1.239Y0.1988
X1.2807Y-0.5728
X1.3134Y-0.6083
X1.3378Y-0.4004
X1.3528Y-0.6075
X1.3638Y0.0465
X1.3811Y0.2272
X1.3815Y-0.5732
X1.4075Y0.252
X1.4501Y-0.0079
X1.4606Y0.1024
X1.4752Y-0.5709
X1.5185Y-0.0067
X1.563Y0.0776
X1.5878Y-0.6083
X1.6283Y-0.6087
X1.6307Y-0.3079
X1.6496Y0.2165
X1.6606Y-0.5768
X1.7736Y-0.289
X1.7992Y0.1693
X1.839Y-0.2866
X1.8504Y0.1693
X1.8673Y0.026
X1.8697Y-0.0606
X1.9252Y0.0945
X1.9291Y0.0512
X1.9291Y-0.0472
X1.939Y-0.2953
X1.9567Y-0.0315
X1.9567Y-0.0669
X1.9606Y0.0276
X1.9697Y-0.6035
X2.1024Y0.0528
X2.1024Y-0.0606
X2.1197Y-0.1984
X2.1496Y0.0543
X2.1803Y-0.198
X2.1811Y-0.1043
X2.2154Y-0.1406
T2
X2.2795Y0.1171
X2.2795Y0.0837
X2.2795Y0.0502
X2.2795Y0.0167
X2.2795Y-0.0167
X2.2795Y-0.0502
X2.2795Y-0.0837
X2.2795Y-0.1171
X2.3327Y0.1171
X2.3327Y0.0837
X2.3327Y0.0502
X2.3327Y0.0167
X2.3327Y-0.0167
X2.3327Y-0.0502
X2.3327Y-0.0837
X2.3327Y-0.1171
T3
X-2.811Y0.3543
X-2.7833Y0.4211
X-2.7833Y0.2875
X-2.7165Y0.4488
X-2.7165Y0.2598
X-2.6497Y0.4211
X-2.6497Y0.2875
X-2.622Y0.3543
X-2.4945Y0.4996
X-2.4945Y-0.5004
X-2.4668Y0.5664
X-2.4668Y0.4328
X-2.4668Y-0.4336
X-2.4668Y-0.5672
X-2.4Y0.5941
X-2.4Y0.4051
X-2.4Y-0.4059
X-2.4Y-0.5949
X-2.3332Y0.5664
X-2.3332Y0.4328
X-2.3332Y-0.4336
X-2.3332Y-0.5672
X-2.3055Y0.4996
X-2.3055Y-0.5004
X0.7055Y0.4996
X0.7055Y-0.5004
X0.7332Y0.5664
X0.7332Y0.4328
X0.7332Y-0.4336
X0.7332Y-0.5672
X0.8Y0.5941
X0.8Y0.4051
X0.8Y-0.4059
X0.8Y-0.5949
X0.8668Y0.5664
X0.8668Y0.4328
X0.8668Y-0.4336
X0.8668Y-0.5672
X0.8945Y0.4996
X0.8945Y-0.5004
T5
X-2.2Y0.2996
X-2.2Y-0.3004
X-2.1Y0.2996
X-2.1Y-0.3004
X-2.0Y0.2996
X-2.0Y-0.3004
X-1.9Y0.2996
X-1.9Y-0.3004
X-1.8Y0.2996
X-1.8Y-0.3004
X-1.7Y0.2996
X-1.7Y-0.3004
X-1.6Y0.2996
X-1.6Y-0.3004
X-1.5Y0.2996
X-1.5Y-0.3004
X-1.4Y0.2996
X-1.4Y-0.3004
X-1.2Y0.2996
X-1.2Y-0.3004
X-1.1Y0.2996
X-1.1Y-0.3004
X-1.0Y0.2996
X-1.0Y-0.3004
X-0.9Y0.2996
X-0.9Y-0.3004
X-0.8Y0.2996
X-0.8Y-0.3004
X-0.7Y0.2996
X-0.7Y-0.3004
X-0.6Y0.2996
X-0.6Y-0.3004
X-0.5Y0.2996
X-0.5Y-0.3004
X-0.4Y0.2996
X-0.4Y-0.3004
X-0.2Y0.2996
X-0.2Y-0.3004
X-0.1Y0.2996
X-0.1Y-0.3004
X0.0Y0.2996
X0.0Y-0.3004
X0.1Y0.2996
X0.1Y-0.3004
X0.2Y0.2996
X0.2Y-0.3004
X0.3Y0.2996
X0.3Y-0.3004
X0.4Y0.2996
X0.4Y-0.3004
X0.5Y0.2996
X0.5Y-0.3004
X0.6Y0.2996
X0.6Y-0.3004
T6
X-2.5Y0.1496
X-2.5Y0.0496
X-2.5Y-0.0504
X-2.5Y-0.1504
T7
X1.6575Y-0.0118
X1.6575Y-0.0866
X1.7283Y-0.0118
X1.7283Y-0.0866
T8
X0.95Y0.0996
X1.05Y-0.1504
T9
X-2.7165Y0.3543
X-2.4Y0.4996
X-2.4Y-0.5004
X0.8Y0.4996
X0.8Y-0.5004
T10
X1.15Y-0.0004
T4
G00X2.2886Y0.1703
M15
G01X2.3476Y0.1703
M16
G05
G00X2.2886Y-0.1703
M15
G01X2.3476Y-0.1703
M16
G05
G00X2.4354Y0.1703
M15
G01X2.4669Y0.1703
M16
G05
G00X2.4354Y-0.1703
M15
G01X2.4669Y-0.1703
M16
G05
M30
