%TF.GenerationSoftware,KiCad,Pcbnew,8.0.4*%
%TF.CreationDate,2024-09-01T22:21:07-05:00*%
%TF.ProjectId,caliper,63616c69-7065-4722-9e6b-696361645f70,rev?*%
%TF.SameCoordinates,Original*%
%TF.FileFunction,Legend,Top*%
%TF.FilePolarity,Positive*%
%FSLAX46Y46*%
G04 Gerber Fmt 4.6, Leading zero omitted, Abs format (unit mm)*
G04 Created by KiCad (PCBNEW 8.0.4) date 2024-09-01 22:21:07*
%MOMM*%
%LPD*%
G01*
G04 APERTURE LIST*
%ADD10C,0.300000*%
%ADD11C,0.120000*%
%ADD12C,0.800000*%
%ADD13C,6.400000*%
%ADD14R,1.700000X1.700000*%
%ADD15O,1.700000X1.700000*%
%ADD16O,1.700000X0.900000*%
%ADD17O,2.400000X0.900000*%
%ADD18C,0.650000*%
%ADD19R,1.600000X1.600000*%
%ADD20O,1.600000X1.600000*%
%ADD21C,4.000000*%
%ADD22C,2.200000*%
G04 APERTURE END LIST*
D10*
X-26766917Y3199171D02*
X-26766917Y2127742D01*
X-26766917Y2127742D02*
X-26838346Y1913457D01*
X-26838346Y1913457D02*
X-26981203Y1770600D01*
X-26981203Y1770600D02*
X-27195489Y1699171D01*
X-27195489Y1699171D02*
X-27338346Y1699171D01*
X-25338346Y1699171D02*
X-26052632Y1699171D01*
X-26052632Y1699171D02*
X-26052632Y3199171D01*
X-23981203Y1842028D02*
X-24052631Y1770600D01*
X-24052631Y1770600D02*
X-24266917Y1699171D01*
X-24266917Y1699171D02*
X-24409774Y1699171D01*
X-24409774Y1699171D02*
X-24624060Y1770600D01*
X-24624060Y1770600D02*
X-24766917Y1913457D01*
X-24766917Y1913457D02*
X-24838346Y2056314D01*
X-24838346Y2056314D02*
X-24909774Y2342028D01*
X-24909774Y2342028D02*
X-24909774Y2556314D01*
X-24909774Y2556314D02*
X-24838346Y2842028D01*
X-24838346Y2842028D02*
X-24766917Y2984885D01*
X-24766917Y2984885D02*
X-24624060Y3127742D01*
X-24624060Y3127742D02*
X-24409774Y3199171D01*
X-24409774Y3199171D02*
X-24266917Y3199171D01*
X-24266917Y3199171D02*
X-24052631Y3127742D01*
X-24052631Y3127742D02*
X-23981203Y3056314D01*
X-22909774Y3199171D02*
X-22909774Y2127742D01*
X-22909774Y2127742D02*
X-22981203Y1913457D01*
X-22981203Y1913457D02*
X-23124060Y1770600D01*
X-23124060Y1770600D02*
X-23338346Y1699171D01*
X-23338346Y1699171D02*
X-23481203Y1699171D01*
X-21481203Y1699171D02*
X-22195489Y1699171D01*
X-22195489Y1699171D02*
X-22195489Y3199171D01*
X-20124060Y1842028D02*
X-20195488Y1770600D01*
X-20195488Y1770600D02*
X-20409774Y1699171D01*
X-20409774Y1699171D02*
X-20552631Y1699171D01*
X-20552631Y1699171D02*
X-20766917Y1770600D01*
X-20766917Y1770600D02*
X-20909774Y1913457D01*
X-20909774Y1913457D02*
X-20981203Y2056314D01*
X-20981203Y2056314D02*
X-21052631Y2342028D01*
X-21052631Y2342028D02*
X-21052631Y2556314D01*
X-21052631Y2556314D02*
X-20981203Y2842028D01*
X-20981203Y2842028D02*
X-20909774Y2984885D01*
X-20909774Y2984885D02*
X-20766917Y3127742D01*
X-20766917Y3127742D02*
X-20552631Y3199171D01*
X-20552631Y3199171D02*
X-20409774Y3199171D01*
X-20409774Y3199171D02*
X-20195488Y3127742D01*
X-20195488Y3127742D02*
X-20124060Y3056314D01*
X-19052631Y3199171D02*
X-19052631Y2127742D01*
X-19052631Y2127742D02*
X-19124060Y1913457D01*
X-19124060Y1913457D02*
X-19266917Y1770600D01*
X-19266917Y1770600D02*
X-19481203Y1699171D01*
X-19481203Y1699171D02*
X-19624060Y1699171D01*
X-17624060Y1699171D02*
X-18338346Y1699171D01*
X-18338346Y1699171D02*
X-18338346Y3199171D01*
X-16266917Y1842028D02*
X-16338345Y1770600D01*
X-16338345Y1770600D02*
X-16552631Y1699171D01*
X-16552631Y1699171D02*
X-16695488Y1699171D01*
X-16695488Y1699171D02*
X-16909774Y1770600D01*
X-16909774Y1770600D02*
X-17052631Y1913457D01*
X-17052631Y1913457D02*
X-17124060Y2056314D01*
X-17124060Y2056314D02*
X-17195488Y2342028D01*
X-17195488Y2342028D02*
X-17195488Y2556314D01*
X-17195488Y2556314D02*
X-17124060Y2842028D01*
X-17124060Y2842028D02*
X-17052631Y2984885D01*
X-17052631Y2984885D02*
X-16909774Y3127742D01*
X-16909774Y3127742D02*
X-16695488Y3199171D01*
X-16695488Y3199171D02*
X-16552631Y3199171D01*
X-16552631Y3199171D02*
X-16338345Y3127742D01*
X-16338345Y3127742D02*
X-16266917Y3056314D01*
X-15195488Y3199171D02*
X-15195488Y2127742D01*
X-15195488Y2127742D02*
X-15266917Y1913457D01*
X-15266917Y1913457D02*
X-15409774Y1770600D01*
X-15409774Y1770600D02*
X-15624060Y1699171D01*
X-15624060Y1699171D02*
X-15766917Y1699171D01*
X-13766917Y1699171D02*
X-14481203Y1699171D01*
X-14481203Y1699171D02*
X-14481203Y3199171D01*
X-12409774Y1842028D02*
X-12481202Y1770600D01*
X-12481202Y1770600D02*
X-12695488Y1699171D01*
X-12695488Y1699171D02*
X-12838345Y1699171D01*
X-12838345Y1699171D02*
X-13052631Y1770600D01*
X-13052631Y1770600D02*
X-13195488Y1913457D01*
X-13195488Y1913457D02*
X-13266917Y2056314D01*
X-13266917Y2056314D02*
X-13338345Y2342028D01*
X-13338345Y2342028D02*
X-13338345Y2556314D01*
X-13338345Y2556314D02*
X-13266917Y2842028D01*
X-13266917Y2842028D02*
X-13195488Y2984885D01*
X-13195488Y2984885D02*
X-13052631Y3127742D01*
X-13052631Y3127742D02*
X-12838345Y3199171D01*
X-12838345Y3199171D02*
X-12695488Y3199171D01*
X-12695488Y3199171D02*
X-12481202Y3127742D01*
X-12481202Y3127742D02*
X-12409774Y3056314D01*
%TO.C,J2*%
D11*
X-64770000Y5070000D02*
X-62230000Y5070000D01*
X-62230000Y-5090000D01*
X-64770000Y-5090000D01*
X-64770000Y5070000D01*
%TO.C,U4*%
X-7620000Y8880000D02*
X17780000Y8880000D01*
X17780000Y-8900000D01*
X-7620000Y-8900000D01*
X-7620000Y8880000D01*
%TO.C,U3*%
X-33020000Y8880000D02*
X-7620000Y8880000D01*
X-7620000Y-8900000D01*
X-33020000Y-8900000D01*
X-33020000Y8880000D01*
%TO.C,U2*%
X-58420000Y8880000D02*
X-33020000Y8880000D01*
X-33020000Y-8900000D01*
X-58420000Y-8900000D01*
X-58420000Y8880000D01*
%TD*%
%LPC*%
D12*
%TO.C,M5*%
X-71400000Y9000000D03*
X-70697056Y10697056D03*
X-70697056Y7302944D03*
X-69000000Y11400000D03*
D13*
X-69000000Y9000000D03*
D12*
X-69000000Y6600000D03*
X-67302944Y10697056D03*
X-67302944Y7302944D03*
X-66600000Y9000000D03*
%TD*%
%TO.C,M1*%
X-63360000Y12690000D03*
X-62657056Y14387056D03*
X-62657056Y10992944D03*
X-60960000Y15090000D03*
D13*
X-60960000Y12690000D03*
D12*
X-60960000Y10290000D03*
X-59262944Y14387056D03*
X-59262944Y10992944D03*
X-58560000Y12690000D03*
%TD*%
%TO.C,M3*%
X17920000Y12690000D03*
X18622944Y14387056D03*
X18622944Y10992944D03*
X20320000Y15090000D03*
D13*
X20320000Y12690000D03*
D12*
X20320000Y10290000D03*
X22017056Y14387056D03*
X22017056Y10992944D03*
X22720000Y12690000D03*
%TD*%
D14*
%TO.C,J2*%
X-63500000Y3800000D03*
D15*
X-63500000Y1260000D03*
X-63500000Y-1280000D03*
X-63500000Y-3820000D03*
%TD*%
D16*
%TO.C,J1*%
X62260000Y-4325000D03*
D17*
X58880000Y-4325000D03*
D16*
X62260000Y4325000D03*
D17*
X58880000Y4325000D03*
D18*
X57900000Y-2975000D03*
X57900000Y-2125000D03*
X57900000Y-1275000D03*
X57900000Y-425000D03*
X57900000Y425000D03*
X57900000Y1275000D03*
X57900000Y2125000D03*
X57900000Y2975000D03*
X59250000Y2975000D03*
X59250000Y2125000D03*
X59250000Y1275000D03*
X59250000Y425000D03*
X59250000Y-425000D03*
X59250000Y-1275000D03*
X59250000Y-2125000D03*
X59250000Y-2975000D03*
%TD*%
D19*
%TO.C,U4*%
X-5080000Y-7630000D03*
D20*
X-2540000Y-7630000D03*
X0Y-7630000D03*
X2540000Y-7630000D03*
X5080000Y-7630000D03*
X7620000Y-7630000D03*
X10160000Y-7630000D03*
X12700000Y-7630000D03*
X15240000Y-7630000D03*
X15240000Y7610000D03*
X12700000Y7610000D03*
X10160000Y7610000D03*
X7620000Y7610000D03*
X5080000Y7610000D03*
X2540000Y7610000D03*
X0Y7610000D03*
X-2540000Y7610000D03*
X-5080000Y7610000D03*
%TD*%
D19*
%TO.C,U3*%
X-30480000Y-7630000D03*
D20*
X-27940000Y-7630000D03*
X-25400000Y-7630000D03*
X-22860000Y-7630000D03*
X-20320000Y-7630000D03*
X-17780000Y-7630000D03*
X-15240000Y-7630000D03*
X-12700000Y-7630000D03*
X-10160000Y-7630000D03*
X-10160000Y7610000D03*
X-12700000Y7610000D03*
X-15240000Y7610000D03*
X-17780000Y7610000D03*
X-20320000Y7610000D03*
X-22860000Y7610000D03*
X-25400000Y7610000D03*
X-27940000Y7610000D03*
X-30480000Y7610000D03*
%TD*%
D12*
%TO.C,M4*%
X17920000Y-12710000D03*
X18622944Y-11012944D03*
X18622944Y-14407056D03*
X20320000Y-10310000D03*
D13*
X20320000Y-12710000D03*
D12*
X20320000Y-15110000D03*
X22017056Y-11012944D03*
X22017056Y-14407056D03*
X22720000Y-12710000D03*
%TD*%
D21*
%TO.C,SW3*%
X29210000Y-10000D03*
D22*
X24130000Y2530000D03*
X26670000Y-3820000D03*
%TD*%
D19*
%TO.C,U2*%
X-55880000Y-7630000D03*
D20*
X-53340000Y-7630000D03*
X-50800000Y-7630000D03*
X-48260000Y-7630000D03*
X-45720000Y-7630000D03*
X-43180000Y-7630000D03*
X-40640000Y-7630000D03*
X-38100000Y-7630000D03*
X-35560000Y-7630000D03*
X-35560000Y7610000D03*
X-38100000Y7610000D03*
X-40640000Y7610000D03*
X-43180000Y7610000D03*
X-45720000Y7610000D03*
X-48260000Y7610000D03*
X-50800000Y7610000D03*
X-53340000Y7610000D03*
X-55880000Y7610000D03*
%TD*%
D12*
%TO.C,M2*%
X-63360000Y-12710000D03*
X-62657056Y-11012944D03*
X-62657056Y-14407056D03*
X-60960000Y-10310000D03*
D13*
X-60960000Y-12710000D03*
D12*
X-60960000Y-15110000D03*
X-59262944Y-11012944D03*
X-59262944Y-14407056D03*
X-58560000Y-12710000D03*
%TD*%
%LPD*%
M02*
