%TF.GenerationSoftware,KiCad,Pcbnew,8.0.4*%
%TF.CreationDate,2024-09-01T22:21:07-05:00*%
%TF.ProjectId,caliper,63616c69-7065-4722-9e6b-696361645f70,rev?*%
%TF.SameCoordinates,Original*%
%TF.FileFunction,Legend,Bot*%
%TF.FilePolarity,Positive*%
%FSLAX46Y46*%
G04 Gerber Fmt 4.6, Leading zero omitted, Abs format (unit mm)*
G04 Created by KiCad (PCBNEW 8.0.4) date 2024-09-01 22:21:07*
%MOMM*%
%LPD*%
G01*
G04 APERTURE LIST*
G04 Aperture macros list*
%AMRoundRect*
0 Rectangle with rounded corners*
0 $1 Rounding radius*
0 $2 $3 $4 $5 $6 $7 $8 $9 X,Y pos of 4 corners*
0 Add a 4 corners polygon primitive as box body*
4,1,4,$2,$3,$4,$5,$6,$7,$8,$9,$2,$3,0*
0 Add four circle primitives for the rounded corners*
1,1,$1+$1,$2,$3*
1,1,$1+$1,$4,$5*
1,1,$1+$1,$6,$7*
1,1,$1+$1,$8,$9*
0 Add four rect primitives between the rounded corners*
20,1,$1+$1,$2,$3,$4,$5,0*
20,1,$1+$1,$4,$5,$6,$7,0*
20,1,$1+$1,$6,$7,$8,$9,0*
20,1,$1+$1,$8,$9,$2,$3,0*%
G04 Aperture macros list end*
%ADD10C,0.300000*%
%ADD11C,0.150000*%
%ADD12C,0.120000*%
%ADD13C,0.800000*%
%ADD14C,6.400000*%
%ADD15R,1.700000X1.700000*%
%ADD16O,1.700000X1.700000*%
%ADD17O,1.700000X0.900000*%
%ADD18O,2.400000X0.900000*%
%ADD19C,0.650000*%
%ADD20R,1.600000X1.600000*%
%ADD21O,1.600000X1.600000*%
%ADD22C,4.000000*%
%ADD23C,2.200000*%
%ADD24RoundRect,0.140000X0.360000X0.210000X-0.360000X0.210000X-0.360000X-0.210000X0.360000X-0.210000X0*%
%ADD25C,1.000000*%
%ADD26RoundRect,0.160000X0.160000X-0.197500X0.160000X0.197500X-0.160000X0.197500X-0.160000X-0.197500X0*%
%ADD27RoundRect,0.130000X0.195000X-0.650000X0.195000X0.650000X-0.195000X0.650000X-0.195000X-0.650000X0*%
%ADD28RoundRect,0.155000X0.212500X0.155000X-0.212500X0.155000X-0.212500X-0.155000X0.212500X-0.155000X0*%
%ADD29RoundRect,0.160000X0.197500X0.160000X-0.197500X0.160000X-0.197500X-0.160000X0.197500X-0.160000X0*%
%ADD30RoundRect,0.130000X-0.650000X-0.195000X0.650000X-0.195000X0.650000X0.195000X-0.650000X0.195000X0*%
%ADD31RoundRect,0.130000X0.650000X0.195000X-0.650000X0.195000X-0.650000X-0.195000X0.650000X-0.195000X0*%
%ADD32RoundRect,0.237500X0.287500X0.237500X-0.287500X0.237500X-0.287500X-0.237500X0.287500X-0.237500X0*%
%ADD33RoundRect,0.100000X0.600000X0.450000X-0.600000X0.450000X-0.600000X-0.450000X0.600000X-0.450000X0*%
%ADD34RoundRect,0.160000X-0.197500X-0.160000X0.197500X-0.160000X0.197500X0.160000X-0.197500X0.160000X0*%
%ADD35RoundRect,0.155000X-0.155000X0.212500X-0.155000X-0.212500X0.155000X-0.212500X0.155000X0.212500X0*%
%ADD36RoundRect,0.137500X0.137500X0.512500X-0.137500X0.512500X-0.137500X-0.512500X0.137500X-0.512500X0*%
%ADD37RoundRect,0.155000X0.155000X-0.212500X0.155000X0.212500X-0.155000X0.212500X-0.155000X-0.212500X0*%
%ADD38RoundRect,0.160000X-0.160000X0.197500X-0.160000X-0.197500X0.160000X-0.197500X0.160000X0.197500X0*%
%ADD39RoundRect,0.155000X-0.212500X-0.155000X0.212500X-0.155000X0.212500X0.155000X-0.212500X0.155000X0*%
%ADD40RoundRect,0.140000X-0.360000X-0.210000X0.360000X-0.210000X0.360000X0.210000X-0.360000X0.210000X0*%
%ADD41RoundRect,0.040000X0.060000X-0.460000X0.060000X0.460000X-0.060000X0.460000X-0.060000X-0.460000X0*%
%ADD42RoundRect,0.040000X-0.460000X-0.060000X0.460000X-0.060000X0.460000X0.060000X-0.460000X0.060000X0*%
%ADD43RoundRect,0.100000X-1.600000X-1.600000X1.600000X-1.600000X1.600000X1.600000X-1.600000X1.600000X0*%
%ADD44RoundRect,0.050000X-0.350000X0.050000X-0.350000X-0.050000X0.350000X-0.050000X0.350000X0.050000X0*%
G04 APERTURE END LIST*
D10*
X58588346Y12256944D02*
X58659774Y12185516D01*
X58659774Y12185516D02*
X58874060Y12114087D01*
X58874060Y12114087D02*
X59016917Y12114087D01*
X59016917Y12114087D02*
X59231203Y12185516D01*
X59231203Y12185516D02*
X59374060Y12328373D01*
X59374060Y12328373D02*
X59445489Y12471230D01*
X59445489Y12471230D02*
X59516917Y12756944D01*
X59516917Y12756944D02*
X59516917Y12971230D01*
X59516917Y12971230D02*
X59445489Y13256944D01*
X59445489Y13256944D02*
X59374060Y13399801D01*
X59374060Y13399801D02*
X59231203Y13542658D01*
X59231203Y13542658D02*
X59016917Y13614087D01*
X59016917Y13614087D02*
X58874060Y13614087D01*
X58874060Y13614087D02*
X58659774Y13542658D01*
X58659774Y13542658D02*
X58588346Y13471230D01*
X57302632Y12114087D02*
X57302632Y12899801D01*
X57302632Y12899801D02*
X57374060Y13042658D01*
X57374060Y13042658D02*
X57516917Y13114087D01*
X57516917Y13114087D02*
X57802632Y13114087D01*
X57802632Y13114087D02*
X57945489Y13042658D01*
X57302632Y12185516D02*
X57445489Y12114087D01*
X57445489Y12114087D02*
X57802632Y12114087D01*
X57802632Y12114087D02*
X57945489Y12185516D01*
X57945489Y12185516D02*
X58016917Y12328373D01*
X58016917Y12328373D02*
X58016917Y12471230D01*
X58016917Y12471230D02*
X57945489Y12614087D01*
X57945489Y12614087D02*
X57802632Y12685516D01*
X57802632Y12685516D02*
X57445489Y12685516D01*
X57445489Y12685516D02*
X57302632Y12756944D01*
X56374060Y12114087D02*
X56516917Y12185516D01*
X56516917Y12185516D02*
X56588346Y12328373D01*
X56588346Y12328373D02*
X56588346Y13614087D01*
X55802632Y12114087D02*
X55802632Y13114087D01*
X55802632Y13614087D02*
X55874060Y13542658D01*
X55874060Y13542658D02*
X55802632Y13471230D01*
X55802632Y13471230D02*
X55731203Y13542658D01*
X55731203Y13542658D02*
X55802632Y13614087D01*
X55802632Y13614087D02*
X55802632Y13471230D01*
X55088346Y13114087D02*
X55088346Y11614087D01*
X55088346Y13042658D02*
X54945489Y13114087D01*
X54945489Y13114087D02*
X54659774Y13114087D01*
X54659774Y13114087D02*
X54516917Y13042658D01*
X54516917Y13042658D02*
X54445489Y12971230D01*
X54445489Y12971230D02*
X54374060Y12828373D01*
X54374060Y12828373D02*
X54374060Y12399801D01*
X54374060Y12399801D02*
X54445489Y12256944D01*
X54445489Y12256944D02*
X54516917Y12185516D01*
X54516917Y12185516D02*
X54659774Y12114087D01*
X54659774Y12114087D02*
X54945489Y12114087D01*
X54945489Y12114087D02*
X55088346Y12185516D01*
X53516917Y12114087D02*
X53659774Y12185516D01*
X53659774Y12185516D02*
X53731203Y12328373D01*
X53731203Y12328373D02*
X53731203Y13614087D01*
X52945489Y12114087D02*
X52945489Y13114087D01*
X52945489Y13614087D02*
X53016917Y13542658D01*
X53016917Y13542658D02*
X52945489Y13471230D01*
X52945489Y13471230D02*
X52874060Y13542658D01*
X52874060Y13542658D02*
X52945489Y13614087D01*
X52945489Y13614087D02*
X52945489Y13471230D01*
X51659774Y12185516D02*
X51802631Y12114087D01*
X51802631Y12114087D02*
X52088346Y12114087D01*
X52088346Y12114087D02*
X52231203Y12185516D01*
X52231203Y12185516D02*
X52302631Y12328373D01*
X52302631Y12328373D02*
X52302631Y12899801D01*
X52302631Y12899801D02*
X52231203Y13042658D01*
X52231203Y13042658D02*
X52088346Y13114087D01*
X52088346Y13114087D02*
X51802631Y13114087D01*
X51802631Y13114087D02*
X51659774Y13042658D01*
X51659774Y13042658D02*
X51588346Y12899801D01*
X51588346Y12899801D02*
X51588346Y12756944D01*
X51588346Y12756944D02*
X52302631Y12614087D01*
X50945489Y12114087D02*
X50945489Y13114087D01*
X50945489Y12828373D02*
X50874060Y12971230D01*
X50874060Y12971230D02*
X50802632Y13042658D01*
X50802632Y13042658D02*
X50659774Y13114087D01*
X50659774Y13114087D02*
X50516917Y13114087D01*
X59588346Y10699171D02*
X59231203Y9699171D01*
X59231203Y9699171D02*
X58874060Y10699171D01*
X57516917Y9699171D02*
X58374060Y9699171D01*
X57945489Y9699171D02*
X57945489Y11199171D01*
X57945489Y11199171D02*
X58088346Y10984885D01*
X58088346Y10984885D02*
X58231203Y10842028D01*
X58231203Y10842028D02*
X58374060Y10770600D01*
X56874061Y9842028D02*
X56802632Y9770600D01*
X56802632Y9770600D02*
X56874061Y9699171D01*
X56874061Y9699171D02*
X56945489Y9770600D01*
X56945489Y9770600D02*
X56874061Y9842028D01*
X56874061Y9842028D02*
X56874061Y9699171D01*
X55874060Y11199171D02*
X55731203Y11199171D01*
X55731203Y11199171D02*
X55588346Y11127742D01*
X55588346Y11127742D02*
X55516918Y11056314D01*
X55516918Y11056314D02*
X55445489Y10913457D01*
X55445489Y10913457D02*
X55374060Y10627742D01*
X55374060Y10627742D02*
X55374060Y10270600D01*
X55374060Y10270600D02*
X55445489Y9984885D01*
X55445489Y9984885D02*
X55516918Y9842028D01*
X55516918Y9842028D02*
X55588346Y9770600D01*
X55588346Y9770600D02*
X55731203Y9699171D01*
X55731203Y9699171D02*
X55874060Y9699171D01*
X55874060Y9699171D02*
X56016918Y9770600D01*
X56016918Y9770600D02*
X56088346Y9842028D01*
X56088346Y9842028D02*
X56159775Y9984885D01*
X56159775Y9984885D02*
X56231203Y10270600D01*
X56231203Y10270600D02*
X56231203Y10627742D01*
X56231203Y10627742D02*
X56159775Y10913457D01*
X56159775Y10913457D02*
X56088346Y11056314D01*
X56088346Y11056314D02*
X56016918Y11127742D01*
X56016918Y11127742D02*
X55874060Y11199171D01*
D11*
X51085714Y-16931009D02*
X50971428Y-16978628D01*
X50971428Y-16978628D02*
X50933333Y-17026247D01*
X50933333Y-17026247D02*
X50895237Y-17121485D01*
X50895237Y-17121485D02*
X50895237Y-17264342D01*
X50895237Y-17264342D02*
X50933333Y-17359580D01*
X50933333Y-17359580D02*
X50971428Y-17407200D01*
X50971428Y-17407200D02*
X51047618Y-17454819D01*
X51047618Y-17454819D02*
X51352380Y-17454819D01*
X51352380Y-17454819D02*
X51352380Y-16454819D01*
X51352380Y-16454819D02*
X51085714Y-16454819D01*
X51085714Y-16454819D02*
X51009523Y-16502438D01*
X51009523Y-16502438D02*
X50971428Y-16550057D01*
X50971428Y-16550057D02*
X50933333Y-16645295D01*
X50933333Y-16645295D02*
X50933333Y-16740533D01*
X50933333Y-16740533D02*
X50971428Y-16835771D01*
X50971428Y-16835771D02*
X51009523Y-16883390D01*
X51009523Y-16883390D02*
X51085714Y-16931009D01*
X51085714Y-16931009D02*
X51352380Y-16931009D01*
X50399999Y-16454819D02*
X50247618Y-16454819D01*
X50247618Y-16454819D02*
X50171428Y-16502438D01*
X50171428Y-16502438D02*
X50095237Y-16597676D01*
X50095237Y-16597676D02*
X50057142Y-16788152D01*
X50057142Y-16788152D02*
X50057142Y-17121485D01*
X50057142Y-17121485D02*
X50095237Y-17311961D01*
X50095237Y-17311961D02*
X50171428Y-17407200D01*
X50171428Y-17407200D02*
X50247618Y-17454819D01*
X50247618Y-17454819D02*
X50399999Y-17454819D01*
X50399999Y-17454819D02*
X50476190Y-17407200D01*
X50476190Y-17407200D02*
X50552380Y-17311961D01*
X50552380Y-17311961D02*
X50590476Y-17121485D01*
X50590476Y-17121485D02*
X50590476Y-16788152D01*
X50590476Y-16788152D02*
X50552380Y-16597676D01*
X50552380Y-16597676D02*
X50476190Y-16502438D01*
X50476190Y-16502438D02*
X50399999Y-16454819D01*
X49561904Y-16454819D02*
X49409523Y-16454819D01*
X49409523Y-16454819D02*
X49333333Y-16502438D01*
X49333333Y-16502438D02*
X49257142Y-16597676D01*
X49257142Y-16597676D02*
X49219047Y-16788152D01*
X49219047Y-16788152D02*
X49219047Y-17121485D01*
X49219047Y-17121485D02*
X49257142Y-17311961D01*
X49257142Y-17311961D02*
X49333333Y-17407200D01*
X49333333Y-17407200D02*
X49409523Y-17454819D01*
X49409523Y-17454819D02*
X49561904Y-17454819D01*
X49561904Y-17454819D02*
X49638095Y-17407200D01*
X49638095Y-17407200D02*
X49714285Y-17311961D01*
X49714285Y-17311961D02*
X49752381Y-17121485D01*
X49752381Y-17121485D02*
X49752381Y-16788152D01*
X49752381Y-16788152D02*
X49714285Y-16597676D01*
X49714285Y-16597676D02*
X49638095Y-16502438D01*
X49638095Y-16502438D02*
X49561904Y-16454819D01*
X48990476Y-16454819D02*
X48533333Y-16454819D01*
X48761905Y-17454819D02*
X48761905Y-16454819D01*
X40997561Y-11859524D02*
X41045180Y-11935714D01*
X41045180Y-11935714D02*
X41045180Y-12050000D01*
X41045180Y-12050000D02*
X40997561Y-12164286D01*
X40997561Y-12164286D02*
X40902323Y-12240476D01*
X40902323Y-12240476D02*
X40807085Y-12278571D01*
X40807085Y-12278571D02*
X40616609Y-12316667D01*
X40616609Y-12316667D02*
X40473752Y-12316667D01*
X40473752Y-12316667D02*
X40283276Y-12278571D01*
X40283276Y-12278571D02*
X40188038Y-12240476D01*
X40188038Y-12240476D02*
X40092800Y-12164286D01*
X40092800Y-12164286D02*
X40045180Y-12050000D01*
X40045180Y-12050000D02*
X40045180Y-11973809D01*
X40045180Y-11973809D02*
X40092800Y-11859524D01*
X40092800Y-11859524D02*
X40140419Y-11821428D01*
X40140419Y-11821428D02*
X40473752Y-11821428D01*
X40473752Y-11821428D02*
X40473752Y-11973809D01*
X40045180Y-11478571D02*
X41045180Y-11478571D01*
X41045180Y-11478571D02*
X40045180Y-11021428D01*
X40045180Y-11021428D02*
X41045180Y-11021428D01*
X40045180Y-10640476D02*
X41045180Y-10640476D01*
X41045180Y-10640476D02*
X41045180Y-10450000D01*
X41045180Y-10450000D02*
X40997561Y-10335714D01*
X40997561Y-10335714D02*
X40902323Y-10259524D01*
X40902323Y-10259524D02*
X40807085Y-10221429D01*
X40807085Y-10221429D02*
X40616609Y-10183333D01*
X40616609Y-10183333D02*
X40473752Y-10183333D01*
X40473752Y-10183333D02*
X40283276Y-10221429D01*
X40283276Y-10221429D02*
X40188038Y-10259524D01*
X40188038Y-10259524D02*
X40092800Y-10335714D01*
X40092800Y-10335714D02*
X40045180Y-10450000D01*
X40045180Y-10450000D02*
X40045180Y-10640476D01*
X36992799Y2440475D02*
X36945179Y2554761D01*
X36945179Y2554761D02*
X36945179Y2745237D01*
X36945179Y2745237D02*
X36992799Y2821428D01*
X36992799Y2821428D02*
X37040418Y2859523D01*
X37040418Y2859523D02*
X37135656Y2897618D01*
X37135656Y2897618D02*
X37230894Y2897618D01*
X37230894Y2897618D02*
X37326132Y2859523D01*
X37326132Y2859523D02*
X37373751Y2821428D01*
X37373751Y2821428D02*
X37421370Y2745237D01*
X37421370Y2745237D02*
X37468989Y2592856D01*
X37468989Y2592856D02*
X37516608Y2516666D01*
X37516608Y2516666D02*
X37564227Y2478571D01*
X37564227Y2478571D02*
X37659465Y2440475D01*
X37659465Y2440475D02*
X37754703Y2440475D01*
X37754703Y2440475D02*
X37849941Y2478571D01*
X37849941Y2478571D02*
X37897560Y2516666D01*
X37897560Y2516666D02*
X37945179Y2592856D01*
X37945179Y2592856D02*
X37945179Y2783333D01*
X37945179Y2783333D02*
X37897560Y2897618D01*
X37945179Y3164285D02*
X36945179Y3354761D01*
X36945179Y3354761D02*
X37659465Y3507142D01*
X37659465Y3507142D02*
X36945179Y3659523D01*
X36945179Y3659523D02*
X37945179Y3850000D01*
X37040418Y4611905D02*
X36992799Y4573809D01*
X36992799Y4573809D02*
X36945179Y4459524D01*
X36945179Y4459524D02*
X36945179Y4383333D01*
X36945179Y4383333D02*
X36992799Y4269047D01*
X36992799Y4269047D02*
X37088037Y4192857D01*
X37088037Y4192857D02*
X37183275Y4154762D01*
X37183275Y4154762D02*
X37373751Y4116666D01*
X37373751Y4116666D02*
X37516608Y4116666D01*
X37516608Y4116666D02*
X37707084Y4154762D01*
X37707084Y4154762D02*
X37802322Y4192857D01*
X37802322Y4192857D02*
X37897560Y4269047D01*
X37897560Y4269047D02*
X37945179Y4383333D01*
X37945179Y4383333D02*
X37945179Y4459524D01*
X37945179Y4459524D02*
X37897560Y4573809D01*
X37897560Y4573809D02*
X37849941Y4611905D01*
X36945179Y5335714D02*
X36945179Y4954762D01*
X36945179Y4954762D02*
X37945179Y4954762D01*
X36945179Y5602381D02*
X37945179Y5602381D01*
X36945179Y6059524D02*
X37516608Y5716666D01*
X37945179Y6059524D02*
X37373751Y5602381D01*
X33350178Y3233333D02*
X32350178Y3500000D01*
X32350178Y3500000D02*
X33350178Y3766666D01*
X32445417Y4490476D02*
X32397798Y4452380D01*
X32397798Y4452380D02*
X32350178Y4338095D01*
X32350178Y4338095D02*
X32350178Y4261904D01*
X32350178Y4261904D02*
X32397798Y4147618D01*
X32397798Y4147618D02*
X32493036Y4071428D01*
X32493036Y4071428D02*
X32588274Y4033333D01*
X32588274Y4033333D02*
X32778750Y3995237D01*
X32778750Y3995237D02*
X32921607Y3995237D01*
X32921607Y3995237D02*
X33112083Y4033333D01*
X33112083Y4033333D02*
X33207321Y4071428D01*
X33207321Y4071428D02*
X33302559Y4147618D01*
X33302559Y4147618D02*
X33350178Y4261904D01*
X33350178Y4261904D02*
X33350178Y4338095D01*
X33350178Y4338095D02*
X33302559Y4452380D01*
X33302559Y4452380D02*
X33254940Y4490476D01*
X32445417Y5290476D02*
X32397798Y5252380D01*
X32397798Y5252380D02*
X32350178Y5138095D01*
X32350178Y5138095D02*
X32350178Y5061904D01*
X32350178Y5061904D02*
X32397798Y4947618D01*
X32397798Y4947618D02*
X32493036Y4871428D01*
X32493036Y4871428D02*
X32588274Y4833333D01*
X32588274Y4833333D02*
X32778750Y4795237D01*
X32778750Y4795237D02*
X32921607Y4795237D01*
X32921607Y4795237D02*
X33112083Y4833333D01*
X33112083Y4833333D02*
X33207321Y4871428D01*
X33207321Y4871428D02*
X33302559Y4947618D01*
X33302559Y4947618D02*
X33350178Y5061904D01*
X33350178Y5061904D02*
X33350178Y5138095D01*
X33350178Y5138095D02*
X33302559Y5252380D01*
X33302559Y5252380D02*
X33254940Y5290476D01*
X34897560Y3140477D02*
X34945179Y3064287D01*
X34945179Y3064287D02*
X34945179Y2950001D01*
X34945179Y2950001D02*
X34897560Y2835715D01*
X34897560Y2835715D02*
X34802322Y2759525D01*
X34802322Y2759525D02*
X34707084Y2721430D01*
X34707084Y2721430D02*
X34516608Y2683334D01*
X34516608Y2683334D02*
X34373751Y2683334D01*
X34373751Y2683334D02*
X34183275Y2721430D01*
X34183275Y2721430D02*
X34088037Y2759525D01*
X34088037Y2759525D02*
X33992799Y2835715D01*
X33992799Y2835715D02*
X33945179Y2950001D01*
X33945179Y2950001D02*
X33945179Y3026192D01*
X33945179Y3026192D02*
X33992799Y3140477D01*
X33992799Y3140477D02*
X34040418Y3178573D01*
X34040418Y3178573D02*
X34373751Y3178573D01*
X34373751Y3178573D02*
X34373751Y3026192D01*
X33945179Y3521430D02*
X34945179Y3521430D01*
X34945179Y3521430D02*
X33945179Y3978573D01*
X33945179Y3978573D02*
X34945179Y3978573D01*
X33945179Y4359525D02*
X34945179Y4359525D01*
X34945179Y4359525D02*
X34945179Y4550001D01*
X34945179Y4550001D02*
X34897560Y4664287D01*
X34897560Y4664287D02*
X34802322Y4740477D01*
X34802322Y4740477D02*
X34707084Y4778572D01*
X34707084Y4778572D02*
X34516608Y4816668D01*
X34516608Y4816668D02*
X34373751Y4816668D01*
X34373751Y4816668D02*
X34183275Y4778572D01*
X34183275Y4778572D02*
X34088037Y4740477D01*
X34088037Y4740477D02*
X33992799Y4664287D01*
X33992799Y4664287D02*
X33945179Y4550001D01*
X33945179Y4550001D02*
X33945179Y4359525D01*
X29838095Y11704819D02*
X29571428Y11228628D01*
X29380952Y11704819D02*
X29380952Y10704819D01*
X29380952Y10704819D02*
X29685714Y10704819D01*
X29685714Y10704819D02*
X29761904Y10752438D01*
X29761904Y10752438D02*
X29799999Y10800057D01*
X29799999Y10800057D02*
X29838095Y10895295D01*
X29838095Y10895295D02*
X29838095Y11038152D01*
X29838095Y11038152D02*
X29799999Y11133390D01*
X29799999Y11133390D02*
X29761904Y11181009D01*
X29761904Y11181009D02*
X29685714Y11228628D01*
X29685714Y11228628D02*
X29380952Y11228628D01*
X30180952Y11181009D02*
X30447618Y11181009D01*
X30561904Y11704819D02*
X30180952Y11704819D01*
X30180952Y11704819D02*
X30180952Y10704819D01*
X30180952Y10704819D02*
X30561904Y10704819D01*
X30866666Y11657200D02*
X30980952Y11704819D01*
X30980952Y11704819D02*
X31171428Y11704819D01*
X31171428Y11704819D02*
X31247619Y11657200D01*
X31247619Y11657200D02*
X31285714Y11609580D01*
X31285714Y11609580D02*
X31323809Y11514342D01*
X31323809Y11514342D02*
X31323809Y11419104D01*
X31323809Y11419104D02*
X31285714Y11323866D01*
X31285714Y11323866D02*
X31247619Y11276247D01*
X31247619Y11276247D02*
X31171428Y11228628D01*
X31171428Y11228628D02*
X31019047Y11181009D01*
X31019047Y11181009D02*
X30942857Y11133390D01*
X30942857Y11133390D02*
X30904762Y11085771D01*
X30904762Y11085771D02*
X30866666Y10990533D01*
X30866666Y10990533D02*
X30866666Y10895295D01*
X30866666Y10895295D02*
X30904762Y10800057D01*
X30904762Y10800057D02*
X30942857Y10752438D01*
X30942857Y10752438D02*
X31019047Y10704819D01*
X31019047Y10704819D02*
X31209524Y10704819D01*
X31209524Y10704819D02*
X31323809Y10752438D01*
X31666667Y11181009D02*
X31933333Y11181009D01*
X32047619Y11704819D02*
X31666667Y11704819D01*
X31666667Y11704819D02*
X31666667Y10704819D01*
X31666667Y10704819D02*
X32047619Y10704819D01*
X32276191Y10704819D02*
X32733334Y10704819D01*
X32504762Y11704819D02*
X32504762Y10704819D01*
X44045180Y-11205523D02*
X44045180Y-10748380D01*
X43045180Y-10976952D02*
X44045180Y-10976952D01*
X44045180Y-10557904D02*
X43045180Y-10024570D01*
X44045180Y-10024570D02*
X43045180Y-10557904D01*
X41545180Y-10883332D02*
X42021371Y-11149999D01*
X41545180Y-11340475D02*
X42545180Y-11340475D01*
X42545180Y-11340475D02*
X42545180Y-11035713D01*
X42545180Y-11035713D02*
X42497561Y-10959523D01*
X42497561Y-10959523D02*
X42449942Y-10921428D01*
X42449942Y-10921428D02*
X42354704Y-10883332D01*
X42354704Y-10883332D02*
X42211847Y-10883332D01*
X42211847Y-10883332D02*
X42116609Y-10921428D01*
X42116609Y-10921428D02*
X42068990Y-10959523D01*
X42068990Y-10959523D02*
X42021371Y-11035713D01*
X42021371Y-11035713D02*
X42021371Y-11340475D01*
X42545180Y-10616666D02*
X41545180Y-10083332D01*
X42545180Y-10083332D02*
X41545180Y-10616666D01*
X35492799Y2554761D02*
X35445179Y2669047D01*
X35445179Y2669047D02*
X35445179Y2859523D01*
X35445179Y2859523D02*
X35492799Y2935714D01*
X35492799Y2935714D02*
X35540418Y2973809D01*
X35540418Y2973809D02*
X35635656Y3011904D01*
X35635656Y3011904D02*
X35730894Y3011904D01*
X35730894Y3011904D02*
X35826132Y2973809D01*
X35826132Y2973809D02*
X35873751Y2935714D01*
X35873751Y2935714D02*
X35921370Y2859523D01*
X35921370Y2859523D02*
X35968989Y2707142D01*
X35968989Y2707142D02*
X36016608Y2630952D01*
X36016608Y2630952D02*
X36064227Y2592857D01*
X36064227Y2592857D02*
X36159465Y2554761D01*
X36159465Y2554761D02*
X36254703Y2554761D01*
X36254703Y2554761D02*
X36349941Y2592857D01*
X36349941Y2592857D02*
X36397560Y2630952D01*
X36397560Y2630952D02*
X36445179Y2707142D01*
X36445179Y2707142D02*
X36445179Y2897619D01*
X36445179Y2897619D02*
X36397560Y3011904D01*
X36445179Y3278571D02*
X35445179Y3469047D01*
X35445179Y3469047D02*
X36159465Y3621428D01*
X36159465Y3621428D02*
X35445179Y3773809D01*
X35445179Y3773809D02*
X36445179Y3964286D01*
X35445179Y4269048D02*
X36445179Y4269048D01*
X36445179Y4269048D02*
X36445179Y4459524D01*
X36445179Y4459524D02*
X36397560Y4573810D01*
X36397560Y4573810D02*
X36302322Y4650000D01*
X36302322Y4650000D02*
X36207084Y4688095D01*
X36207084Y4688095D02*
X36016608Y4726191D01*
X36016608Y4726191D02*
X35873751Y4726191D01*
X35873751Y4726191D02*
X35683275Y4688095D01*
X35683275Y4688095D02*
X35588037Y4650000D01*
X35588037Y4650000D02*
X35492799Y4573810D01*
X35492799Y4573810D02*
X35445179Y4459524D01*
X35445179Y4459524D02*
X35445179Y4269048D01*
X35445179Y5069048D02*
X36445179Y5069048D01*
X36445179Y5602381D02*
X36445179Y5754762D01*
X36445179Y5754762D02*
X36397560Y5830952D01*
X36397560Y5830952D02*
X36302322Y5907143D01*
X36302322Y5907143D02*
X36111846Y5945238D01*
X36111846Y5945238D02*
X35778513Y5945238D01*
X35778513Y5945238D02*
X35588037Y5907143D01*
X35588037Y5907143D02*
X35492799Y5830952D01*
X35492799Y5830952D02*
X35445179Y5754762D01*
X35445179Y5754762D02*
X35445179Y5602381D01*
X35445179Y5602381D02*
X35492799Y5526190D01*
X35492799Y5526190D02*
X35588037Y5450000D01*
X35588037Y5450000D02*
X35778513Y5411904D01*
X35778513Y5411904D02*
X36111846Y5411904D01*
X36111846Y5411904D02*
X36302322Y5450000D01*
X36302322Y5450000D02*
X36397560Y5526190D01*
X36397560Y5526190D02*
X36445179Y5602381D01*
D12*
%TO.C,SW2*%
X52400000Y-13500000D02*
G75*
G02*
X47600000Y-13500000I-2400000J0D01*
G01*
X47600000Y-13500000D02*
G75*
G02*
X52400000Y-13500000I2400000J0D01*
G01*
%TO.C,Q1*%
X8025000Y12330000D02*
X8025000Y10530000D01*
X8025000Y10530000D02*
X9025000Y10530000D01*
X9025000Y12330000D02*
X10025000Y12330000D01*
X10025000Y10530000D02*
X11025000Y10530000D01*
X11025000Y10530000D02*
X11025000Y12330000D01*
%TO.C,Q8*%
X-38965000Y12330000D02*
X-38965000Y10530000D01*
X-38965000Y10530000D02*
X-37965000Y10530000D01*
X-37965000Y12330000D02*
X-36965000Y12330000D01*
X-36965000Y10530000D02*
X-35965000Y10530000D01*
X-35965000Y10530000D02*
X-35965000Y12330000D01*
%TO.C,Q19*%
X-39000000Y-1050000D02*
X-39000000Y-2050000D01*
X-39000000Y-3050000D02*
X-39000000Y-4050000D01*
X-39000000Y-4050000D02*
X-37200000Y-4050000D01*
X-37200000Y-1050000D02*
X-39000000Y-1050000D01*
X-37200000Y-2050000D02*
X-37200000Y-3050000D01*
%TO.C,Q6*%
X-49125000Y12330000D02*
X-49125000Y10530000D01*
X-49125000Y10530000D02*
X-48125000Y10530000D01*
X-48125000Y12330000D02*
X-47125000Y12330000D01*
X-47125000Y10530000D02*
X-46125000Y10530000D01*
X-46125000Y10530000D02*
X-46125000Y12330000D01*
%TO.C,U5*%
X-49549000Y-14607000D02*
X-49549000Y-13607000D01*
X-49549000Y-15607000D02*
X-47749000Y-15607000D01*
X-48349000Y-13507000D02*
X-48349000Y-12607000D01*
X-47749000Y-12607000D02*
X-49549000Y-12607000D01*
%TO.C,X1*%
X34649999Y-3250000D02*
X36149999Y-3250000D01*
X36149999Y-3250000D02*
X36149999Y-2250000D01*
%TO.C,Q16*%
X-13600000Y-1050000D02*
X-13600000Y-2050000D01*
X-13600000Y-3050000D02*
X-13600000Y-4050000D01*
X-13600000Y-4050000D02*
X-11800000Y-4050000D01*
X-11800000Y-1050000D02*
X-13600000Y-1050000D01*
X-11800000Y-2050000D02*
X-11800000Y-3050000D01*
%TO.C,Q12*%
X11835000Y12330000D02*
X11835000Y10530000D01*
X11835000Y10530000D02*
X12835000Y10530000D01*
X12835000Y12330000D02*
X13835000Y12330000D01*
X13835000Y10530000D02*
X14835000Y10530000D01*
X14835000Y10530000D02*
X14835000Y12330000D01*
%TO.C,Q10*%
X-13565000Y12330000D02*
X-13565000Y10530000D01*
X-13565000Y10530000D02*
X-12565000Y10530000D01*
X-12565000Y12330000D02*
X-11565000Y12330000D01*
X-11565000Y10530000D02*
X-10565000Y10530000D01*
X-10565000Y10530000D02*
X-10565000Y12330000D01*
%TO.C,Q5*%
X-42775000Y12330000D02*
X-42775000Y10530000D01*
X-42775000Y10530000D02*
X-41775000Y10530000D01*
X-41775000Y12330000D02*
X-40775000Y12330000D01*
X-40775000Y10530000D02*
X-39775000Y10530000D01*
X-39775000Y10530000D02*
X-39775000Y12330000D01*
%TO.C,Q3*%
X-17375000Y12330000D02*
X-17375000Y10530000D01*
X-17375000Y10530000D02*
X-16375000Y10530000D01*
X-16375000Y12330000D02*
X-15375000Y12330000D01*
X-15375000Y10530000D02*
X-14375000Y10530000D01*
X-14375000Y10530000D02*
X-14375000Y12330000D01*
%TO.C,U7*%
X53750000Y-6850000D02*
X52550000Y-8050000D01*
X53750000Y-9450000D02*
X53750000Y-8050000D01*
X48750000Y-8050000D02*
X53750000Y-8050000D01*
X53750000Y-4450000D01*
X48750000Y-4450000D01*
X48750000Y-8050000D01*
%TO.C,Q9*%
X-27535000Y12330000D02*
X-27535000Y10530000D01*
X-27535000Y10530000D02*
X-26535000Y10530000D01*
X-26535000Y12330000D02*
X-25535000Y12330000D01*
X-25535000Y10530000D02*
X-24535000Y10530000D01*
X-24535000Y10530000D02*
X-24535000Y12330000D01*
%TO.C,Q11*%
X-2135000Y12330000D02*
X-2135000Y10530000D01*
X-2135000Y10530000D02*
X-1135000Y10530000D01*
X-1135000Y12330000D02*
X-135000Y12330000D01*
X-135000Y10530000D02*
X865000Y10530000D01*
X865000Y10530000D02*
X865000Y12330000D01*
%TO.C,Q15*%
X-3440000Y-1050000D02*
X-3440000Y-2050000D01*
X-3440000Y-3050000D02*
X-3440000Y-4050000D01*
X-3440000Y-4050000D02*
X-1640000Y-4050000D01*
X-1640000Y-1050000D02*
X-3440000Y-1050000D01*
X-1640000Y-2050000D02*
X-1640000Y-3050000D01*
%TO.C,Q20*%
X-46620000Y-1050000D02*
X-46620000Y-2050000D01*
X-46620000Y-3050000D02*
X-46620000Y-4050000D01*
X-46620000Y-4050000D02*
X-44820000Y-4050000D01*
X-44820000Y-1050000D02*
X-46620000Y-1050000D01*
X-44820000Y-2050000D02*
X-44820000Y-3050000D01*
%TO.C,Q18*%
X-28840000Y-1050000D02*
X-28840000Y-2050000D01*
X-28840000Y-3050000D02*
X-28840000Y-4050000D01*
X-28840000Y-4050000D02*
X-27040000Y-4050000D01*
X-27040000Y-1050000D02*
X-28840000Y-1050000D01*
X-27040000Y-2050000D02*
X-27040000Y-3050000D01*
%TO.C,Q13*%
X11800000Y-1050000D02*
X11800000Y-2050000D01*
X11800000Y-3050000D02*
X11800000Y-4050000D01*
X11800000Y-4050000D02*
X13600000Y-4050000D01*
X13600000Y-1050000D02*
X11800000Y-1050000D01*
X13600000Y-2050000D02*
X13600000Y-3050000D01*
%TO.C,Q4*%
X-23725000Y12330000D02*
X-23725000Y10530000D01*
X-23725000Y10530000D02*
X-22725000Y10530000D01*
X-22725000Y12330000D02*
X-21725000Y12330000D01*
X-21725000Y10530000D02*
X-20725000Y10530000D01*
X-20725000Y10530000D02*
X-20725000Y12330000D01*
%TO.C,Q22*%
X-56780000Y2030000D02*
X-56780000Y3030000D01*
X-56780000Y1030000D02*
X-54980000Y1030000D01*
X-54980000Y4030000D02*
X-56780000Y4030000D01*
X-54980000Y3030000D02*
X-54980000Y4030000D01*
X-54980000Y1030000D02*
X-54980000Y2030000D01*
%TO.C,SW1*%
X33400000Y7750000D02*
G75*
G02*
X28600000Y7750000I-2400000J0D01*
G01*
X28600000Y7750000D02*
G75*
G02*
X33400000Y7750000I2400000J0D01*
G01*
%TO.C,U6*%
X39500000Y2250000D02*
X40000000Y2250000D01*
X39500000Y1750000D02*
X39500000Y2250000D01*
X39500000Y-4750000D02*
X39500000Y-4250000D01*
X40000000Y-4750000D02*
X39500000Y-4750000D01*
X46000000Y2250000D02*
X46500000Y2250000D01*
X46000000Y-4250000D02*
X46000000Y-5250000D01*
X46500000Y2250000D02*
X46500000Y1750000D01*
X46500000Y-4250000D02*
X46500000Y-4750000D01*
X46500000Y-4750000D02*
X46000000Y-4750000D01*
%TO.C,Q14*%
X4180000Y-1050000D02*
X4180000Y-2050000D01*
X4180000Y-3050000D02*
X4180000Y-4050000D01*
X4180000Y-4050000D02*
X5980000Y-4050000D01*
X5980000Y-1050000D02*
X4180000Y-1050000D01*
X5980000Y-2050000D02*
X5980000Y-3050000D01*
%TO.C,Q7*%
X-52935000Y12330000D02*
X-52935000Y10530000D01*
X-52935000Y10530000D02*
X-51935000Y10530000D01*
X-51935000Y12330000D02*
X-50935000Y12330000D01*
X-50935000Y10530000D02*
X-49935000Y10530000D01*
X-49935000Y10530000D02*
X-49935000Y12330000D01*
%TO.C,Q17*%
X-21220000Y-1050000D02*
X-21220000Y-2050000D01*
X-21220000Y-3050000D02*
X-21220000Y-4050000D01*
X-21220000Y-4050000D02*
X-19420000Y-4050000D01*
X-19420000Y-1050000D02*
X-21220000Y-1050000D01*
X-19420000Y-2050000D02*
X-19420000Y-3050000D01*
%TO.C,U1*%
X36468358Y-15000000D02*
X36468358Y-14000000D01*
X36468358Y-16000000D02*
X38268358Y-16000000D01*
X37668358Y-13900000D02*
X37668358Y-13000000D01*
X38268358Y-13000000D02*
X36468358Y-13000000D01*
%TO.C,Q21*%
X-56780000Y-3050000D02*
X-56780000Y-2050000D01*
X-56780000Y-4050000D02*
X-54980000Y-4050000D01*
X-54980000Y-1050000D02*
X-56780000Y-1050000D01*
X-54980000Y-2050000D02*
X-54980000Y-1050000D01*
X-54980000Y-4050000D02*
X-54980000Y-3050000D01*
%TO.C,Q2*%
X1675000Y12330000D02*
X1675000Y10530000D01*
X1675000Y10530000D02*
X2675000Y10530000D01*
X2675000Y12330000D02*
X3675000Y12330000D01*
X3675000Y10530000D02*
X4675000Y10530000D01*
X4675000Y10530000D02*
X4675000Y12330000D01*
%TO.C,D1*%
X53400000Y1200000D02*
X54600000Y1200000D01*
X53400000Y1000000D02*
X53400000Y1200000D01*
X53400000Y-1000000D02*
X53400000Y-1200000D01*
X53400000Y-1200000D02*
X54600000Y-1200000D01*
X54200000Y1000000D02*
X54600000Y1000000D01*
X54600000Y1000000D02*
X54600000Y1200000D01*
X54600000Y-1000000D02*
X54600000Y-1200000D01*
X55000000Y1000000D02*
X54600000Y1000000D01*
%TD*%
%LPC*%
D13*
%TO.C,M5*%
X-71400000Y9000000D03*
X-70697056Y10697056D03*
X-70697056Y7302944D03*
X-69000000Y11400000D03*
D14*
X-69000000Y9000000D03*
D13*
X-69000000Y6600000D03*
X-67302944Y10697056D03*
X-67302944Y7302944D03*
X-66600000Y9000000D03*
%TD*%
%TO.C,M1*%
X-63360000Y12690000D03*
X-62657056Y14387056D03*
X-62657056Y10992944D03*
X-60960000Y15090000D03*
D14*
X-60960000Y12690000D03*
D13*
X-60960000Y10290000D03*
X-59262944Y14387056D03*
X-59262944Y10992944D03*
X-58560000Y12690000D03*
%TD*%
%TO.C,M3*%
X17920000Y12690000D03*
X18622944Y14387056D03*
X18622944Y10992944D03*
X20320000Y15090000D03*
D14*
X20320000Y12690000D03*
D13*
X20320000Y10290000D03*
X22017056Y14387056D03*
X22017056Y10992944D03*
X22720000Y12690000D03*
%TD*%
D15*
%TO.C,J2*%
X-63500000Y3800000D03*
D16*
X-63500000Y1260000D03*
X-63500000Y-1280000D03*
X-63500000Y-3820000D03*
%TD*%
D17*
%TO.C,J1*%
X62260000Y-4325000D03*
D18*
X58880000Y-4325000D03*
D17*
X62260000Y4325000D03*
D18*
X58880000Y4325000D03*
D19*
X57900000Y-2975000D03*
X57900000Y-2125000D03*
X57900000Y-1275000D03*
X57900000Y-425000D03*
X57900000Y425000D03*
X57900000Y1275000D03*
X57900000Y2125000D03*
X57900000Y2975000D03*
X59250000Y2975000D03*
X59250000Y2125000D03*
X59250000Y1275000D03*
X59250000Y425000D03*
X59250000Y-425000D03*
X59250000Y-1275000D03*
X59250000Y-2125000D03*
X59250000Y-2975000D03*
%TD*%
D20*
%TO.C,U4*%
X-5080000Y-7630000D03*
D21*
X-2540000Y-7630000D03*
X0Y-7630000D03*
X2540000Y-7630000D03*
X5080000Y-7630000D03*
X7620000Y-7630000D03*
X10160000Y-7630000D03*
X12700000Y-7630000D03*
X15240000Y-7630000D03*
X15240000Y7610000D03*
X12700000Y7610000D03*
X10160000Y7610000D03*
X7620000Y7610000D03*
X5080000Y7610000D03*
X2540000Y7610000D03*
X0Y7610000D03*
X-2540000Y7610000D03*
X-5080000Y7610000D03*
%TD*%
D20*
%TO.C,U3*%
X-30480000Y-7630000D03*
D21*
X-27940000Y-7630000D03*
X-25400000Y-7630000D03*
X-22860000Y-7630000D03*
X-20320000Y-7630000D03*
X-17780000Y-7630000D03*
X-15240000Y-7630000D03*
X-12700000Y-7630000D03*
X-10160000Y-7630000D03*
X-10160000Y7610000D03*
X-12700000Y7610000D03*
X-15240000Y7610000D03*
X-17780000Y7610000D03*
X-20320000Y7610000D03*
X-22860000Y7610000D03*
X-25400000Y7610000D03*
X-27940000Y7610000D03*
X-30480000Y7610000D03*
%TD*%
D13*
%TO.C,M4*%
X17920000Y-12710000D03*
X18622944Y-11012944D03*
X18622944Y-14407056D03*
X20320000Y-10310000D03*
D14*
X20320000Y-12710000D03*
D13*
X20320000Y-15110000D03*
X22017056Y-11012944D03*
X22017056Y-14407056D03*
X22720000Y-12710000D03*
%TD*%
D22*
%TO.C,SW3*%
X29210000Y-10000D03*
D23*
X24130000Y2530000D03*
X26670000Y-3820000D03*
%TD*%
D20*
%TO.C,U2*%
X-55880000Y-7630000D03*
D21*
X-53340000Y-7630000D03*
X-50800000Y-7630000D03*
X-48260000Y-7630000D03*
X-45720000Y-7630000D03*
X-43180000Y-7630000D03*
X-40640000Y-7630000D03*
X-38100000Y-7630000D03*
X-35560000Y-7630000D03*
X-35560000Y7610000D03*
X-38100000Y7610000D03*
X-40640000Y7610000D03*
X-43180000Y7610000D03*
X-45720000Y7610000D03*
X-48260000Y7610000D03*
X-50800000Y7610000D03*
X-53340000Y7610000D03*
X-55880000Y7610000D03*
%TD*%
D13*
%TO.C,M2*%
X-63360000Y-12710000D03*
X-62657056Y-11012944D03*
X-62657056Y-14407056D03*
X-60960000Y-10310000D03*
D14*
X-60960000Y-12710000D03*
D13*
X-60960000Y-15110000D03*
X-59262944Y-11012944D03*
X-59262944Y-14407056D03*
X-58560000Y-12710000D03*
%TD*%
D24*
%TO.C,SW2*%
X53000000Y-11650000D03*
X47000000Y-11650000D03*
X53000000Y-15350000D03*
X47000000Y-15350000D03*
%TD*%
D25*
%TO.C,tGND1*%
X40500000Y-9250000D03*
%TD*%
D26*
%TO.C,R25*%
X-19685000Y9552500D03*
X-19685000Y10747500D03*
%TD*%
D27*
%TO.C,Q1*%
X8575000Y12780000D03*
X10475000Y12780000D03*
X9525000Y10080000D03*
%TD*%
%TO.C,Q8*%
X-38415000Y12780000D03*
X-36515000Y12780000D03*
X-37465000Y10080000D03*
%TD*%
D28*
%TO.C,C18*%
X37967500Y240000D03*
X36832500Y240000D03*
%TD*%
D26*
%TO.C,R26*%
X-18415000Y9552500D03*
X-18415000Y10747500D03*
%TD*%
D29*
%TO.C,R7*%
X-43852500Y-5090000D03*
X-45047500Y-5090000D03*
%TD*%
D30*
%TO.C,Q19*%
X-36750000Y-1600000D03*
X-36750000Y-3500000D03*
X-39450000Y-2550000D03*
%TD*%
D29*
%TO.C,R30*%
X29347500Y4250000D03*
X28152500Y4250000D03*
%TD*%
D27*
%TO.C,Q6*%
X-48575000Y12780000D03*
X-46675000Y12780000D03*
X-47625000Y10080000D03*
%TD*%
D31*
%TO.C,U5*%
X-47299000Y-13157000D03*
X-47299000Y-14107000D03*
X-47299000Y-15057000D03*
X-49999000Y-15057000D03*
X-49999000Y-13157000D03*
%TD*%
D32*
%TO.C,FB2*%
X-41595001Y-12912500D03*
X-43345001Y-12912500D03*
%TD*%
D26*
%TO.C,R35*%
X-52070000Y-1877500D03*
X-52070000Y-682500D03*
%TD*%
D29*
%TO.C,R5*%
X3772500Y14605000D03*
X2577500Y14605000D03*
%TD*%
%TO.C,R6*%
X10122500Y14605000D03*
X8927500Y14605000D03*
%TD*%
D26*
%TO.C,R24*%
X-43815000Y9562500D03*
X-43815000Y10757500D03*
%TD*%
%TO.C,R28*%
X6985000Y9552500D03*
X6985000Y10747500D03*
%TD*%
D33*
%TO.C,X1*%
X35249999Y-2550000D03*
X33049999Y-2550000D03*
X33049999Y-950000D03*
X35249999Y-950000D03*
%TD*%
D30*
%TO.C,Q16*%
X-11350000Y-1600000D03*
X-11350000Y-3500000D03*
X-14050000Y-2550000D03*
%TD*%
D27*
%TO.C,Q12*%
X12385000Y12780000D03*
X14285000Y12780000D03*
X13335000Y10080000D03*
%TD*%
D29*
%TO.C,R2*%
X-40677500Y14605000D03*
X-41872500Y14605000D03*
%TD*%
D34*
%TO.C,R29*%
X28152500Y3250000D03*
X29347500Y3250000D03*
%TD*%
D29*
%TO.C,R38*%
X37997499Y-1750000D03*
X36802499Y-1750000D03*
%TD*%
%TO.C,R1*%
X-47027500Y14605000D03*
X-48222500Y14605000D03*
%TD*%
D35*
%TO.C,C13*%
X41900000Y-6182500D03*
X41900000Y-7317500D03*
%TD*%
D27*
%TO.C,Q10*%
X-13015000Y12780000D03*
X-11115000Y12780000D03*
X-12065000Y10080000D03*
%TD*%
%TO.C,Q5*%
X-42225000Y12780000D03*
X-40325000Y12780000D03*
X-41275000Y10080000D03*
%TD*%
D29*
%TO.C,R4*%
X-15277500Y14605000D03*
X-16472500Y14605000D03*
%TD*%
%TO.C,R3*%
X-21627500Y14605000D03*
X-22822500Y14605000D03*
%TD*%
%TO.C,R12*%
X-672500Y-5090000D03*
X-1867500Y-5090000D03*
%TD*%
D27*
%TO.C,Q3*%
X-16825000Y12780000D03*
X-14925000Y12780000D03*
X-15875000Y10080000D03*
%TD*%
D35*
%TO.C,C2*%
X40368358Y-13432500D03*
X40368358Y-14567500D03*
%TD*%
D26*
%TO.C,R27*%
X5715000Y9562500D03*
X5715000Y10757500D03*
%TD*%
D36*
%TO.C,U7*%
X53155000Y-8900000D03*
X51885000Y-8900000D03*
X50615000Y-8900000D03*
X49345000Y-8900000D03*
X49345000Y-3600000D03*
X50615000Y-3600000D03*
X51885000Y-3600000D03*
X53155000Y-3600000D03*
%TD*%
D32*
%TO.C,FB1*%
X44493358Y-13750000D03*
X42743358Y-13750000D03*
%TD*%
D37*
%TO.C,C15*%
X41899999Y3682500D03*
X41899999Y4817500D03*
%TD*%
D27*
%TO.C,Q9*%
X-26985000Y12780000D03*
X-25085000Y12780000D03*
X-26035000Y10080000D03*
%TD*%
D29*
%TO.C,R15*%
X-46392500Y-5090000D03*
X-47587500Y-5090000D03*
%TD*%
D27*
%TO.C,Q11*%
X-1585000Y12780000D03*
X315000Y12780000D03*
X-635000Y10080000D03*
%TD*%
D34*
%TO.C,R42*%
X23432500Y-2190000D03*
X24627500Y-2190000D03*
%TD*%
D38*
%TO.C,R39*%
X54500000Y-9402500D03*
X54500000Y-10597500D03*
%TD*%
D29*
%TO.C,R8*%
X-36232500Y-5090000D03*
X-37427500Y-5090000D03*
%TD*%
D30*
%TO.C,Q15*%
X-1190000Y-1600000D03*
X-1190000Y-3500000D03*
X-3890000Y-2550000D03*
%TD*%
D35*
%TO.C,C6*%
X-45720000Y-12845000D03*
X-45720000Y-13980000D03*
%TD*%
D39*
%TO.C,C12*%
X47832500Y-790000D03*
X48967500Y-790000D03*
%TD*%
D26*
%TO.C,R33*%
X60600000Y1502500D03*
X60600000Y2697500D03*
%TD*%
D29*
%TO.C,R10*%
X-18452500Y-5090000D03*
X-19647500Y-5090000D03*
%TD*%
D35*
%TO.C,C11*%
X45899999Y-6182500D03*
X45899999Y-7317500D03*
%TD*%
D25*
%TO.C,tSWCLK1*%
X37399999Y1750000D03*
%TD*%
D34*
%TO.C,R41*%
X-60287500Y1260000D03*
X-59092500Y1260000D03*
%TD*%
D30*
%TO.C,Q20*%
X-44370000Y-1600000D03*
X-44370000Y-3500000D03*
X-47070000Y-2550000D03*
%TD*%
D39*
%TO.C,C17*%
X47832499Y-1750000D03*
X48967499Y-1750000D03*
%TD*%
D35*
%TO.C,C5*%
X-44720000Y-12845000D03*
X-44720000Y-13980000D03*
%TD*%
%TO.C,C8*%
X-52720000Y-12844999D03*
X-52720000Y-13979999D03*
%TD*%
D30*
%TO.C,Q18*%
X-26590000Y-1600000D03*
X-26590000Y-3500000D03*
X-29290000Y-2550000D03*
%TD*%
D38*
%TO.C,R32*%
X56320000Y-1502500D03*
X56320000Y-2697500D03*
%TD*%
D30*
%TO.C,Q13*%
X14050000Y-1600000D03*
X14050000Y-3500000D03*
X11350000Y-2550000D03*
%TD*%
D25*
%TO.C,tRUN1*%
X32899999Y2300000D03*
%TD*%
D27*
%TO.C,Q4*%
X-23175000Y12780000D03*
X-21275000Y12780000D03*
X-22225000Y10080000D03*
%TD*%
D29*
%TO.C,R20*%
X-3212500Y-5090000D03*
X-4407500Y-5090000D03*
%TD*%
D35*
%TO.C,C19*%
X54500000Y-3932500D03*
X54500000Y-5067500D03*
%TD*%
D39*
%TO.C,C21*%
X33582499Y500000D03*
X34717499Y500000D03*
%TD*%
D38*
%TO.C,R37*%
X54500000Y-6902500D03*
X54500000Y-8097500D03*
%TD*%
D25*
%TO.C,tGND2*%
X34399999Y1750000D03*
%TD*%
D34*
%TO.C,R31*%
X50902500Y-500000D03*
X52097500Y-500000D03*
%TD*%
D29*
%TO.C,R11*%
X-10832500Y-5090000D03*
X-12027500Y-5090000D03*
%TD*%
D35*
%TO.C,C7*%
X-51719999Y-12845000D03*
X-51719999Y-13980000D03*
%TD*%
D31*
%TO.C,Q22*%
X-57230000Y1580000D03*
X-57230000Y3480000D03*
X-54530000Y2530000D03*
%TD*%
D37*
%TO.C,C14*%
X46399999Y3182500D03*
X46399999Y4317500D03*
%TD*%
D29*
%TO.C,R19*%
X-13372500Y-5090000D03*
X-14567500Y-5090000D03*
%TD*%
%TO.C,R17*%
X-28612500Y-5090000D03*
X-29807500Y-5090000D03*
%TD*%
D34*
%TO.C,R36*%
X-60287500Y-1280000D03*
X-59092500Y-1280000D03*
%TD*%
D40*
%TO.C,SW1*%
X28000000Y5900000D03*
X34000000Y5900000D03*
X28000000Y9600000D03*
X34000000Y9600000D03*
%TD*%
D35*
%TO.C,C1*%
X41368358Y-13432500D03*
X41368358Y-14567500D03*
%TD*%
D25*
%TO.C,tTX1*%
X43500000Y-9250000D03*
%TD*%
D35*
%TO.C,C3*%
X34368358Y-13432500D03*
X34368358Y-14567500D03*
%TD*%
D29*
%TO.C,R9*%
X-26072500Y-5090000D03*
X-27267500Y-5090000D03*
%TD*%
%TO.C,R34*%
X52097500Y500000D03*
X50902500Y500000D03*
%TD*%
D28*
%TO.C,C10*%
X37967499Y-750000D03*
X36832499Y-750000D03*
%TD*%
D29*
%TO.C,R22*%
X12027500Y-5090000D03*
X10832500Y-5090000D03*
%TD*%
D39*
%TO.C,C9*%
X47832499Y1750000D03*
X48967499Y1750000D03*
%TD*%
D41*
%TO.C,U6*%
X45600000Y-4750000D03*
X45200000Y-4750000D03*
X44800000Y-4750000D03*
X44400000Y-4750000D03*
X44000000Y-4750000D03*
X43600000Y-4750000D03*
X43200000Y-4750000D03*
X42800000Y-4750000D03*
X42400000Y-4750000D03*
X42000000Y-4750000D03*
X41600000Y-4750000D03*
X41200000Y-4750000D03*
X40800000Y-4750000D03*
X40400000Y-4750000D03*
D42*
X39500000Y-3850000D03*
X39500000Y-3450000D03*
X39500000Y-3050000D03*
X39500000Y-2650000D03*
X39500000Y-2250000D03*
X39500000Y-1850000D03*
X39500000Y-1450000D03*
X39500000Y-1050000D03*
X39500000Y-650000D03*
X39500000Y-250000D03*
X39500000Y150000D03*
X39500000Y550000D03*
X39500000Y950000D03*
X39500000Y1350000D03*
D41*
X40400000Y2250000D03*
X40800000Y2250000D03*
X41200000Y2250000D03*
X41600000Y2250000D03*
X42000000Y2250000D03*
X42400000Y2250000D03*
X42800000Y2250000D03*
X43200000Y2250000D03*
X43600000Y2250000D03*
X44000000Y2250000D03*
X44400000Y2250000D03*
X44800000Y2250000D03*
X45200000Y2250000D03*
X45600000Y2250000D03*
D42*
X46500000Y1350000D03*
X46500000Y950000D03*
X46500000Y550000D03*
X46500000Y150000D03*
X46500000Y-250000D03*
X46500000Y-650000D03*
X46500000Y-1050000D03*
X46500000Y-1450000D03*
X46500000Y-1850000D03*
X46500000Y-2250000D03*
X46500000Y-2650000D03*
X46500000Y-3050000D03*
X46500000Y-3450000D03*
X46500000Y-3850000D03*
D43*
X43000000Y-1250000D03*
%TD*%
D30*
%TO.C,Q14*%
X6430000Y-1600000D03*
X6430000Y-3500000D03*
X3730000Y-2550000D03*
%TD*%
D39*
%TO.C,C16*%
X47832499Y750000D03*
X48967499Y750000D03*
%TD*%
D25*
%TO.C,tRX1*%
X42000000Y-9250000D03*
%TD*%
D38*
%TO.C,R40*%
X-52070000Y1857500D03*
X-52070000Y662500D03*
%TD*%
D27*
%TO.C,Q7*%
X-52385000Y12780000D03*
X-50485000Y12780000D03*
X-51435000Y10080000D03*
%TD*%
D25*
%TO.C,tSWDIO1*%
X35899999Y1750000D03*
%TD*%
D30*
%TO.C,Q17*%
X-18970000Y-1600000D03*
X-18970000Y-3500000D03*
X-21670000Y-2550000D03*
%TD*%
D31*
%TO.C,U1*%
X38718358Y-13550000D03*
X38718358Y-14500000D03*
X38718358Y-15450000D03*
X36018358Y-15450000D03*
X36018358Y-13550000D03*
%TD*%
D29*
%TO.C,R18*%
X-20992500Y-5090000D03*
X-22187500Y-5090000D03*
%TD*%
D26*
%TO.C,R23*%
X-45085000Y9562500D03*
X-45085000Y10757500D03*
%TD*%
D31*
%TO.C,Q21*%
X-57230000Y-3500000D03*
X-57230000Y-1600000D03*
X-54530000Y-2550000D03*
%TD*%
D29*
%TO.C,R14*%
X14567500Y-5090000D03*
X13372500Y-5090000D03*
%TD*%
%TO.C,R21*%
X4407500Y-5090000D03*
X3212500Y-5090000D03*
%TD*%
D27*
%TO.C,Q2*%
X2225000Y12780000D03*
X4125000Y12780000D03*
X3175000Y10080000D03*
%TD*%
D29*
%TO.C,R16*%
X-38772500Y-5090000D03*
X-39967500Y-5090000D03*
%TD*%
D35*
%TO.C,C4*%
X33368358Y-13432500D03*
X33368358Y-14567500D03*
%TD*%
D44*
%TO.C,D1*%
X54600000Y750000D03*
X54600000Y250000D03*
X54600000Y-250000D03*
X54600000Y-750000D03*
X53400000Y-750000D03*
X53400000Y-250000D03*
X53400000Y250000D03*
X53400000Y750000D03*
%TD*%
D28*
%TO.C,C20*%
X34717499Y-4000000D03*
X33582499Y-4000000D03*
%TD*%
D29*
%TO.C,R13*%
X6947500Y-5090000D03*
X5752500Y-5090000D03*
%TD*%
%LPD*%
M02*
