%TF.GenerationSoftware,KiCad,Pcbnew,8.0.4*%
%TF.CreationDate,2024-09-01T22:21:07-05:00*%
%TF.ProjectId,caliper,63616c69-7065-4722-9e6b-696361645f70,rev?*%
%TF.SameCoordinates,Original*%
%TF.FileFunction,Copper,L1,Top*%
%TF.FilePolarity,Positive*%
%FSLAX46Y46*%
G04 Gerber Fmt 4.6, Leading zero omitted, Abs format (unit mm)*
G04 Created by KiCad (PCBNEW 8.0.4) date 2024-09-01 22:21:07*
%MOMM*%
%LPD*%
G01*
G04 APERTURE LIST*
%TA.AperFunction,ComponentPad*%
%ADD10C,0.800000*%
%TD*%
%TA.AperFunction,ComponentPad*%
%ADD11C,6.400000*%
%TD*%
%TA.AperFunction,ComponentPad*%
%ADD12R,1.700000X1.700000*%
%TD*%
%TA.AperFunction,ComponentPad*%
%ADD13O,1.700000X1.700000*%
%TD*%
%TA.AperFunction,ComponentPad*%
%ADD14O,1.700000X0.900000*%
%TD*%
%TA.AperFunction,ComponentPad*%
%ADD15O,2.400000X0.900000*%
%TD*%
%TA.AperFunction,ComponentPad*%
%ADD16C,0.650000*%
%TD*%
%TA.AperFunction,ComponentPad*%
%ADD17R,1.600000X1.600000*%
%TD*%
%TA.AperFunction,ComponentPad*%
%ADD18O,1.600000X1.600000*%
%TD*%
%TA.AperFunction,ComponentPad*%
%ADD19C,2.200000*%
%TD*%
%TA.AperFunction,ViaPad*%
%ADD20C,0.560000*%
%TD*%
%TA.AperFunction,ViaPad*%
%ADD21C,1.500000*%
%TD*%
%TA.AperFunction,Conductor*%
%ADD22C,0.508000*%
%TD*%
%TA.AperFunction,Conductor*%
%ADD23C,0.203200*%
%TD*%
G04 APERTURE END LIST*
D10*
%TO.P,M5,1,Pin_1*%
%TO.N,GND*%
X-71400000Y9000000D03*
X-70697056Y10697056D03*
X-70697056Y7302944D03*
X-69000000Y11400000D03*
D11*
X-69000000Y9000000D03*
D10*
X-69000000Y6600000D03*
X-67302944Y10697056D03*
X-67302944Y7302944D03*
X-66600000Y9000000D03*
%TD*%
%TO.P,M1,1,Pin_1*%
%TO.N,GND*%
X-63360000Y12690000D03*
X-62657056Y14387056D03*
X-62657056Y10992944D03*
X-60960000Y15090000D03*
D11*
X-60960000Y12690000D03*
D10*
X-60960000Y10290000D03*
X-59262944Y14387056D03*
X-59262944Y10992944D03*
X-58560000Y12690000D03*
%TD*%
%TO.P,M3,1,Pin_1*%
%TO.N,GND*%
X17920000Y12690000D03*
X18622944Y14387056D03*
X18622944Y10992944D03*
X20320000Y15090000D03*
D11*
X20320000Y12690000D03*
D10*
X20320000Y10290000D03*
X22017056Y14387056D03*
X22017056Y10992944D03*
X22720000Y12690000D03*
%TD*%
D12*
%TO.P,J2,1,Pin_1*%
%TO.N,GND*%
X-63500000Y3800000D03*
D13*
%TO.P,J2,2,Pin_2*%
%TO.N,Net-(J2-Pin_2)*%
X-63500000Y1260000D03*
%TO.P,J2,3,Pin_3*%
%TO.N,Net-(J2-Pin_3)*%
X-63500000Y-1280000D03*
%TO.P,J2,4,Pin_4*%
%TO.N,+1V8*%
X-63500000Y-3820000D03*
%TD*%
D14*
%TO.P,J1,1*%
%TO.N,N/C*%
X62260000Y-4325000D03*
D15*
%TO.P,J1,2*%
X58880000Y-4325000D03*
D14*
%TO.P,J1,3*%
X62260000Y4325000D03*
D15*
%TO.P,J1,4*%
X58880000Y4325000D03*
D16*
%TO.P,J1,A1,GND*%
%TO.N,GND*%
X57900000Y-2975000D03*
%TO.P,J1,A4,V_{BUS}*%
%TO.N,VBUS*%
X57900000Y-2125000D03*
%TO.P,J1,A5,CC1*%
%TO.N,Net-(J1-CC1)*%
X57900000Y-1275000D03*
%TO.P,J1,A6,D+1*%
%TO.N,Net-(J1-D+1)*%
X57900000Y-425000D03*
%TO.P,J1,A7,D-1*%
%TO.N,Net-(J1-D-1)*%
X57900000Y425000D03*
%TO.P,J1,A8,SBU1*%
%TO.N,unconnected-(J1-SBU1-PadA8)*%
X57900000Y1275000D03*
%TO.P,J1,A9,V_{BUS}*%
%TO.N,VBUS*%
X57900000Y2125000D03*
%TO.P,J1,A12,GND*%
%TO.N,GND*%
X57900000Y2975000D03*
%TO.P,J1,B1,GND*%
X59250000Y2975000D03*
%TO.P,J1,B4,V_{BUS}*%
%TO.N,VBUS*%
X59250000Y2125000D03*
%TO.P,J1,B5,CC2*%
%TO.N,Net-(J1-CC2)*%
X59250000Y1275000D03*
%TO.P,J1,B6,D+2*%
%TO.N,Net-(J1-D+1)*%
X59250000Y425000D03*
%TO.P,J1,B7,D-2*%
%TO.N,Net-(J1-D-1)*%
X59250000Y-425000D03*
%TO.P,J1,B8,SBU2*%
%TO.N,unconnected-(J1-SBU2-PadB8)*%
X59250000Y-1275000D03*
%TO.P,J1,B9,V_{BUS}*%
%TO.N,VBUS*%
X59250000Y-2125000D03*
%TO.P,J1,B12,GND*%
%TO.N,GND*%
X59250000Y-2975000D03*
%TD*%
D17*
%TO.P,U4,1,E*%
%TO.N,Net-(U2A-E)*%
X-5080000Y-7630000D03*
D18*
%TO.P,U4,2,D*%
%TO.N,Net-(U2A-D)*%
X-2540000Y-7630000D03*
%TO.P,U4,3,C*%
%TO.N,Net-(U2A-C)*%
X0Y-7630000D03*
%TO.P,U4,4,DP*%
%TO.N,Net-(U2A-DP)*%
X2540000Y-7630000D03*
%TO.P,U4,5,E*%
%TO.N,Net-(U2A-E)*%
X5080000Y-7630000D03*
%TO.P,U4,6,D*%
%TO.N,Net-(U2A-D)*%
X7620000Y-7630000D03*
%TO.P,U4,7,G*%
%TO.N,Net-(U2A-G)*%
X10160000Y-7630000D03*
%TO.P,U4,8,C*%
%TO.N,Net-(U2A-C)*%
X12700000Y-7630000D03*
%TO.P,U4,9,DP*%
%TO.N,Net-(U2A-DP)*%
X15240000Y-7630000D03*
%TO.P,U4,10,B*%
%TO.N,Net-(U2A-B)*%
X15240000Y7610000D03*
%TO.P,U4,11,A*%
%TO.N,Net-(U2A-A)*%
X12700000Y7610000D03*
%TO.P,U4,12,F*%
%TO.N,Net-(U2A-F)*%
X10160000Y7610000D03*
%TO.P,U4,13,CA*%
%TO.N,Net-(Q1-D)*%
X7620000Y7610000D03*
%TO.P,U4,14,CA*%
%TO.N,Net-(Q2-D)*%
X5080000Y7610000D03*
%TO.P,U4,15,B*%
%TO.N,Net-(U2A-B)*%
X2540000Y7610000D03*
%TO.P,U4,16,A*%
%TO.N,Net-(U2A-A)*%
X0Y7610000D03*
%TO.P,U4,17,G*%
%TO.N,Net-(U2A-G)*%
X-2540000Y7610000D03*
%TO.P,U4,18,F*%
%TO.N,Net-(U2A-F)*%
X-5080000Y7610000D03*
%TD*%
D17*
%TO.P,U3,1,E*%
%TO.N,Net-(U2A-E)*%
X-30480000Y-7630000D03*
D18*
%TO.P,U3,2,D*%
%TO.N,Net-(U2A-D)*%
X-27940000Y-7630000D03*
%TO.P,U3,3,C*%
%TO.N,Net-(U2A-C)*%
X-25400000Y-7630000D03*
%TO.P,U3,4,DP*%
%TO.N,Net-(U2A-DP)*%
X-22860000Y-7630000D03*
%TO.P,U3,5,E*%
%TO.N,Net-(U2A-E)*%
X-20320000Y-7630000D03*
%TO.P,U3,6,D*%
%TO.N,Net-(U2A-D)*%
X-17780000Y-7630000D03*
%TO.P,U3,7,G*%
%TO.N,Net-(U2A-G)*%
X-15240000Y-7630000D03*
%TO.P,U3,8,C*%
%TO.N,Net-(U2A-C)*%
X-12700000Y-7630000D03*
%TO.P,U3,9,DP*%
%TO.N,Net-(U2A-DP)*%
X-10160000Y-7630000D03*
%TO.P,U3,10,B*%
%TO.N,Net-(U2A-B)*%
X-10160000Y7610000D03*
%TO.P,U3,11,A*%
%TO.N,Net-(U2A-A)*%
X-12700000Y7610000D03*
%TO.P,U3,12,F*%
%TO.N,Net-(U2A-F)*%
X-15240000Y7610000D03*
%TO.P,U3,13,CA*%
%TO.N,Net-(Q3-D)*%
X-17780000Y7610000D03*
%TO.P,U3,14,CA*%
%TO.N,Net-(Q4-D)*%
X-20320000Y7610000D03*
%TO.P,U3,15,B*%
%TO.N,Net-(U2A-B)*%
X-22860000Y7610000D03*
%TO.P,U3,16,A*%
%TO.N,Net-(U2A-A)*%
X-25400000Y7610000D03*
%TO.P,U3,17,G*%
%TO.N,Net-(U2A-G)*%
X-27940000Y7610000D03*
%TO.P,U3,18,F*%
%TO.N,Net-(U2A-F)*%
X-30480000Y7610000D03*
%TD*%
D10*
%TO.P,M4,1,Pin_1*%
%TO.N,GND*%
X17920000Y-12710000D03*
X18622944Y-11012944D03*
X18622944Y-14407056D03*
X20320000Y-10310000D03*
D11*
X20320000Y-12710000D03*
D10*
X20320000Y-15110000D03*
X22017056Y-11012944D03*
X22017056Y-14407056D03*
X22720000Y-12710000D03*
%TD*%
D19*
%TO.P,SW3,1,1*%
%TO.N,Net-(U6-P22)*%
X24130000Y2530000D03*
%TO.P,SW3,2,2*%
%TO.N,Net-(R42-Pad2)*%
X26670000Y-3820000D03*
%TD*%
D17*
%TO.P,U2,1,E*%
%TO.N,Net-(U2A-E)*%
X-55880000Y-7630000D03*
D18*
%TO.P,U2,2,D*%
%TO.N,Net-(U2A-D)*%
X-53340000Y-7630000D03*
%TO.P,U2,3,C*%
%TO.N,Net-(U2A-C)*%
X-50800000Y-7630000D03*
%TO.P,U2,4,DP*%
%TO.N,Net-(U2A-DP)*%
X-48260000Y-7630000D03*
%TO.P,U2,5,E*%
%TO.N,Net-(U2A-E)*%
X-45720000Y-7630000D03*
%TO.P,U2,6,D*%
%TO.N,Net-(U2A-D)*%
X-43180000Y-7630000D03*
%TO.P,U2,7,G*%
%TO.N,Net-(U2A-G)*%
X-40640000Y-7630000D03*
%TO.P,U2,8,C*%
%TO.N,Net-(U2A-C)*%
X-38100000Y-7630000D03*
%TO.P,U2,9,DP*%
%TO.N,Net-(U2A-DP)*%
X-35560000Y-7630000D03*
%TO.P,U2,10,B*%
%TO.N,Net-(U2A-B)*%
X-35560000Y7610000D03*
%TO.P,U2,11,A*%
%TO.N,Net-(U2A-A)*%
X-38100000Y7610000D03*
%TO.P,U2,12,F*%
%TO.N,Net-(U2A-F)*%
X-40640000Y7610000D03*
%TO.P,U2,13,CA*%
%TO.N,Net-(Q5-D)*%
X-43180000Y7610000D03*
%TO.P,U2,14,CA*%
%TO.N,Net-(Q6-D)*%
X-45720000Y7610000D03*
%TO.P,U2,15,B*%
%TO.N,Net-(U2A-B)*%
X-48260000Y7610000D03*
%TO.P,U2,16,A*%
%TO.N,Net-(U2A-A)*%
X-50800000Y7610000D03*
%TO.P,U2,17,G*%
%TO.N,Net-(U2A-G)*%
X-53340000Y7610000D03*
%TO.P,U2,18,F*%
%TO.N,Net-(U2A-F)*%
X-55880000Y7610000D03*
%TD*%
D10*
%TO.P,M2,1,Pin_1*%
%TO.N,GND*%
X-63360000Y-12710000D03*
X-62657056Y-11012944D03*
X-62657056Y-14407056D03*
X-60960000Y-10310000D03*
D11*
X-60960000Y-12710000D03*
D10*
X-60960000Y-15110000D03*
X-59262944Y-11012944D03*
X-59262944Y-14407056D03*
X-58560000Y-12710000D03*
%TD*%
D20*
%TO.N,GND*%
X-36440000Y14170000D03*
X-54750000Y5750000D03*
X12750000Y5500000D03*
X0Y-3500000D03*
X53400000Y1340000D03*
X-53500000Y750000D03*
X41900000Y5500000D03*
X14750000Y-15750000D03*
D21*
X42100000Y-300000D03*
D20*
X55380000Y-5030000D03*
X-10250000Y-10000000D03*
X53840000Y-5040000D03*
X-25250000Y-10000000D03*
X0Y-10250000D03*
X21750000Y4750000D03*
X-48350000Y-14110000D03*
X-29250000Y4750000D03*
X2000000Y4750000D03*
X-17750000Y-3500000D03*
X41420000Y-7820000D03*
X-44720000Y-14730000D03*
X-51250000Y4750000D03*
X49000000Y-1200000D03*
X-50440000Y14220000D03*
X-6500000Y13000000D03*
X53400000Y-1540000D03*
X6430000Y14060000D03*
X-49000000Y-2250000D03*
D21*
X42100000Y-2200000D03*
D20*
X32530000Y-14550000D03*
X7620000Y-3500000D03*
X-10250000Y-3500000D03*
X-53500000Y-14010000D03*
X-25250000Y-3500000D03*
X-50950000Y-14010000D03*
X7750000Y-10000000D03*
X16500000Y-4750000D03*
X56270000Y-3570000D03*
X-46500000Y0D03*
X-52750000Y-14800000D03*
X-45720000Y-14730000D03*
X-43000000Y-3500000D03*
X50030000Y-15330000D03*
X36832499Y-200000D03*
X10250000Y4500000D03*
X-31750000Y4750000D03*
X41360000Y-15460000D03*
X34360000Y-15430000D03*
X15000000Y-10000000D03*
X37470000Y-14500000D03*
X55400000Y-2650000D03*
X15250000Y-3500000D03*
X-57220000Y4330000D03*
X48900000Y2400000D03*
D21*
X43900000Y-2200000D03*
D20*
X47000000Y4300000D03*
X49000000Y1300000D03*
X-18880000Y12930000D03*
X49800000Y700000D03*
X34640000Y1180000D03*
X-24980000Y14170000D03*
X390000Y14160000D03*
X-43940000Y-13970000D03*
X45700000Y4300000D03*
X26500000Y9500000D03*
X46710000Y-7280000D03*
X-51710000Y-14810000D03*
X-17750000Y-10250000D03*
X-35500000Y-3500000D03*
X-44560000Y11970000D03*
X-57260000Y-720000D03*
X40330000Y-15450000D03*
X-1250000Y4750000D03*
X33360000Y-15450000D03*
X-45750000Y-10000000D03*
X42180000Y-14650000D03*
X49250000Y-7500000D03*
X35090000Y-14560000D03*
X14400000Y14560000D03*
X45050000Y-7340000D03*
X49700000Y-800000D03*
X-31750000Y11750000D03*
X49700000Y-1700000D03*
X54600000Y1380000D03*
X-10970000Y14060000D03*
X31110000Y9630000D03*
X-35250000Y1000000D03*
D21*
X43900000Y-300000D03*
D20*
%TO.N,VCC*%
X24630000Y-4800000D03*
X33980000Y-10170000D03*
%TO.N,Net-(U6-VREG_{OUT})*%
X38570000Y-170000D03*
X47430000Y660000D03*
X47490000Y-1540000D03*
%TO.N,/DIGIT_{0}*%
X-52070000Y13970000D03*
X30500000Y3270000D03*
%TO.N,/DIGIT_{1}*%
X-38100000Y13970000D03*
X30480000Y4070000D03*
%TO.N,/DIGIT_{2}*%
X30430000Y5030000D03*
X-26670000Y13970000D03*
%TO.N,/DIGIT_{3}*%
X-12700000Y13970000D03*
X31470000Y5050000D03*
%TO.N,/DIGIT_{4}*%
X35080000Y5770000D03*
X-1270000Y13970000D03*
%TO.N,/DIGIT_{5}*%
X13000000Y13970000D03*
X35750000Y6400000D03*
%TO.N,Net-(U2A-F)*%
X-28015000Y-3330000D03*
%TO.N,Net-(U2A-B)*%
X5000000Y-3140000D03*
%TO.N,Net-(U2A-A)*%
X12710000Y-2930000D03*
%TO.N,Net-(U6-SWCLK)*%
X37100000Y2600000D03*
X39700000Y1970600D03*
%TD*%
D22*
%TO.N,VCC*%
X30000000Y-10170000D02*
X33980000Y-10170000D01*
X24630000Y-4800000D02*
X30000000Y-10170000D01*
%TO.N,Net-(U6-VREG_{OUT})*%
X46490000Y980000D02*
X46810000Y660000D01*
X46810000Y660000D02*
X47430000Y660000D01*
X38590000Y-170000D02*
X39740000Y980000D01*
D23*
X47490000Y-1540000D02*
X47430000Y-1480000D01*
D22*
X47430000Y-1480000D02*
X47430000Y660000D01*
D23*
X38570000Y-170000D02*
X38590000Y-170000D01*
D22*
X39740000Y980000D02*
X46490000Y980000D01*
D23*
%TO.N,Net-(J1-D-1)*%
X57900000Y425000D02*
X58135000Y425000D01*
X58985000Y-425000D02*
X59250000Y-425000D01*
X58135000Y425000D02*
X58985000Y-425000D01*
%TO.N,/DIGIT_{0}*%
X-47960000Y9860000D02*
X-52070000Y13970000D01*
X13970000Y7140000D02*
X13970000Y8255000D01*
X30500000Y3270000D02*
X28055000Y5715000D01*
X12365000Y9860000D02*
X-47960000Y9860000D01*
X15395000Y5715000D02*
X13970000Y7140000D01*
X13970000Y8255000D02*
X12365000Y9860000D01*
X28055000Y5715000D02*
X15395000Y5715000D01*
%TO.N,/DIGIT_{1}*%
X28200000Y6350000D02*
X18230000Y6350000D01*
X18230000Y6350000D02*
X14000000Y10580000D01*
X-34710000Y10580000D02*
X-38100000Y13970000D01*
X14000000Y10580000D02*
X-34710000Y10580000D01*
X30480000Y4070000D02*
X28200000Y6350000D01*
%TO.N,/DIGIT_{2}*%
X30430000Y5030000D02*
X28475000Y6985000D01*
X18375000Y6985000D02*
X14140000Y11220000D01*
X-23920000Y11220000D02*
X-26670000Y13970000D01*
X14140000Y11220000D02*
X-23920000Y11220000D01*
X28475000Y6985000D02*
X18375000Y6985000D01*
%TO.N,/DIGIT_{3}*%
X18520000Y7620000D02*
X14190000Y11950000D01*
X28900000Y7620000D02*
X18520000Y7620000D01*
X31470000Y5050000D02*
X28900000Y7620000D01*
X-10680000Y11950000D02*
X-12700000Y13970000D01*
X14190000Y11950000D02*
X-10680000Y11950000D01*
%TO.N,/DIGIT_{4}*%
X140000Y12560000D02*
X-1270000Y13970000D01*
X35080000Y5770000D02*
X31700000Y5770000D01*
X14350000Y12560000D02*
X140000Y12560000D01*
X18655000Y8255000D02*
X14350000Y12560000D01*
X29215000Y8255000D02*
X18655000Y8255000D01*
X31700000Y5770000D02*
X29215000Y8255000D01*
%TO.N,/DIGIT_{5}*%
X31940000Y6400000D02*
X35750000Y6400000D01*
X18800000Y8890000D02*
X29450000Y8890000D01*
X29450000Y8890000D02*
X31940000Y6400000D01*
X13720000Y13970000D02*
X18800000Y8890000D01*
X13000000Y13970000D02*
X13720000Y13970000D01*
%TO.N,Net-(U2A-DP)*%
X-8780000Y-6250000D02*
X1160000Y-6250000D01*
X-22860000Y-7630000D02*
X-22550000Y-7630000D01*
X-13890000Y-7140000D02*
X-13000000Y-6250000D01*
X-11540000Y-6250000D02*
X-10160000Y-7630000D01*
X-10160000Y-7630000D02*
X-8780000Y-6250000D01*
X1160000Y-6250000D02*
X2540000Y-7630000D01*
X-13000000Y-6250000D02*
X-11540000Y-6250000D01*
X-21180000Y-9000000D02*
X-14750000Y-9000000D01*
X-13890000Y-8140000D02*
X-13890000Y-7140000D01*
X-22550000Y-7630000D02*
X-21180000Y-9000000D01*
X-14750000Y-9000000D02*
X-13890000Y-8140000D01*
%TO.N,Net-(U2A-G)*%
X10160000Y-7310000D02*
X8600000Y-5750000D01*
X10160000Y-7630000D02*
X10160000Y-7310000D01*
X-53340000Y7610000D02*
X-53340000Y5090000D01*
X-38760000Y-5750000D02*
X-17120000Y-5750000D01*
X-13360000Y-5750000D02*
X-15240000Y-7630000D01*
X8600000Y-5750000D02*
X-13360000Y-5750000D01*
X-53340000Y5090000D02*
X-40640000Y-7610000D01*
X-40640000Y-7630000D02*
X-38760000Y-5750000D01*
X-17120000Y-5750000D02*
X-15240000Y-7630000D01*
X-40640000Y-7610000D02*
X-40640000Y-7630000D01*
X-15240000Y-7630000D02*
X-15240000Y-7620000D01*
%TO.N,Net-(U2A-F)*%
X-40640000Y7610000D02*
X-42290000Y9260000D01*
X-15240000Y7610000D02*
X-13600000Y9250000D01*
X-30480000Y7610000D02*
X-31880000Y9010000D01*
X-16760000Y9130000D02*
X-15240000Y7610000D01*
X-42290000Y9260000D02*
X-54230000Y9260000D01*
X-54230000Y9260000D02*
X-55880000Y7610000D01*
X-30480000Y7610000D02*
X-30480000Y-865000D01*
X-31880000Y9010000D02*
X-39240000Y9010000D01*
X-30480000Y7610000D02*
X-28960000Y9130000D01*
X8520000Y9250000D02*
X10160000Y7610000D01*
X-39240000Y9010000D02*
X-40640000Y7610000D01*
X-6720000Y9250000D02*
X-5080000Y7610000D01*
X-13600000Y9250000D02*
X-6720000Y9250000D01*
X-30480000Y-865000D02*
X-28015000Y-3330000D01*
X-3440000Y9250000D02*
X8520000Y9250000D01*
X-28960000Y9130000D02*
X-16760000Y9130000D01*
X-5080000Y7610000D02*
X-3440000Y9250000D01*
%TO.N,Net-(U2A-D)*%
X-52090000Y-6380000D02*
X-44430000Y-6380000D01*
X-19160000Y-6250000D02*
X-17780000Y-7630000D01*
X-27940000Y-7240000D02*
X-26950000Y-6250000D01*
X-53340000Y-7630000D02*
X-52090000Y-6380000D01*
X-44430000Y-6380000D02*
X-43180000Y-7630000D01*
X-27940000Y-7630000D02*
X-27940000Y-7240000D01*
X-26950000Y-6250000D02*
X-19160000Y-6250000D01*
%TO.N,Net-(U2A-C)*%
X-14570000Y-9500000D02*
X-23530000Y-9500000D01*
X-27020000Y-9250000D02*
X-36480000Y-9250000D01*
X-11080000Y-9250000D02*
X-12700000Y-7630000D01*
X-25400000Y-7630000D02*
X-27020000Y-9250000D01*
X-23530000Y-9500000D02*
X-25400000Y-7630000D01*
X11080000Y-9250000D02*
X12700000Y-7630000D01*
X-38100000Y-7630000D02*
X-39720000Y-9250000D01*
X-12700000Y-7630000D02*
X-14570000Y-9500000D01*
X-36480000Y-9250000D02*
X-38100000Y-7630000D01*
X0Y-7630000D02*
X1620000Y-9250000D01*
X-49180000Y-9250000D02*
X-50800000Y-7630000D01*
X-39720000Y-9250000D02*
X-49180000Y-9250000D01*
X-1620000Y-9250000D02*
X-11080000Y-9250000D01*
X0Y-7630000D02*
X-1620000Y-9250000D01*
X1620000Y-9250000D02*
X11080000Y-9250000D01*
%TO.N,Net-(U2A-B)*%
X2030000Y7610000D02*
X2540000Y7610000D01*
X-1510000Y6780000D02*
X-1230000Y7060000D01*
X5000000Y-3140000D02*
X5000000Y260000D01*
X-9515000Y7610000D02*
X-8155000Y6250000D01*
X840000Y8800000D02*
X2030000Y7610000D01*
X-37025000Y6250000D02*
X-46900000Y6250000D01*
X-1230000Y7060000D02*
X-1230000Y8150000D01*
X-22860000Y7610000D02*
X-21500000Y6250000D01*
X-8155000Y6250000D02*
X-2030000Y6250000D01*
X5000000Y260000D02*
X-1510000Y6770000D01*
X-10160000Y7610000D02*
X-9515000Y7610000D01*
X-11520000Y6250000D02*
X-10160000Y7610000D01*
X-35560000Y7610000D02*
X-35665000Y7610000D01*
X-580000Y8800000D02*
X840000Y8800000D01*
X-2030000Y6250000D02*
X-1510000Y6770000D01*
X-1510000Y6770000D02*
X-1510000Y6780000D01*
X-35665000Y7610000D02*
X-37025000Y6250000D01*
X-46900000Y6250000D02*
X-48260000Y7610000D01*
X-21500000Y6250000D02*
X-11520000Y6250000D01*
X-1230000Y8150000D02*
X-580000Y8800000D01*
%TO.N,Net-(U2A-A)*%
X10260000Y6250000D02*
X1360000Y6250000D01*
X12750000Y-2890000D02*
X12750000Y3760000D01*
X12690000Y7610000D02*
X10795000Y5715000D01*
X10795000Y5715000D02*
X10260000Y6250000D01*
X1360000Y6250000D02*
X0Y7610000D01*
X12750000Y3760000D02*
X10795000Y5715000D01*
X12700000Y7610000D02*
X12690000Y7610000D01*
X-25465000Y7675000D02*
X-25400000Y7610000D01*
X12710000Y-2930000D02*
X12750000Y-2890000D01*
%TO.N,Net-(U6-SWCLK)*%
X37729400Y1970600D02*
X37100000Y2600000D01*
X39700000Y1970600D02*
X37729400Y1970600D01*
%TD*%
%TA.AperFunction,Conductor*%
%TO.N,GND*%
G36*
X62004418Y17699184D02*
G01*
X62233017Y17682834D01*
X62250529Y17680316D01*
X62470137Y17632543D01*
X62487112Y17627559D01*
X62697688Y17549019D01*
X62713782Y17541669D01*
X62911036Y17433959D01*
X62925919Y17424394D01*
X63105836Y17289710D01*
X63119207Y17278124D01*
X63278124Y17119207D01*
X63289710Y17105836D01*
X63424394Y16925919D01*
X63433959Y16911036D01*
X63541669Y16713782D01*
X63549019Y16697688D01*
X63627559Y16487112D01*
X63632543Y16470137D01*
X63680316Y16250529D01*
X63682834Y16233017D01*
X63699184Y16004418D01*
X63699500Y15995572D01*
X63699500Y-15995572D01*
X63699184Y-16004418D01*
X63682834Y-16233017D01*
X63680316Y-16250529D01*
X63632543Y-16470137D01*
X63627559Y-16487112D01*
X63549019Y-16697688D01*
X63541669Y-16713782D01*
X63433959Y-16911036D01*
X63424394Y-16925919D01*
X63289710Y-17105836D01*
X63278124Y-17119207D01*
X63119207Y-17278124D01*
X63105836Y-17289710D01*
X62925919Y-17424394D01*
X62911036Y-17433959D01*
X62713782Y-17541669D01*
X62697688Y-17549019D01*
X62487112Y-17627559D01*
X62470137Y-17632543D01*
X62250529Y-17680316D01*
X62233017Y-17682834D01*
X62004418Y-17699184D01*
X61995572Y-17699500D01*
X-71995572Y-17699500D01*
X-72004418Y-17699184D01*
X-72233019Y-17682834D01*
X-72250531Y-17680316D01*
X-72470134Y-17632545D01*
X-72487110Y-17627561D01*
X-72697691Y-17549018D01*
X-72713784Y-17541668D01*
X-72911036Y-17433960D01*
X-72925919Y-17424395D01*
X-73105836Y-17289711D01*
X-73119207Y-17278125D01*
X-73278125Y-17119207D01*
X-73289711Y-17105836D01*
X-73424395Y-16925919D01*
X-73433960Y-16911036D01*
X-73541668Y-16713784D01*
X-73549018Y-16697691D01*
X-73627561Y-16487110D01*
X-73632545Y-16470134D01*
X-73680316Y-16250531D01*
X-73682834Y-16233019D01*
X-73699184Y-16004418D01*
X-73699500Y-15995572D01*
X-73699500Y-12709997D01*
X-64415067Y-12709997D01*
X-64415067Y-12710002D01*
X-64394813Y-13083555D01*
X-64394811Y-13083572D01*
X-64334291Y-13452724D01*
X-64334285Y-13452750D01*
X-64234208Y-13813197D01*
X-64234206Y-13813204D01*
X-64095738Y-14160735D01*
X-64095729Y-14160753D01*
X-63920498Y-14491273D01*
X-63710555Y-14800916D01*
X-63488783Y-15062006D01*
X-63488782Y-15062007D01*
X-62179758Y-13752983D01*
X-62002983Y-13929759D01*
X-63309629Y-15236405D01*
X-63196758Y-15343324D01*
X-62898934Y-15569723D01*
X-62898918Y-15569734D01*
X-62578387Y-15762590D01*
X-62578374Y-15762597D01*
X-62238862Y-15919672D01*
X-61884327Y-16039130D01*
X-61518966Y-16119552D01*
X-61147055Y-16159999D01*
X-61147048Y-16160000D01*
X-60772952Y-16160000D01*
X-60772944Y-16159999D01*
X-60401033Y-16119552D01*
X-60035672Y-16039130D01*
X-59681137Y-15919672D01*
X-59341625Y-15762597D01*
X-59341612Y-15762590D01*
X-59021081Y-15569734D01*
X-59021065Y-15569723D01*
X-58723246Y-15343328D01*
X-58723237Y-15343320D01*
X-58610369Y-15236406D01*
X-58610369Y-15236405D01*
X-59917016Y-13929758D01*
X-59740240Y-13752982D01*
X-58431216Y-15062007D01*
X-58431215Y-15062006D01*
X-58209451Y-14800925D01*
X-58209444Y-14800915D01*
X-57999501Y-14491273D01*
X-57824270Y-14160753D01*
X-57824261Y-14160735D01*
X-57685793Y-13813204D01*
X-57685791Y-13813197D01*
X-57585714Y-13452750D01*
X-57585708Y-13452724D01*
X-57525188Y-13083572D01*
X-57525186Y-13083555D01*
X-57504933Y-12710002D01*
X-57504933Y-12709997D01*
X16864933Y-12709997D01*
X16864933Y-12710002D01*
X16885186Y-13083555D01*
X16885188Y-13083572D01*
X16945708Y-13452724D01*
X16945714Y-13452750D01*
X17045791Y-13813197D01*
X17045793Y-13813204D01*
X17184261Y-14160735D01*
X17184270Y-14160753D01*
X17359501Y-14491273D01*
X17569444Y-14800915D01*
X17569451Y-14800925D01*
X17791215Y-15062006D01*
X17791216Y-15062007D01*
X19100240Y-13752982D01*
X19277016Y-13929758D01*
X17970369Y-15236405D01*
X17970369Y-15236406D01*
X18083237Y-15343320D01*
X18083246Y-15343328D01*
X18381065Y-15569723D01*
X18381081Y-15569734D01*
X18701612Y-15762590D01*
X18701625Y-15762597D01*
X19041137Y-15919672D01*
X19395672Y-16039130D01*
X19761033Y-16119552D01*
X20132944Y-16159999D01*
X20132952Y-16160000D01*
X20507048Y-16160000D01*
X20507055Y-16159999D01*
X20878966Y-16119552D01*
X21244327Y-16039130D01*
X21598862Y-15919672D01*
X21938374Y-15762597D01*
X21938387Y-15762590D01*
X22258918Y-15569734D01*
X22258934Y-15569723D01*
X22556758Y-15343324D01*
X22669629Y-15236405D01*
X21362983Y-13929759D01*
X21539758Y-13752983D01*
X22848782Y-15062007D01*
X22848783Y-15062006D01*
X23070555Y-14800916D01*
X23280498Y-14491273D01*
X23455729Y-14160753D01*
X23455738Y-14160735D01*
X23594206Y-13813204D01*
X23594208Y-13813197D01*
X23694285Y-13452750D01*
X23694291Y-13452724D01*
X23754811Y-13083572D01*
X23754813Y-13083555D01*
X23775067Y-12710002D01*
X23775067Y-12709997D01*
X23754813Y-12336444D01*
X23754811Y-12336427D01*
X23694291Y-11967275D01*
X23694285Y-11967249D01*
X23594208Y-11606802D01*
X23594206Y-11606795D01*
X23455738Y-11259264D01*
X23455729Y-11259246D01*
X23280498Y-10928726D01*
X23070555Y-10619084D01*
X23070548Y-10619074D01*
X22848783Y-10357992D01*
X22848782Y-10357991D01*
X21539758Y-11667016D01*
X21362982Y-11490240D01*
X22669629Y-10183593D01*
X22669629Y-10183592D01*
X22556763Y-10076679D01*
X22556753Y-10076671D01*
X22258934Y-9850276D01*
X22258918Y-9850265D01*
X21938387Y-9657409D01*
X21938374Y-9657402D01*
X21598862Y-9500327D01*
X21244327Y-9380869D01*
X20878966Y-9300447D01*
X20507055Y-9260000D01*
X20132944Y-9260000D01*
X19761033Y-9300447D01*
X19395672Y-9380869D01*
X19041137Y-9500327D01*
X18701625Y-9657402D01*
X18701612Y-9657409D01*
X18381081Y-9850265D01*
X18381065Y-9850276D01*
X18083236Y-10076678D01*
X18083235Y-10076679D01*
X17970369Y-10183592D01*
X17970368Y-10183593D01*
X19277016Y-11490241D01*
X19100241Y-11667016D01*
X17791216Y-10357991D01*
X17791215Y-10357992D01*
X17569447Y-10619079D01*
X17359501Y-10928726D01*
X17184270Y-11259246D01*
X17184261Y-11259264D01*
X17045793Y-11606795D01*
X17045791Y-11606802D01*
X16945714Y-11967249D01*
X16945708Y-11967275D01*
X16885188Y-12336427D01*
X16885186Y-12336444D01*
X16864933Y-12709997D01*
X-57504933Y-12709997D01*
X-57525186Y-12336444D01*
X-57525188Y-12336427D01*
X-57585708Y-11967275D01*
X-57585714Y-11967249D01*
X-57685791Y-11606802D01*
X-57685793Y-11606795D01*
X-57824261Y-11259264D01*
X-57824270Y-11259246D01*
X-57999501Y-10928726D01*
X-58209447Y-10619079D01*
X-58431215Y-10357992D01*
X-58431216Y-10357991D01*
X-59740241Y-11667016D01*
X-59917016Y-11490241D01*
X-58610368Y-10183593D01*
X-58610369Y-10183592D01*
X-58723235Y-10076679D01*
X-58723236Y-10076678D01*
X-59021065Y-9850276D01*
X-59021081Y-9850265D01*
X-59341612Y-9657409D01*
X-59341625Y-9657402D01*
X-59681137Y-9500327D01*
X-60035672Y-9380869D01*
X-60401033Y-9300447D01*
X-60772944Y-9260000D01*
X-61147055Y-9260000D01*
X-61518966Y-9300447D01*
X-61884327Y-9380869D01*
X-62238862Y-9500327D01*
X-62578374Y-9657402D01*
X-62578387Y-9657409D01*
X-62898918Y-9850265D01*
X-62898934Y-9850276D01*
X-63196753Y-10076671D01*
X-63196763Y-10076679D01*
X-63309629Y-10183592D01*
X-63309629Y-10183593D01*
X-62002982Y-11490240D01*
X-62179758Y-11667016D01*
X-63488782Y-10357991D01*
X-63488783Y-10357992D01*
X-63710548Y-10619074D01*
X-63710555Y-10619084D01*
X-63920498Y-10928726D01*
X-64095729Y-11259246D01*
X-64095738Y-11259264D01*
X-64234206Y-11606795D01*
X-64234208Y-11606802D01*
X-64334285Y-11967249D01*
X-64334291Y-11967275D01*
X-64394811Y-12336427D01*
X-64394813Y-12336444D01*
X-64415067Y-12709997D01*
X-73699500Y-12709997D01*
X-73699500Y-6815177D01*
X-56830500Y-6815177D01*
X-56830500Y-8444822D01*
X-56822379Y-8485644D01*
X-56821767Y-8488722D01*
X-56788504Y-8538504D01*
X-56738722Y-8571767D01*
X-56738717Y-8571767D01*
X-56738717Y-8571768D01*
X-56694822Y-8580500D01*
X-56694820Y-8580500D01*
X-55065177Y-8580500D01*
X-55021282Y-8571768D01*
X-55021281Y-8571767D01*
X-55021278Y-8571767D01*
X-54971496Y-8538504D01*
X-54960176Y-8521563D01*
X-54938234Y-8488724D01*
X-54938231Y-8488717D01*
X-54929500Y-8444822D01*
X-54929500Y-6815177D01*
X-54929499Y-6815177D01*
X-54938231Y-6771282D01*
X-54938234Y-6771275D01*
X-54971495Y-6721496D01*
X-54971496Y-6721495D01*
X-55021275Y-6688234D01*
X-55021282Y-6688231D01*
X-55065178Y-6679500D01*
X-55065180Y-6679500D01*
X-56694820Y-6679500D01*
X-56694822Y-6679500D01*
X-56738717Y-6688231D01*
X-56738724Y-6688234D01*
X-56747129Y-6693850D01*
X-56788504Y-6721496D01*
X-56821767Y-6771278D01*
X-56821767Y-6771281D01*
X-56821768Y-6771282D01*
X-56830500Y-6815177D01*
X-73699500Y-6815177D01*
X-73699500Y-3820000D01*
X-64505341Y-3820000D01*
X-64486024Y-4016132D01*
X-64428814Y-4204727D01*
X-64428811Y-4204732D01*
X-64428811Y-4204733D01*
X-64404973Y-4249330D01*
X-64335910Y-4378538D01*
X-64210883Y-4530883D01*
X-64058538Y-4655910D01*
X-63884727Y-4748814D01*
X-63696132Y-4806024D01*
X-63500000Y-4825341D01*
X-63303868Y-4806024D01*
X-63115273Y-4748814D01*
X-63115269Y-4748811D01*
X-63115266Y-4748811D01*
X-62941467Y-4655913D01*
X-62941460Y-4655909D01*
X-62789116Y-4530883D01*
X-62664090Y-4378539D01*
X-62664086Y-4378532D01*
X-62571188Y-4204733D01*
X-62513975Y-4016129D01*
X-62494659Y-3820000D01*
X-62513975Y-3623870D01*
X-62571188Y-3435266D01*
X-62664086Y-3261467D01*
X-62664090Y-3261460D01*
X-62789116Y-3109116D01*
X-62941460Y-2984090D01*
X-62941467Y-2984086D01*
X-63115266Y-2891188D01*
X-63303870Y-2833975D01*
X-63500000Y-2814659D01*
X-63696129Y-2833975D01*
X-63696132Y-2833976D01*
X-63884727Y-2891186D01*
X-63884733Y-2891188D01*
X-64058532Y-2984086D01*
X-64058539Y-2984090D01*
X-64210883Y-3109116D01*
X-64335909Y-3261460D01*
X-64335913Y-3261467D01*
X-64428811Y-3435266D01*
X-64428811Y-3435269D01*
X-64428814Y-3435273D01*
X-64486024Y-3623868D01*
X-64505341Y-3820000D01*
X-73699500Y-3820000D01*
X-73699500Y-1280000D01*
X-64505341Y-1280000D01*
X-64486024Y-1476132D01*
X-64428814Y-1664727D01*
X-64335910Y-1838538D01*
X-64210883Y-1990883D01*
X-64058538Y-2115910D01*
X-63884727Y-2208814D01*
X-63696132Y-2266024D01*
X-63500000Y-2285341D01*
X-63303868Y-2266024D01*
X-63115273Y-2208814D01*
X-63115269Y-2208811D01*
X-63115266Y-2208811D01*
X-62941467Y-2115913D01*
X-62941460Y-2115909D01*
X-62789116Y-1990883D01*
X-62664090Y-1838539D01*
X-62664086Y-1838532D01*
X-62571188Y-1664733D01*
X-62570520Y-1662533D01*
X-62513976Y-1476132D01*
X-62513975Y-1476129D01*
X-62494659Y-1280000D01*
X-62513975Y-1083870D01*
X-62571188Y-895266D01*
X-62664086Y-721467D01*
X-62664090Y-721460D01*
X-62789116Y-569116D01*
X-62941460Y-444090D01*
X-62941467Y-444086D01*
X-63115266Y-351188D01*
X-63303870Y-293975D01*
X-63500000Y-274659D01*
X-63696129Y-293975D01*
X-63696132Y-293976D01*
X-63884727Y-351186D01*
X-63884733Y-351188D01*
X-64058532Y-444086D01*
X-64058539Y-444090D01*
X-64210883Y-569116D01*
X-64335909Y-721460D01*
X-64335913Y-721467D01*
X-64428811Y-895266D01*
X-64428811Y-895269D01*
X-64428814Y-895273D01*
X-64486024Y-1083868D01*
X-64505341Y-1280000D01*
X-73699500Y-1280000D01*
X-73699500Y1260000D01*
X-64505341Y1260000D01*
X-64486024Y1063868D01*
X-64428814Y875273D01*
X-64428811Y875269D01*
X-64428811Y875266D01*
X-64335913Y701467D01*
X-64335909Y701460D01*
X-64210883Y549116D01*
X-64058539Y424090D01*
X-64058532Y424086D01*
X-63884733Y331188D01*
X-63884727Y331186D01*
X-63866767Y325738D01*
X-63696129Y273975D01*
X-63500000Y254659D01*
X-63303870Y273975D01*
X-63115266Y331188D01*
X-62941467Y424086D01*
X-62941460Y424090D01*
X-62789116Y549116D01*
X-62664090Y701460D01*
X-62664086Y701467D01*
X-62571188Y875266D01*
X-62513975Y1063870D01*
X-62494659Y1260000D01*
X-62513975Y1456129D01*
X-62563320Y1618797D01*
X-62571186Y1644727D01*
X-62571188Y1644733D01*
X-62664086Y1818532D01*
X-62664090Y1818539D01*
X-62789116Y1970883D01*
X-62941460Y2095909D01*
X-62941467Y2095913D01*
X-63115266Y2188811D01*
X-63115269Y2188811D01*
X-63115273Y2188814D01*
X-63303868Y2246024D01*
X-63500000Y2265341D01*
X-63696132Y2246024D01*
X-63884727Y2188814D01*
X-64058538Y2095910D01*
X-64210883Y1970883D01*
X-64335910Y1818538D01*
X-64366160Y1761945D01*
X-64408702Y1682353D01*
X-64428814Y1644727D01*
X-64486024Y1456132D01*
X-64505341Y1260000D01*
X-73699500Y1260000D01*
X-73699500Y4674626D01*
X-64600000Y4674626D01*
X-64600000Y3925000D01*
X-63984144Y3925000D01*
X-64000000Y3865826D01*
X-64000000Y3734174D01*
X-63984144Y3675000D01*
X-64600000Y3675000D01*
X-64600000Y2925373D01*
X-64599999Y2925371D01*
X-64585496Y2852459D01*
X-64585494Y2852455D01*
X-64530239Y2769760D01*
X-64447544Y2714505D01*
X-64447540Y2714503D01*
X-64374628Y2700000D01*
X-63625000Y2700000D01*
X-63625000Y3315855D01*
X-63565826Y3300000D01*
X-63434174Y3300000D01*
X-63375000Y3315855D01*
X-63375000Y2700000D01*
X-62625371Y2700000D01*
X-62552459Y2714503D01*
X-62552455Y2714505D01*
X-62469760Y2769760D01*
X-62414505Y2852455D01*
X-62414503Y2852459D01*
X-62400000Y2925371D01*
X-62400000Y3675000D01*
X-63015856Y3675000D01*
X-63000000Y3734174D01*
X-63000000Y3865826D01*
X-63015856Y3925000D01*
X-62400000Y3925000D01*
X-62400000Y4674628D01*
X-62414503Y4747540D01*
X-62414505Y4747544D01*
X-62469760Y4830239D01*
X-62552455Y4885494D01*
X-62552459Y4885496D01*
X-62625373Y4900000D01*
X-63375000Y4900000D01*
X-63375000Y4284144D01*
X-63434174Y4300000D01*
X-63565826Y4300000D01*
X-63625000Y4284144D01*
X-63625000Y4900000D01*
X-64374627Y4900000D01*
X-64447540Y4885496D01*
X-64447544Y4885494D01*
X-64530239Y4830239D01*
X-64585494Y4747544D01*
X-64585496Y4747540D01*
X-64599999Y4674628D01*
X-64600000Y4674626D01*
X-73699500Y4674626D01*
X-73699500Y9000002D01*
X-72455067Y9000002D01*
X-72455067Y8999997D01*
X-72434813Y8626444D01*
X-72434811Y8626427D01*
X-72374291Y8257275D01*
X-72374285Y8257249D01*
X-72274208Y7896802D01*
X-72274206Y7896795D01*
X-72135738Y7549264D01*
X-72135729Y7549246D01*
X-71960498Y7218726D01*
X-71750555Y6909084D01*
X-71750548Y6909074D01*
X-71528783Y6647992D01*
X-71528782Y6647991D01*
X-70219758Y7957016D01*
X-70042982Y7780240D01*
X-71349629Y6473593D01*
X-71349629Y6473592D01*
X-71236763Y6366679D01*
X-71236753Y6366671D01*
X-70938934Y6140276D01*
X-70938918Y6140265D01*
X-70618387Y5947409D01*
X-70618374Y5947402D01*
X-70278862Y5790327D01*
X-69924327Y5670869D01*
X-69558966Y5590447D01*
X-69187055Y5550000D01*
X-68812944Y5550000D01*
X-68441033Y5590447D01*
X-68075672Y5670869D01*
X-67721137Y5790327D01*
X-67381625Y5947402D01*
X-67381612Y5947409D01*
X-67061081Y6140265D01*
X-67061065Y6140276D01*
X-66763236Y6366678D01*
X-66763235Y6366679D01*
X-66650369Y6473592D01*
X-66650368Y6473593D01*
X-67957017Y7780240D01*
X-67780241Y7957016D01*
X-66471216Y6647991D01*
X-66471215Y6647992D01*
X-66249447Y6909079D01*
X-66039501Y7218726D01*
X-65864270Y7549246D01*
X-65864261Y7549264D01*
X-65840062Y7610000D01*
X-56835099Y7610000D01*
X-56816747Y7423669D01*
X-56799830Y7367900D01*
X-56762395Y7244497D01*
X-56674137Y7079376D01*
X-56674135Y7079373D01*
X-56555357Y6934642D01*
X-56410626Y6815864D01*
X-56410623Y6815862D01*
X-56245502Y6727604D01*
X-56066333Y6673253D01*
X-56066331Y6673252D01*
X-55880000Y6654901D01*
X-55693668Y6673252D01*
X-55693666Y6673253D01*
X-55514497Y6727604D01*
X-55349376Y6815862D01*
X-55349373Y6815864D01*
X-55204642Y6934642D01*
X-55085864Y7079373D01*
X-55085862Y7079376D01*
X-54997604Y7244497D01*
X-54943253Y7423666D01*
X-54943252Y7423668D01*
X-54924901Y7610000D01*
X-54295099Y7610000D01*
X-54276747Y7423669D01*
X-54259830Y7367900D01*
X-54222395Y7244497D01*
X-54134137Y7079376D01*
X-54134135Y7079373D01*
X-54015357Y6934642D01*
X-53870626Y6815864D01*
X-53870623Y6815862D01*
X-53705504Y6727605D01*
X-53680102Y6719899D01*
X-53621664Y6681600D01*
X-53593209Y6617787D01*
X-53592100Y6601239D01*
X-53592100Y5140146D01*
X-53592100Y5039854D01*
X-53553720Y4947197D01*
X-41524594Y-7081927D01*
X-41491111Y-7143248D01*
X-41496095Y-7212940D01*
X-41502919Y-7228059D01*
X-41522394Y-7264496D01*
X-41522396Y-7264499D01*
X-41576747Y-7443669D01*
X-41595099Y-7630000D01*
X-41576747Y-7816331D01*
X-41522396Y-7995501D01*
X-41434136Y-8160625D01*
X-41315357Y-8305357D01*
X-41170625Y-8424136D01*
X-41005501Y-8512396D01*
X-40826331Y-8566747D01*
X-40640000Y-8585099D01*
X-40470374Y-8568392D01*
X-40453668Y-8566747D01*
X-40453666Y-8566746D01*
X-40274499Y-8512396D01*
X-40271219Y-8510643D01*
X-40109376Y-8424137D01*
X-40109373Y-8424135D01*
X-39964642Y-8305357D01*
X-39845864Y-8160626D01*
X-39845862Y-8160623D01*
X-39757604Y-7995502D01*
X-39703253Y-7816333D01*
X-39703252Y-7816331D01*
X-39684901Y-7630000D01*
X-39703252Y-7443668D01*
X-39703253Y-7443666D01*
X-39757602Y-7264502D01*
X-39757605Y-7264496D01*
X-39770116Y-7241088D01*
X-39784355Y-7172685D01*
X-39759352Y-7107442D01*
X-39748436Y-7094959D01*
X-38691896Y-6038419D01*
X-38630573Y-6004934D01*
X-38604215Y-6002100D01*
X-27357985Y-6002100D01*
X-27290946Y-6021785D01*
X-27245191Y-6074589D01*
X-27235247Y-6143747D01*
X-27264272Y-6207303D01*
X-27270304Y-6213781D01*
X-27708654Y-6652131D01*
X-27769977Y-6685616D01*
X-27808488Y-6687853D01*
X-27939999Y-6674901D01*
X-27940000Y-6674901D01*
X-28126331Y-6693252D01*
X-28126333Y-6693253D01*
X-28305502Y-6747604D01*
X-28470623Y-6835862D01*
X-28470626Y-6835864D01*
X-28615357Y-6954642D01*
X-28734135Y-7099373D01*
X-28734137Y-7099376D01*
X-28801804Y-7225973D01*
X-28822396Y-7264499D01*
X-28876747Y-7443669D01*
X-28895099Y-7630000D01*
X-28876747Y-7816331D01*
X-28822396Y-7995501D01*
X-28734136Y-8160625D01*
X-28615357Y-8305357D01*
X-28470625Y-8424136D01*
X-28305501Y-8512396D01*
X-28126331Y-8566747D01*
X-27940000Y-8585099D01*
X-27770374Y-8568392D01*
X-27753668Y-8566747D01*
X-27753666Y-8566746D01*
X-27574499Y-8512396D01*
X-27571219Y-8510643D01*
X-27409376Y-8424137D01*
X-27409373Y-8424135D01*
X-27264642Y-8305357D01*
X-27145864Y-8160626D01*
X-27145862Y-8160623D01*
X-27057604Y-7995502D01*
X-27003253Y-7816333D01*
X-27003252Y-7816331D01*
X-26984901Y-7630000D01*
X-27003252Y-7443668D01*
X-27003253Y-7443666D01*
X-27057604Y-7264497D01*
X-27145862Y-7099376D01*
X-27145864Y-7099373D01*
X-27208435Y-7023130D01*
X-27235747Y-6958820D01*
X-27223955Y-6889952D01*
X-27200262Y-6856785D01*
X-26881896Y-6538419D01*
X-26820573Y-6504934D01*
X-26794215Y-6502100D01*
X-25792122Y-6502100D01*
X-25725083Y-6521785D01*
X-25679328Y-6574589D01*
X-25669384Y-6643747D01*
X-25698409Y-6707303D01*
X-25756125Y-6744759D01*
X-25765501Y-6747604D01*
X-25765504Y-6747605D01*
X-25765505Y-6747606D01*
X-25930623Y-6835862D01*
X-25930626Y-6835864D01*
X-26075357Y-6954642D01*
X-26194135Y-7099373D01*
X-26194137Y-7099376D01*
X-26261804Y-7225973D01*
X-26282396Y-7264499D01*
X-26336747Y-7443669D01*
X-26355099Y-7630000D01*
X-26336747Y-7816331D01*
X-26282396Y-7995501D01*
X-26282395Y-7995502D01*
X-26269886Y-8018905D01*
X-26255644Y-8087307D01*
X-26280643Y-8152551D01*
X-26291563Y-8165040D01*
X-27088104Y-8961581D01*
X-27149427Y-8995066D01*
X-27175785Y-8997900D01*
X-36324215Y-8997900D01*
X-36391254Y-8978215D01*
X-36411896Y-8961581D01*
X-37208436Y-8165039D01*
X-37241921Y-8103716D01*
X-37236937Y-8034024D01*
X-37230114Y-8018907D01*
X-37217605Y-7995504D01*
X-37217602Y-7995497D01*
X-37163253Y-7816333D01*
X-37163252Y-7816331D01*
X-37144901Y-7630000D01*
X-36515099Y-7630000D01*
X-36496747Y-7816331D01*
X-36442396Y-7995501D01*
X-36354136Y-8160625D01*
X-36235357Y-8305357D01*
X-36090625Y-8424136D01*
X-35925501Y-8512396D01*
X-35746331Y-8566747D01*
X-35560000Y-8585099D01*
X-35390374Y-8568392D01*
X-35373668Y-8566747D01*
X-35373666Y-8566746D01*
X-35194499Y-8512396D01*
X-35191219Y-8510643D01*
X-35029376Y-8424137D01*
X-35029373Y-8424135D01*
X-34884642Y-8305357D01*
X-34765864Y-8160626D01*
X-34765862Y-8160623D01*
X-34677604Y-7995502D01*
X-34623253Y-7816333D01*
X-34623252Y-7816331D01*
X-34604901Y-7630000D01*
X-34623252Y-7443668D01*
X-34623253Y-7443666D01*
X-34677604Y-7264497D01*
X-34765862Y-7099376D01*
X-34765864Y-7099373D01*
X-34884642Y-6954642D01*
X-35029373Y-6835864D01*
X-35029376Y-6835862D01*
X-35068075Y-6815177D01*
X-31430500Y-6815177D01*
X-31430500Y-8444822D01*
X-31422379Y-8485644D01*
X-31421767Y-8488722D01*
X-31388504Y-8538504D01*
X-31338722Y-8571767D01*
X-31338717Y-8571767D01*
X-31338717Y-8571768D01*
X-31294822Y-8580500D01*
X-31294820Y-8580500D01*
X-29665177Y-8580500D01*
X-29621282Y-8571768D01*
X-29621281Y-8571767D01*
X-29621278Y-8571767D01*
X-29571496Y-8538504D01*
X-29560176Y-8521563D01*
X-29538234Y-8488724D01*
X-29538231Y-8488717D01*
X-29529500Y-8444822D01*
X-29529500Y-6815177D01*
X-29529499Y-6815177D01*
X-29538231Y-6771282D01*
X-29538234Y-6771275D01*
X-29571495Y-6721496D01*
X-29571496Y-6721495D01*
X-29621275Y-6688234D01*
X-29621282Y-6688231D01*
X-29665178Y-6679500D01*
X-29665180Y-6679500D01*
X-31294820Y-6679500D01*
X-31294822Y-6679500D01*
X-31338717Y-6688231D01*
X-31338724Y-6688234D01*
X-31347129Y-6693850D01*
X-31388504Y-6721496D01*
X-31421767Y-6771278D01*
X-31421767Y-6771281D01*
X-31421768Y-6771282D01*
X-31430500Y-6815177D01*
X-35068075Y-6815177D01*
X-35194497Y-6747604D01*
X-35373666Y-6693253D01*
X-35373668Y-6693252D01*
X-35560000Y-6674901D01*
X-35746331Y-6693252D01*
X-35746333Y-6693253D01*
X-35925502Y-6747604D01*
X-36090623Y-6835862D01*
X-36090626Y-6835864D01*
X-36235357Y-6954642D01*
X-36354135Y-7099373D01*
X-36354137Y-7099376D01*
X-36421804Y-7225973D01*
X-36442396Y-7264499D01*
X-36496747Y-7443669D01*
X-36515099Y-7630000D01*
X-37144901Y-7630000D01*
X-37163252Y-7443668D01*
X-37163253Y-7443666D01*
X-37217604Y-7264497D01*
X-37305862Y-7099376D01*
X-37305864Y-7099373D01*
X-37424642Y-6954642D01*
X-37569373Y-6835864D01*
X-37569376Y-6835862D01*
X-37734497Y-6747604D01*
X-37913666Y-6693253D01*
X-37913668Y-6693252D01*
X-38100000Y-6674901D01*
X-38286331Y-6693252D01*
X-38286333Y-6693253D01*
X-38465502Y-6747604D01*
X-38630623Y-6835862D01*
X-38630626Y-6835864D01*
X-38775357Y-6954642D01*
X-38894135Y-7099373D01*
X-38894137Y-7099376D01*
X-38961804Y-7225973D01*
X-38982396Y-7264499D01*
X-39036747Y-7443669D01*
X-39055099Y-7630000D01*
X-39036747Y-7816331D01*
X-38982396Y-7995501D01*
X-38982395Y-7995502D01*
X-38969886Y-8018905D01*
X-38955644Y-8087307D01*
X-38980643Y-8152551D01*
X-38991563Y-8165040D01*
X-39788104Y-8961581D01*
X-39849427Y-8995066D01*
X-39875785Y-8997900D01*
X-49024215Y-8997900D01*
X-49091254Y-8978215D01*
X-49111896Y-8961581D01*
X-49908436Y-8165039D01*
X-49941921Y-8103716D01*
X-49936937Y-8034024D01*
X-49930114Y-8018907D01*
X-49917605Y-7995504D01*
X-49917602Y-7995497D01*
X-49863253Y-7816333D01*
X-49863252Y-7816331D01*
X-49844901Y-7630000D01*
X-49863252Y-7443668D01*
X-49863253Y-7443666D01*
X-49917604Y-7264497D01*
X-50005862Y-7099376D01*
X-50005864Y-7099373D01*
X-50124642Y-6954642D01*
X-50249770Y-6851953D01*
X-50289104Y-6794207D01*
X-50290975Y-6724363D01*
X-50254787Y-6664594D01*
X-50192031Y-6633879D01*
X-50171105Y-6632100D01*
X-48888895Y-6632100D01*
X-48821856Y-6651785D01*
X-48776101Y-6704589D01*
X-48766157Y-6773747D01*
X-48795182Y-6837303D01*
X-48810230Y-6851953D01*
X-48935357Y-6954642D01*
X-49054135Y-7099373D01*
X-49054137Y-7099376D01*
X-49121804Y-7225973D01*
X-49142396Y-7264499D01*
X-49196747Y-7443669D01*
X-49215099Y-7630000D01*
X-49196747Y-7816331D01*
X-49142396Y-7995501D01*
X-49054136Y-8160625D01*
X-48935357Y-8305357D01*
X-48790625Y-8424136D01*
X-48625501Y-8512396D01*
X-48446331Y-8566747D01*
X-48260000Y-8585099D01*
X-48090374Y-8568392D01*
X-48073668Y-8566747D01*
X-48073666Y-8566746D01*
X-47894499Y-8512396D01*
X-47891219Y-8510643D01*
X-47729376Y-8424137D01*
X-47729373Y-8424135D01*
X-47584642Y-8305357D01*
X-47465864Y-8160626D01*
X-47465862Y-8160623D01*
X-47377604Y-7995502D01*
X-47323253Y-7816333D01*
X-47323252Y-7816331D01*
X-47304901Y-7630000D01*
X-47323252Y-7443668D01*
X-47323253Y-7443666D01*
X-47377604Y-7264497D01*
X-47465862Y-7099376D01*
X-47465864Y-7099373D01*
X-47584642Y-6954642D01*
X-47709770Y-6851953D01*
X-47749104Y-6794207D01*
X-47750975Y-6724363D01*
X-47714787Y-6664594D01*
X-47652031Y-6633879D01*
X-47631105Y-6632100D01*
X-46348895Y-6632100D01*
X-46281856Y-6651785D01*
X-46236101Y-6704589D01*
X-46226157Y-6773747D01*
X-46255182Y-6837303D01*
X-46270230Y-6851953D01*
X-46395357Y-6954642D01*
X-46514135Y-7099373D01*
X-46514137Y-7099376D01*
X-46581804Y-7225973D01*
X-46602396Y-7264499D01*
X-46656747Y-7443669D01*
X-46675099Y-7630000D01*
X-46656747Y-7816331D01*
X-46602396Y-7995501D01*
X-46514136Y-8160625D01*
X-46395357Y-8305357D01*
X-46250625Y-8424136D01*
X-46085501Y-8512396D01*
X-45906331Y-8566747D01*
X-45720000Y-8585099D01*
X-45550374Y-8568392D01*
X-45533668Y-8566747D01*
X-45533666Y-8566746D01*
X-45354499Y-8512396D01*
X-45351219Y-8510643D01*
X-45189376Y-8424137D01*
X-45189373Y-8424135D01*
X-45044642Y-8305357D01*
X-44925864Y-8160626D01*
X-44925862Y-8160623D01*
X-44837604Y-7995502D01*
X-44783253Y-7816333D01*
X-44783252Y-7816331D01*
X-44764901Y-7630000D01*
X-44783252Y-7443668D01*
X-44783253Y-7443666D01*
X-44837604Y-7264497D01*
X-44925862Y-7099376D01*
X-44925864Y-7099373D01*
X-45044642Y-6954642D01*
X-45169770Y-6851953D01*
X-45209104Y-6794207D01*
X-45210975Y-6724363D01*
X-45174787Y-6664594D01*
X-45112031Y-6633879D01*
X-45091105Y-6632100D01*
X-44585785Y-6632100D01*
X-44518746Y-6651785D01*
X-44498103Y-6668419D01*
X-44071560Y-7094961D01*
X-44038077Y-7156282D01*
X-44043061Y-7225973D01*
X-44049881Y-7241085D01*
X-44062396Y-7264499D01*
X-44116747Y-7443669D01*
X-44135099Y-7630000D01*
X-44116747Y-7816331D01*
X-44062396Y-7995501D01*
X-43974136Y-8160625D01*
X-43855357Y-8305357D01*
X-43710625Y-8424136D01*
X-43545501Y-8512396D01*
X-43366331Y-8566747D01*
X-43180000Y-8585099D01*
X-43010374Y-8568392D01*
X-42993668Y-8566747D01*
X-42993666Y-8566746D01*
X-42814499Y-8512396D01*
X-42811219Y-8510643D01*
X-42649376Y-8424137D01*
X-42649373Y-8424135D01*
X-42504642Y-8305357D01*
X-42385864Y-8160626D01*
X-42385862Y-8160623D01*
X-42297604Y-7995502D01*
X-42243253Y-7816333D01*
X-42243252Y-7816331D01*
X-42224901Y-7630000D01*
X-42243252Y-7443668D01*
X-42243253Y-7443666D01*
X-42297604Y-7264497D01*
X-42385862Y-7099376D01*
X-42385864Y-7099373D01*
X-42504642Y-6954642D01*
X-42649373Y-6835864D01*
X-42649376Y-6835862D01*
X-42814497Y-6747604D01*
X-42993666Y-6693253D01*
X-42993668Y-6693252D01*
X-43180000Y-6674901D01*
X-43366331Y-6693252D01*
X-43366333Y-6693253D01*
X-43545497Y-6747602D01*
X-43545504Y-6747605D01*
X-43568907Y-6760114D01*
X-43637310Y-6774355D01*
X-43702553Y-6749354D01*
X-43715039Y-6738436D01*
X-44287195Y-6166281D01*
X-44379853Y-6127900D01*
X-44379854Y-6127900D01*
X-52039854Y-6127900D01*
X-52140146Y-6127900D01*
X-52232803Y-6166280D01*
X-52232804Y-6166281D01*
X-52804959Y-6738436D01*
X-52866282Y-6771921D01*
X-52935974Y-6766937D01*
X-52951088Y-6760116D01*
X-52974496Y-6747605D01*
X-52974502Y-6747602D01*
X-53153666Y-6693253D01*
X-53153668Y-6693252D01*
X-53340000Y-6674901D01*
X-53526331Y-6693252D01*
X-53526333Y-6693253D01*
X-53705502Y-6747604D01*
X-53870623Y-6835862D01*
X-53870626Y-6835864D01*
X-54015357Y-6954642D01*
X-54134135Y-7099373D01*
X-54134137Y-7099376D01*
X-54201804Y-7225973D01*
X-54222396Y-7264499D01*
X-54276747Y-7443669D01*
X-54295099Y-7630000D01*
X-54276747Y-7816331D01*
X-54222396Y-7995501D01*
X-54134136Y-8160625D01*
X-54015357Y-8305357D01*
X-53870625Y-8424136D01*
X-53705501Y-8512396D01*
X-53526331Y-8566747D01*
X-53340000Y-8585099D01*
X-53170374Y-8568392D01*
X-53153668Y-8566747D01*
X-53153666Y-8566746D01*
X-52974499Y-8512396D01*
X-52971219Y-8510643D01*
X-52809376Y-8424137D01*
X-52809373Y-8424135D01*
X-52664642Y-8305357D01*
X-52545864Y-8160626D01*
X-52545862Y-8160623D01*
X-52457604Y-7995502D01*
X-52403253Y-7816333D01*
X-52403252Y-7816331D01*
X-52384901Y-7630000D01*
X-52403252Y-7443668D01*
X-52403253Y-7443666D01*
X-52457602Y-7264502D01*
X-52457605Y-7264496D01*
X-52470116Y-7241088D01*
X-52484355Y-7172685D01*
X-52459352Y-7107442D01*
X-52448436Y-7094959D01*
X-52021896Y-6668419D01*
X-51960573Y-6634934D01*
X-51934215Y-6632100D01*
X-51428895Y-6632100D01*
X-51361856Y-6651785D01*
X-51316101Y-6704589D01*
X-51306157Y-6773747D01*
X-51335182Y-6837303D01*
X-51350230Y-6851953D01*
X-51475357Y-6954642D01*
X-51594135Y-7099373D01*
X-51594137Y-7099376D01*
X-51661804Y-7225973D01*
X-51682396Y-7264499D01*
X-51736747Y-7443669D01*
X-51755099Y-7630000D01*
X-51736747Y-7816331D01*
X-51682396Y-7995501D01*
X-51594136Y-8160625D01*
X-51475357Y-8305357D01*
X-51330625Y-8424136D01*
X-51165501Y-8512396D01*
X-50986331Y-8566747D01*
X-50800000Y-8585099D01*
X-50630374Y-8568392D01*
X-50613668Y-8566747D01*
X-50613666Y-8566746D01*
X-50434499Y-8512396D01*
X-50411093Y-8499885D01*
X-50342693Y-8485643D01*
X-50277449Y-8510641D01*
X-50264967Y-8521554D01*
X-49393720Y-9392803D01*
X-49322803Y-9463720D01*
X-49230146Y-9502100D01*
X-49230145Y-9502100D01*
X-39669855Y-9502100D01*
X-39669854Y-9502100D01*
X-39577197Y-9463720D01*
X-38635040Y-8521563D01*
X-38573717Y-8488078D01*
X-38504025Y-8493062D01*
X-38488907Y-8499884D01*
X-38465501Y-8512396D01*
X-38286331Y-8566747D01*
X-38100000Y-8585099D01*
X-37930374Y-8568392D01*
X-37913668Y-8566747D01*
X-37913666Y-8566746D01*
X-37734499Y-8512396D01*
X-37711093Y-8499885D01*
X-37642693Y-8485643D01*
X-37577449Y-8510641D01*
X-37564967Y-8521554D01*
X-36622803Y-9463720D01*
X-36530146Y-9502100D01*
X-36530145Y-9502100D01*
X-26969855Y-9502100D01*
X-26969854Y-9502100D01*
X-26877197Y-9463720D01*
X-25935040Y-8521563D01*
X-25873717Y-8488078D01*
X-25804025Y-8493062D01*
X-25788907Y-8499884D01*
X-25765501Y-8512396D01*
X-25586331Y-8566747D01*
X-25400000Y-8585099D01*
X-25230374Y-8568392D01*
X-25213668Y-8566747D01*
X-25213666Y-8566746D01*
X-25034499Y-8512396D01*
X-25011093Y-8499885D01*
X-24942693Y-8485643D01*
X-24877449Y-8510641D01*
X-24864967Y-8521554D01*
X-23672803Y-9713720D01*
X-23580146Y-9752100D01*
X-23580145Y-9752100D01*
X-14519855Y-9752100D01*
X-14519854Y-9752100D01*
X-14427197Y-9713720D01*
X-13235040Y-8521563D01*
X-13173717Y-8488078D01*
X-13104025Y-8493062D01*
X-13088907Y-8499884D01*
X-13065501Y-8512396D01*
X-12886331Y-8566747D01*
X-12700000Y-8585099D01*
X-12530374Y-8568392D01*
X-12513668Y-8566747D01*
X-12513666Y-8566746D01*
X-12334499Y-8512396D01*
X-12311093Y-8499885D01*
X-12242693Y-8485643D01*
X-12177449Y-8510641D01*
X-12164967Y-8521554D01*
X-11293720Y-9392803D01*
X-11222803Y-9463720D01*
X-11130146Y-9502100D01*
X-11130145Y-9502100D01*
X-1569855Y-9502100D01*
X-1569854Y-9502100D01*
X-1477197Y-9463720D01*
X-535040Y-8521563D01*
X-473717Y-8488078D01*
X-404025Y-8493062D01*
X-388907Y-8499884D01*
X-365501Y-8512396D01*
X-186331Y-8566747D01*
X0Y-8585099D01*
X186331Y-8566747D01*
X365501Y-8512396D01*
X388905Y-8499885D01*
X457307Y-8485644D01*
X522551Y-8510643D01*
X535039Y-8521562D01*
X1406280Y-9392803D01*
X1477197Y-9463720D01*
X1569854Y-9502100D01*
X1569855Y-9502100D01*
X11130145Y-9502100D01*
X11130146Y-9502100D01*
X11222803Y-9463720D01*
X12164961Y-8521560D01*
X12226282Y-8488077D01*
X12295973Y-8493061D01*
X12311085Y-8499881D01*
X12334499Y-8512396D01*
X12513666Y-8566746D01*
X12513668Y-8566747D01*
X12530374Y-8568392D01*
X12700000Y-8585099D01*
X12886331Y-8566747D01*
X13065501Y-8512396D01*
X13230625Y-8424136D01*
X13375357Y-8305357D01*
X13494136Y-8160625D01*
X13582396Y-7995501D01*
X13636747Y-7816331D01*
X13655099Y-7630000D01*
X14284901Y-7630000D01*
X14303252Y-7816331D01*
X14303253Y-7816333D01*
X14357604Y-7995502D01*
X14445862Y-8160623D01*
X14445864Y-8160626D01*
X14564642Y-8305357D01*
X14709373Y-8424135D01*
X14709376Y-8424137D01*
X14871219Y-8510643D01*
X14874499Y-8512396D01*
X15053666Y-8566746D01*
X15053668Y-8566747D01*
X15070374Y-8568392D01*
X15240000Y-8585099D01*
X15426331Y-8566747D01*
X15605501Y-8512396D01*
X15770625Y-8424136D01*
X15915357Y-8305357D01*
X16034136Y-8160625D01*
X16122396Y-7995501D01*
X16176747Y-7816331D01*
X16195099Y-7630000D01*
X16176747Y-7443669D01*
X16122396Y-7264499D01*
X16101804Y-7225973D01*
X16034137Y-7099376D01*
X16034135Y-7099373D01*
X15915357Y-6954642D01*
X15770626Y-6835864D01*
X15770623Y-6835862D01*
X15605502Y-6747604D01*
X15426333Y-6693253D01*
X15426331Y-6693252D01*
X15240000Y-6674901D01*
X15053668Y-6693252D01*
X15053666Y-6693253D01*
X14874497Y-6747604D01*
X14709376Y-6835862D01*
X14709373Y-6835864D01*
X14564642Y-6954642D01*
X14445864Y-7099373D01*
X14445862Y-7099376D01*
X14357604Y-7264497D01*
X14303253Y-7443666D01*
X14303252Y-7443668D01*
X14284901Y-7630000D01*
X13655099Y-7630000D01*
X13636747Y-7443669D01*
X13582396Y-7264499D01*
X13561804Y-7225973D01*
X13494137Y-7099376D01*
X13494135Y-7099373D01*
X13375357Y-6954642D01*
X13230626Y-6835864D01*
X13230623Y-6835862D01*
X13065502Y-6747604D01*
X12886333Y-6693253D01*
X12886331Y-6693252D01*
X12700000Y-6674901D01*
X12513668Y-6693252D01*
X12513666Y-6693253D01*
X12334497Y-6747604D01*
X12169376Y-6835862D01*
X12169373Y-6835864D01*
X12024642Y-6954642D01*
X11905864Y-7099373D01*
X11905862Y-7099376D01*
X11817604Y-7264497D01*
X11763253Y-7443666D01*
X11763252Y-7443668D01*
X11744901Y-7630000D01*
X11763252Y-7816331D01*
X11763253Y-7816333D01*
X11817602Y-7995497D01*
X11817605Y-7995504D01*
X11830114Y-8018907D01*
X11844355Y-8087310D01*
X11819354Y-8152553D01*
X11808436Y-8165039D01*
X11011896Y-8961581D01*
X10950573Y-8995066D01*
X10924215Y-8997900D01*
X1775785Y-8997900D01*
X1708746Y-8978215D01*
X1688104Y-8961581D01*
X891563Y-8165040D01*
X858078Y-8103717D01*
X863062Y-8034025D01*
X869886Y-8018905D01*
X882395Y-7995502D01*
X882396Y-7995501D01*
X936747Y-7816331D01*
X955099Y-7630000D01*
X936747Y-7443669D01*
X882396Y-7264499D01*
X861804Y-7225973D01*
X794137Y-7099376D01*
X794135Y-7099373D01*
X675357Y-6954642D01*
X530626Y-6835864D01*
X530623Y-6835862D01*
X365505Y-6747606D01*
X365504Y-6747605D01*
X365501Y-6747604D01*
X356125Y-6744759D01*
X297688Y-6706464D01*
X269232Y-6642652D01*
X279792Y-6573584D01*
X326016Y-6521191D01*
X392122Y-6502100D01*
X1004215Y-6502100D01*
X1071254Y-6521785D01*
X1091896Y-6538419D01*
X1648436Y-7094959D01*
X1681921Y-7156282D01*
X1676937Y-7225974D01*
X1670116Y-7241088D01*
X1657605Y-7264496D01*
X1657602Y-7264502D01*
X1603253Y-7443666D01*
X1603252Y-7443668D01*
X1584901Y-7630000D01*
X1603252Y-7816331D01*
X1603253Y-7816333D01*
X1657604Y-7995502D01*
X1745862Y-8160623D01*
X1745864Y-8160626D01*
X1864642Y-8305357D01*
X2009373Y-8424135D01*
X2009376Y-8424137D01*
X2171219Y-8510643D01*
X2174499Y-8512396D01*
X2353666Y-8566746D01*
X2353668Y-8566747D01*
X2370374Y-8568392D01*
X2540000Y-8585099D01*
X2726331Y-8566747D01*
X2905501Y-8512396D01*
X3070625Y-8424136D01*
X3215357Y-8305357D01*
X3334136Y-8160625D01*
X3422396Y-7995501D01*
X3476747Y-7816331D01*
X3495099Y-7630000D01*
X4124901Y-7630000D01*
X4143252Y-7816331D01*
X4143253Y-7816333D01*
X4197604Y-7995502D01*
X4285862Y-8160623D01*
X4285864Y-8160626D01*
X4404642Y-8305357D01*
X4549373Y-8424135D01*
X4549376Y-8424137D01*
X4711219Y-8510643D01*
X4714499Y-8512396D01*
X4893666Y-8566746D01*
X4893668Y-8566747D01*
X4910374Y-8568392D01*
X5080000Y-8585099D01*
X5266331Y-8566747D01*
X5445501Y-8512396D01*
X5610625Y-8424136D01*
X5755357Y-8305357D01*
X5874136Y-8160625D01*
X5962396Y-7995501D01*
X6016747Y-7816331D01*
X6035099Y-7630000D01*
X6664901Y-7630000D01*
X6683252Y-7816331D01*
X6683253Y-7816333D01*
X6737604Y-7995502D01*
X6825862Y-8160623D01*
X6825864Y-8160626D01*
X6944642Y-8305357D01*
X7089373Y-8424135D01*
X7089376Y-8424137D01*
X7251219Y-8510643D01*
X7254499Y-8512396D01*
X7433666Y-8566746D01*
X7433668Y-8566747D01*
X7450374Y-8568392D01*
X7620000Y-8585099D01*
X7806331Y-8566747D01*
X7985501Y-8512396D01*
X8150625Y-8424136D01*
X8295357Y-8305357D01*
X8414136Y-8160625D01*
X8502396Y-7995501D01*
X8556747Y-7816331D01*
X8575099Y-7630000D01*
X8556747Y-7443669D01*
X8502396Y-7264499D01*
X8481804Y-7225973D01*
X8414137Y-7099376D01*
X8414135Y-7099373D01*
X8295357Y-6954642D01*
X8150626Y-6835864D01*
X8150623Y-6835862D01*
X7985502Y-6747604D01*
X7806333Y-6693253D01*
X7806331Y-6693252D01*
X7620000Y-6674901D01*
X7433668Y-6693252D01*
X7433666Y-6693253D01*
X7254497Y-6747604D01*
X7089376Y-6835862D01*
X7089373Y-6835864D01*
X6944642Y-6954642D01*
X6825864Y-7099373D01*
X6825862Y-7099376D01*
X6737604Y-7264497D01*
X6683253Y-7443666D01*
X6683252Y-7443668D01*
X6664901Y-7630000D01*
X6035099Y-7630000D01*
X6016747Y-7443669D01*
X5962396Y-7264499D01*
X5941804Y-7225973D01*
X5874137Y-7099376D01*
X5874135Y-7099373D01*
X5755357Y-6954642D01*
X5610626Y-6835864D01*
X5610623Y-6835862D01*
X5445502Y-6747604D01*
X5266333Y-6693253D01*
X5266331Y-6693252D01*
X5080000Y-6674901D01*
X4893668Y-6693252D01*
X4893666Y-6693253D01*
X4714497Y-6747604D01*
X4549376Y-6835862D01*
X4549373Y-6835864D01*
X4404642Y-6954642D01*
X4285864Y-7099373D01*
X4285862Y-7099376D01*
X4197604Y-7264497D01*
X4143253Y-7443666D01*
X4143252Y-7443668D01*
X4124901Y-7630000D01*
X3495099Y-7630000D01*
X3476747Y-7443669D01*
X3422396Y-7264499D01*
X3401804Y-7225973D01*
X3334137Y-7099376D01*
X3334135Y-7099373D01*
X3215357Y-6954642D01*
X3070626Y-6835864D01*
X3070623Y-6835862D01*
X2905502Y-6747604D01*
X2726333Y-6693253D01*
X2726331Y-6693252D01*
X2540000Y-6674901D01*
X2353668Y-6693252D01*
X2353666Y-6693253D01*
X2174502Y-6747602D01*
X2174496Y-6747605D01*
X2151088Y-6760116D01*
X2082685Y-6774355D01*
X2017442Y-6749352D01*
X2004959Y-6738436D01*
X1480304Y-6213781D01*
X1446819Y-6152458D01*
X1451803Y-6082766D01*
X1493675Y-6026833D01*
X1559139Y-6002416D01*
X1567985Y-6002100D01*
X8444215Y-6002100D01*
X8511254Y-6021785D01*
X8531896Y-6038419D01*
X9388710Y-6895233D01*
X9422195Y-6956556D01*
X9417211Y-7026248D01*
X9396882Y-7061579D01*
X9365864Y-7099373D01*
X9365862Y-7099376D01*
X9277604Y-7264497D01*
X9223253Y-7443666D01*
X9223252Y-7443668D01*
X9204901Y-7630000D01*
X9223252Y-7816331D01*
X9223253Y-7816333D01*
X9277604Y-7995502D01*
X9365862Y-8160623D01*
X9365864Y-8160626D01*
X9484642Y-8305357D01*
X9629373Y-8424135D01*
X9629376Y-8424137D01*
X9791219Y-8510643D01*
X9794499Y-8512396D01*
X9973666Y-8566746D01*
X9973668Y-8566747D01*
X9990374Y-8568392D01*
X10160000Y-8585099D01*
X10346331Y-8566747D01*
X10525501Y-8512396D01*
X10690625Y-8424136D01*
X10835357Y-8305357D01*
X10954136Y-8160625D01*
X11042396Y-7995501D01*
X11096747Y-7816331D01*
X11115099Y-7630000D01*
X11096747Y-7443669D01*
X11042396Y-7264499D01*
X11021804Y-7225973D01*
X10954137Y-7099376D01*
X10954135Y-7099373D01*
X10835357Y-6954642D01*
X10690626Y-6835864D01*
X10690623Y-6835862D01*
X10525502Y-6747604D01*
X10346333Y-6693253D01*
X10346331Y-6693252D01*
X10160000Y-6674901D01*
X9967607Y-6693850D01*
X9967397Y-6691727D01*
X9907407Y-6686338D01*
X9865168Y-6658645D01*
X8742804Y-5536281D01*
X8742803Y-5536280D01*
X8650146Y-5497900D01*
X-13410146Y-5497900D01*
X-13502803Y-5536280D01*
X-13502804Y-5536281D01*
X-14704959Y-6738436D01*
X-14766282Y-6771921D01*
X-14835974Y-6766937D01*
X-14851088Y-6760116D01*
X-14874496Y-6747605D01*
X-14874502Y-6747602D01*
X-15053666Y-6693253D01*
X-15053668Y-6693252D01*
X-15240000Y-6674901D01*
X-15426331Y-6693252D01*
X-15426333Y-6693253D01*
X-15605497Y-6747602D01*
X-15605504Y-6747605D01*
X-15628907Y-6760114D01*
X-15697310Y-6774355D01*
X-15762553Y-6749354D01*
X-15775039Y-6738436D01*
X-16977195Y-5536281D01*
X-17069853Y-5497900D01*
X-17069854Y-5497900D01*
X-38810146Y-5497900D01*
X-38902803Y-5536280D01*
X-38902804Y-5536281D01*
X-40104959Y-6738436D01*
X-40166282Y-6771921D01*
X-40235974Y-6766937D01*
X-40251088Y-6760116D01*
X-40274496Y-6747605D01*
X-40274502Y-6747602D01*
X-40453666Y-6693253D01*
X-40453668Y-6693252D01*
X-40640000Y-6674901D01*
X-40826331Y-6693252D01*
X-40826333Y-6693253D01*
X-41005500Y-6747603D01*
X-41015876Y-6753149D01*
X-41084280Y-6767388D01*
X-41149522Y-6742385D01*
X-41162006Y-6731469D01*
X-43093475Y-4800000D01*
X24195073Y-4800000D01*
X24212690Y-4922533D01*
X24264115Y-5035137D01*
X24264116Y-5035139D01*
X24345183Y-5128696D01*
X24449325Y-5195624D01*
X24449327Y-5195624D01*
X24450003Y-5196059D01*
X24470645Y-5212694D01*
X29751631Y-10493680D01*
X29843869Y-10546934D01*
X29946747Y-10574500D01*
X30053253Y-10574500D01*
X33811727Y-10574500D01*
X33846660Y-10579522D01*
X33882636Y-10590086D01*
X33918102Y-10600500D01*
X33918103Y-10600500D01*
X34041898Y-10600500D01*
X34041898Y-10600499D01*
X34160675Y-10565624D01*
X34264817Y-10498696D01*
X34345884Y-10405139D01*
X34397309Y-10292533D01*
X34414927Y-10170000D01*
X34397309Y-10047467D01*
X34345884Y-9934861D01*
X34264817Y-9841304D01*
X34264814Y-9841302D01*
X34264812Y-9841300D01*
X34160677Y-9774376D01*
X34160672Y-9774374D01*
X34041899Y-9739500D01*
X34041897Y-9739500D01*
X33918103Y-9739500D01*
X33918102Y-9739500D01*
X33882636Y-9749913D01*
X33846660Y-9760477D01*
X33811727Y-9765500D01*
X30218911Y-9765500D01*
X30151872Y-9745815D01*
X30131230Y-9729181D01*
X25036057Y-4634008D01*
X25010944Y-4597839D01*
X24995884Y-4564861D01*
X24914817Y-4471304D01*
X24914814Y-4471302D01*
X24914812Y-4471300D01*
X24810677Y-4404376D01*
X24810672Y-4404374D01*
X24691899Y-4369500D01*
X24691897Y-4369500D01*
X24568103Y-4369500D01*
X24568100Y-4369500D01*
X24449327Y-4404374D01*
X24449322Y-4404376D01*
X24345187Y-4471300D01*
X24345185Y-4471302D01*
X24264117Y-4564859D01*
X24264115Y-4564862D01*
X24212690Y-4677466D01*
X24195073Y-4800000D01*
X-43093475Y-4800000D01*
X-44073478Y-3819997D01*
X25414723Y-3819997D01*
X25414723Y-3820002D01*
X25433793Y-4037975D01*
X25433793Y-4037979D01*
X25490422Y-4249322D01*
X25490424Y-4249326D01*
X25490425Y-4249330D01*
X25536661Y-4348484D01*
X25582897Y-4447638D01*
X25582898Y-4447639D01*
X25708402Y-4626877D01*
X25863123Y-4781598D01*
X26042361Y-4907102D01*
X26240670Y-4999575D01*
X26452023Y-5056207D01*
X26634926Y-5072208D01*
X26669998Y-5075277D01*
X26670000Y-5075277D01*
X26670002Y-5075277D01*
X26698254Y-5072805D01*
X26887977Y-5056207D01*
X27099330Y-4999575D01*
X27297639Y-4907102D01*
X27476877Y-4781598D01*
X27631598Y-4626877D01*
X27757102Y-4447639D01*
X27849575Y-4249330D01*
X27850483Y-4245943D01*
X57529500Y-4245943D01*
X57529500Y-4404057D01*
X57541178Y-4447638D01*
X57570423Y-4556783D01*
X57570426Y-4556790D01*
X57649475Y-4693709D01*
X57649479Y-4693714D01*
X57649480Y-4693716D01*
X57761284Y-4805520D01*
X57761286Y-4805521D01*
X57761290Y-4805524D01*
X57795615Y-4825341D01*
X57898216Y-4884577D01*
X58050943Y-4925500D01*
X58050945Y-4925500D01*
X59709055Y-4925500D01*
X59709057Y-4925500D01*
X59861784Y-4884577D01*
X59998716Y-4805520D01*
X60110520Y-4693716D01*
X60189577Y-4556784D01*
X60230500Y-4404057D01*
X60230500Y-4245943D01*
X61259500Y-4245943D01*
X61259500Y-4404057D01*
X61271178Y-4447638D01*
X61300423Y-4556783D01*
X61300426Y-4556790D01*
X61379475Y-4693709D01*
X61379479Y-4693714D01*
X61379480Y-4693716D01*
X61491284Y-4805520D01*
X61491286Y-4805521D01*
X61491290Y-4805524D01*
X61525615Y-4825341D01*
X61628216Y-4884577D01*
X61780943Y-4925500D01*
X61780945Y-4925500D01*
X62739055Y-4925500D01*
X62739057Y-4925500D01*
X62891784Y-4884577D01*
X63028716Y-4805520D01*
X63140520Y-4693716D01*
X63219577Y-4556784D01*
X63260500Y-4404057D01*
X63260500Y-4245943D01*
X63219577Y-4093216D01*
X63175073Y-4016132D01*
X63140524Y-3956290D01*
X63140518Y-3956282D01*
X63028717Y-3844481D01*
X63028709Y-3844475D01*
X62891790Y-3765426D01*
X62891786Y-3765424D01*
X62891784Y-3765423D01*
X62739057Y-3724500D01*
X61780943Y-3724500D01*
X61628216Y-3765423D01*
X61628209Y-3765426D01*
X61491290Y-3844475D01*
X61491282Y-3844481D01*
X61379481Y-3956282D01*
X61379475Y-3956290D01*
X61300426Y-4093209D01*
X61300423Y-4093216D01*
X61259500Y-4245943D01*
X60230500Y-4245943D01*
X60189577Y-4093216D01*
X60145073Y-4016132D01*
X60110524Y-3956290D01*
X60110518Y-3956282D01*
X59998717Y-3844481D01*
X59998709Y-3844475D01*
X59861790Y-3765426D01*
X59861786Y-3765424D01*
X59861784Y-3765423D01*
X59709057Y-3724500D01*
X59566486Y-3724500D01*
X59499447Y-3704815D01*
X59453692Y-3652011D01*
X59443748Y-3582853D01*
X59472773Y-3519297D01*
X59519034Y-3485939D01*
X59539974Y-3477265D01*
X59539983Y-3477260D01*
X59560069Y-3461846D01*
X59560069Y-3461845D01*
X59250001Y-3151776D01*
X59250000Y-3151776D01*
X58939929Y-3461844D01*
X58939929Y-3461845D01*
X58960022Y-3477263D01*
X58960023Y-3477264D01*
X58980966Y-3485939D01*
X59035370Y-3529779D01*
X59057435Y-3596073D01*
X59040156Y-3663773D01*
X58989019Y-3711383D01*
X58933514Y-3724500D01*
X58216486Y-3724500D01*
X58149447Y-3704815D01*
X58103692Y-3652011D01*
X58093748Y-3582853D01*
X58122773Y-3519297D01*
X58169034Y-3485939D01*
X58189974Y-3477265D01*
X58189983Y-3477260D01*
X58210069Y-3461846D01*
X58210069Y-3461845D01*
X57900001Y-3151776D01*
X57900000Y-3151776D01*
X57589929Y-3461844D01*
X57589929Y-3461845D01*
X57610022Y-3477263D01*
X57610023Y-3477264D01*
X57749891Y-3535198D01*
X57749896Y-3535200D01*
X57833221Y-3546170D01*
X57897118Y-3574436D01*
X57935589Y-3632761D01*
X57936420Y-3702626D01*
X57899348Y-3761849D01*
X57879036Y-3776496D01*
X57761287Y-3844477D01*
X57761282Y-3844481D01*
X57649481Y-3956282D01*
X57649475Y-3956290D01*
X57570426Y-4093209D01*
X57570423Y-4093216D01*
X57529500Y-4245943D01*
X27850483Y-4245943D01*
X27906207Y-4037977D01*
X27925277Y-3820000D01*
X27906207Y-3602023D01*
X27861526Y-3435273D01*
X27849577Y-3390677D01*
X27849576Y-3390676D01*
X27849575Y-3390670D01*
X27757102Y-3192362D01*
X27757100Y-3192359D01*
X27757099Y-3192357D01*
X27631599Y-3013124D01*
X27593474Y-2974999D01*
X57320038Y-2974999D01*
X57320038Y-2975000D01*
X57339800Y-3125104D01*
X57339801Y-3125108D01*
X57397736Y-3264978D01*
X57413153Y-3285069D01*
X57413154Y-3285069D01*
X57723223Y-2975001D01*
X57723223Y-2975000D01*
X57688413Y-2940190D01*
X57725000Y-2940190D01*
X57725000Y-3009810D01*
X57751643Y-3074129D01*
X57800871Y-3123357D01*
X57865190Y-3150000D01*
X57934810Y-3150000D01*
X57999129Y-3123357D01*
X58048357Y-3074129D01*
X58075000Y-3009810D01*
X58075000Y-2975000D01*
X58076776Y-2975000D01*
X58386845Y-3285069D01*
X58386846Y-3285069D01*
X58402260Y-3264983D01*
X58402265Y-3264974D01*
X58460439Y-3124528D01*
X58504279Y-3070124D01*
X58570573Y-3048059D01*
X58638273Y-3065338D01*
X58685884Y-3116475D01*
X58689561Y-3124528D01*
X58747736Y-3264978D01*
X58763153Y-3285069D01*
X58763154Y-3285069D01*
X59073223Y-2975001D01*
X59073223Y-2975000D01*
X59038413Y-2940190D01*
X59075000Y-2940190D01*
X59075000Y-3009810D01*
X59101643Y-3074129D01*
X59150871Y-3123357D01*
X59215190Y-3150000D01*
X59284810Y-3150000D01*
X59349129Y-3123357D01*
X59398357Y-3074129D01*
X59425000Y-3009810D01*
X59425000Y-2975000D01*
X59426776Y-2975000D01*
X59736845Y-3285069D01*
X59736846Y-3285069D01*
X59752260Y-3264983D01*
X59752265Y-3264974D01*
X59810198Y-3125108D01*
X59810199Y-3125104D01*
X59829962Y-2975000D01*
X59829962Y-2974999D01*
X59810199Y-2824895D01*
X59810198Y-2824891D01*
X59752264Y-2685023D01*
X59752263Y-2685022D01*
X59736845Y-2664929D01*
X59734138Y-2664752D01*
X59732091Y-2669236D01*
X59726063Y-2675711D01*
X59426776Y-2975000D01*
X59425000Y-2975000D01*
X59425000Y-2940190D01*
X59398357Y-2875871D01*
X59349129Y-2826643D01*
X59284810Y-2800000D01*
X59215190Y-2800000D01*
X59150871Y-2826643D01*
X59101643Y-2875871D01*
X59075000Y-2940190D01*
X59038413Y-2940190D01*
X58773933Y-2675709D01*
X58768239Y-2665281D01*
X58767212Y-2664980D01*
X58766847Y-2664686D01*
X58763153Y-2664928D01*
X58747736Y-2685021D01*
X58689561Y-2825471D01*
X58645720Y-2879875D01*
X58579426Y-2901940D01*
X58511727Y-2884661D01*
X58464116Y-2833524D01*
X58460439Y-2825471D01*
X58402264Y-2685023D01*
X58402263Y-2685022D01*
X58386845Y-2664929D01*
X58384138Y-2664752D01*
X58382091Y-2669236D01*
X58376063Y-2675711D01*
X58076776Y-2975000D01*
X58075000Y-2975000D01*
X58075000Y-2940190D01*
X58048357Y-2875871D01*
X57999129Y-2826643D01*
X57934810Y-2800000D01*
X57865190Y-2800000D01*
X57800871Y-2826643D01*
X57751643Y-2875871D01*
X57725000Y-2940190D01*
X57688413Y-2940190D01*
X57423933Y-2675709D01*
X57418239Y-2665281D01*
X57417212Y-2664980D01*
X57416847Y-2664686D01*
X57413153Y-2664928D01*
X57397736Y-2685021D01*
X57339801Y-2824891D01*
X57339800Y-2824895D01*
X57320038Y-2974999D01*
X27593474Y-2974999D01*
X27558665Y-2940190D01*
X27476877Y-2858402D01*
X27338978Y-2761844D01*
X27297638Y-2732897D01*
X27161115Y-2669236D01*
X27099330Y-2640425D01*
X27099326Y-2640424D01*
X27099322Y-2640422D01*
X26887977Y-2583793D01*
X26670002Y-2564723D01*
X26669998Y-2564723D01*
X26524682Y-2577436D01*
X26452023Y-2583793D01*
X26452020Y-2583793D01*
X26240677Y-2640422D01*
X26240668Y-2640426D01*
X26042361Y-2732898D01*
X26042357Y-2732900D01*
X25863121Y-2858402D01*
X25708402Y-3013121D01*
X25582900Y-3192357D01*
X25582898Y-3192361D01*
X25490426Y-3390668D01*
X25490422Y-3390677D01*
X25433793Y-3602020D01*
X25433793Y-3602024D01*
X25414723Y-3819997D01*
X-44073478Y-3819997D01*
X-53051581Y5158104D01*
X-53085066Y5219427D01*
X-53087900Y5245785D01*
X-53087900Y6601239D01*
X-53068215Y6668278D01*
X-53015411Y6714033D01*
X-52999898Y6719899D01*
X-52974495Y6727605D01*
X-52809376Y6815862D01*
X-52809373Y6815864D01*
X-52664642Y6934642D01*
X-52545864Y7079373D01*
X-52545862Y7079376D01*
X-52457604Y7244497D01*
X-52403253Y7423666D01*
X-52403252Y7423668D01*
X-52384901Y7610000D01*
X-51755099Y7610000D01*
X-51736747Y7423669D01*
X-51719830Y7367900D01*
X-51682395Y7244497D01*
X-51594137Y7079376D01*
X-51594135Y7079373D01*
X-51475357Y6934642D01*
X-51330626Y6815864D01*
X-51330623Y6815862D01*
X-51165502Y6727604D01*
X-50986333Y6673253D01*
X-50986331Y6673252D01*
X-50800000Y6654901D01*
X-50613668Y6673252D01*
X-50613666Y6673253D01*
X-50434497Y6727604D01*
X-50269376Y6815862D01*
X-50269373Y6815864D01*
X-50124642Y6934642D01*
X-50005864Y7079373D01*
X-50005862Y7079376D01*
X-49917604Y7244497D01*
X-49863253Y7423666D01*
X-49863252Y7423668D01*
X-49844901Y7610000D01*
X-49863252Y7796331D01*
X-49863253Y7796333D01*
X-49917604Y7975502D01*
X-50005862Y8140623D01*
X-50005864Y8140626D01*
X-50124642Y8285357D01*
X-50269373Y8404135D01*
X-50269376Y8404137D01*
X-50434497Y8492395D01*
X-50434499Y8492396D01*
X-50613666Y8546746D01*
X-50613668Y8546747D01*
X-50800000Y8565099D01*
X-50986331Y8546747D01*
X-51165501Y8492396D01*
X-51330625Y8404136D01*
X-51475357Y8285357D01*
X-51594136Y8140625D01*
X-51682396Y7975501D01*
X-51736747Y7796331D01*
X-51755099Y7610000D01*
X-52384901Y7610000D01*
X-52403252Y7796331D01*
X-52403253Y7796333D01*
X-52457604Y7975502D01*
X-52545862Y8140623D01*
X-52545864Y8140626D01*
X-52664642Y8285357D01*
X-52809373Y8404135D01*
X-52809376Y8404137D01*
X-52974497Y8492395D01*
X-52974499Y8492396D01*
X-53153666Y8546746D01*
X-53153668Y8546747D01*
X-53340000Y8565099D01*
X-53526331Y8546747D01*
X-53705501Y8492396D01*
X-53870625Y8404136D01*
X-54015357Y8285357D01*
X-54134136Y8140625D01*
X-54222396Y7975501D01*
X-54276747Y7796331D01*
X-54295099Y7610000D01*
X-54924901Y7610000D01*
X-54943252Y7796331D01*
X-54943253Y7796333D01*
X-54997602Y7975497D01*
X-54997605Y7975504D01*
X-55010114Y7998907D01*
X-55024355Y8067310D01*
X-54999354Y8132553D01*
X-54988436Y8145039D01*
X-54161896Y8971581D01*
X-54100573Y9005066D01*
X-54074215Y9007900D01*
X-42445785Y9007900D01*
X-42378746Y8988215D01*
X-42358104Y8971581D01*
X-41531563Y8145040D01*
X-41498078Y8083717D01*
X-41503062Y8014025D01*
X-41509884Y7998907D01*
X-41522396Y7975501D01*
X-41576747Y7796331D01*
X-41595099Y7610000D01*
X-41576747Y7423669D01*
X-41559830Y7367900D01*
X-41522395Y7244497D01*
X-41434137Y7079376D01*
X-41434135Y7079373D01*
X-41315357Y6934642D01*
X-41170626Y6815864D01*
X-41170623Y6815862D01*
X-41020196Y6735458D01*
X-40970352Y6686496D01*
X-40954891Y6618358D01*
X-40978722Y6552679D01*
X-41034280Y6510310D01*
X-41078649Y6502100D01*
X-42741351Y6502100D01*
X-42808390Y6521785D01*
X-42854145Y6574589D01*
X-42864089Y6643747D01*
X-42835064Y6707303D01*
X-42799804Y6735458D01*
X-42649376Y6815862D01*
X-42649373Y6815864D01*
X-42504642Y6934642D01*
X-42385864Y7079373D01*
X-42385862Y7079376D01*
X-42297604Y7244497D01*
X-42243253Y7423666D01*
X-42243252Y7423668D01*
X-42224901Y7610000D01*
X-42243252Y7796331D01*
X-42243253Y7796333D01*
X-42297604Y7975502D01*
X-42385862Y8140623D01*
X-42385864Y8140626D01*
X-42504642Y8285357D01*
X-42649373Y8404135D01*
X-42649376Y8404137D01*
X-42814497Y8492395D01*
X-42814499Y8492396D01*
X-42993666Y8546746D01*
X-42993668Y8546747D01*
X-43180000Y8565099D01*
X-43366331Y8546747D01*
X-43545501Y8492396D01*
X-43710625Y8404136D01*
X-43855357Y8285357D01*
X-43974136Y8140625D01*
X-44062396Y7975501D01*
X-44116747Y7796331D01*
X-44135099Y7610000D01*
X-44116747Y7423669D01*
X-44099830Y7367900D01*
X-44062395Y7244497D01*
X-43974137Y7079376D01*
X-43974135Y7079373D01*
X-43855357Y6934642D01*
X-43710626Y6815864D01*
X-43710623Y6815862D01*
X-43560196Y6735458D01*
X-43510352Y6686496D01*
X-43494891Y6618358D01*
X-43518722Y6552679D01*
X-43574280Y6510310D01*
X-43618649Y6502100D01*
X-45281351Y6502100D01*
X-45348390Y6521785D01*
X-45394145Y6574589D01*
X-45404089Y6643747D01*
X-45375064Y6707303D01*
X-45339804Y6735458D01*
X-45189376Y6815862D01*
X-45189373Y6815864D01*
X-45044642Y6934642D01*
X-44925864Y7079373D01*
X-44925862Y7079376D01*
X-44837604Y7244497D01*
X-44783253Y7423666D01*
X-44783252Y7423668D01*
X-44764901Y7610000D01*
X-44783252Y7796331D01*
X-44783253Y7796333D01*
X-44837604Y7975502D01*
X-44925862Y8140623D01*
X-44925864Y8140626D01*
X-45044642Y8285357D01*
X-45189373Y8404135D01*
X-45189376Y8404137D01*
X-45354497Y8492395D01*
X-45354499Y8492396D01*
X-45533666Y8546746D01*
X-45533668Y8546747D01*
X-45720000Y8565099D01*
X-45906331Y8546747D01*
X-46085501Y8492396D01*
X-46250625Y8404136D01*
X-46395357Y8285357D01*
X-46514136Y8140625D01*
X-46602396Y7975501D01*
X-46656747Y7796331D01*
X-46675099Y7610000D01*
X-46656747Y7423669D01*
X-46639830Y7367900D01*
X-46602395Y7244497D01*
X-46514137Y7079376D01*
X-46514135Y7079373D01*
X-46395357Y6934642D01*
X-46250626Y6815864D01*
X-46250623Y6815862D01*
X-46100196Y6735458D01*
X-46050352Y6686496D01*
X-46034891Y6618358D01*
X-46058722Y6552679D01*
X-46114280Y6510310D01*
X-46158649Y6502100D01*
X-46744215Y6502100D01*
X-46811254Y6521785D01*
X-46831896Y6538419D01*
X-47368436Y7074959D01*
X-47401921Y7136282D01*
X-47396937Y7205974D01*
X-47390116Y7221088D01*
X-47377605Y7244496D01*
X-47377602Y7244502D01*
X-47323253Y7423666D01*
X-47323252Y7423668D01*
X-47304901Y7610000D01*
X-47323252Y7796331D01*
X-47323253Y7796333D01*
X-47377604Y7975502D01*
X-47465862Y8140623D01*
X-47465864Y8140626D01*
X-47584642Y8285357D01*
X-47729373Y8404135D01*
X-47729376Y8404137D01*
X-47894497Y8492395D01*
X-47894499Y8492396D01*
X-48073666Y8546746D01*
X-48073668Y8546747D01*
X-48260000Y8565099D01*
X-48446331Y8546747D01*
X-48625501Y8492396D01*
X-48790625Y8404136D01*
X-48935357Y8285357D01*
X-49054136Y8140625D01*
X-49142396Y7975501D01*
X-49196747Y7796331D01*
X-49215099Y7610000D01*
X-49196747Y7423669D01*
X-49179830Y7367900D01*
X-49142395Y7244497D01*
X-49054137Y7079376D01*
X-49054135Y7079373D01*
X-48935357Y6934642D01*
X-48790626Y6815864D01*
X-48790623Y6815862D01*
X-48625502Y6727604D01*
X-48446333Y6673253D01*
X-48446331Y6673252D01*
X-48260000Y6654901D01*
X-48073668Y6673252D01*
X-48073666Y6673253D01*
X-47894502Y6727602D01*
X-47894496Y6727605D01*
X-47871088Y6740116D01*
X-47802685Y6754355D01*
X-47737442Y6729352D01*
X-47724959Y6718436D01*
X-47042803Y6036280D01*
X-46950146Y5997900D01*
X-36974853Y5997900D01*
X-36882195Y6036281D01*
X-36163465Y6755010D01*
X-36102142Y6788495D01*
X-36032450Y6783511D01*
X-36017331Y6776687D01*
X-35925502Y6727604D01*
X-35746333Y6673253D01*
X-35746331Y6673252D01*
X-35560000Y6654901D01*
X-35373668Y6673252D01*
X-35373666Y6673253D01*
X-35194497Y6727604D01*
X-35029376Y6815862D01*
X-35029373Y6815864D01*
X-34884642Y6934642D01*
X-34765864Y7079373D01*
X-34765862Y7079376D01*
X-34677604Y7244497D01*
X-34623253Y7423666D01*
X-34623252Y7423668D01*
X-34604901Y7610000D01*
X-34623252Y7796331D01*
X-34623253Y7796333D01*
X-34677604Y7975502D01*
X-34765862Y8140623D01*
X-34765864Y8140626D01*
X-34884642Y8285357D01*
X-35029373Y8404135D01*
X-35029376Y8404137D01*
X-35194497Y8492395D01*
X-35194499Y8492396D01*
X-35242971Y8507100D01*
X-35269804Y8515240D01*
X-35328242Y8553537D01*
X-35356699Y8617349D01*
X-35346138Y8686416D01*
X-35299913Y8738810D01*
X-35233808Y8757900D01*
X-32035785Y8757900D01*
X-31968746Y8738215D01*
X-31948104Y8721581D01*
X-31371563Y8145040D01*
X-31338078Y8083717D01*
X-31343062Y8014025D01*
X-31349884Y7998907D01*
X-31362396Y7975501D01*
X-31416747Y7796331D01*
X-31435099Y7610000D01*
X-31416747Y7423669D01*
X-31399830Y7367900D01*
X-31362395Y7244497D01*
X-31274137Y7079376D01*
X-31274135Y7079373D01*
X-31155357Y6934642D01*
X-31010626Y6815864D01*
X-31010623Y6815862D01*
X-30845504Y6727605D01*
X-30820102Y6719899D01*
X-30761664Y6681600D01*
X-30733209Y6617787D01*
X-30732100Y6601239D01*
X-30732100Y-814854D01*
X-30732100Y-915146D01*
X-30693720Y-1007803D01*
X-28483959Y-3217562D01*
X-28450476Y-3278883D01*
X-28448904Y-3322891D01*
X-28449927Y-3330000D01*
X-28432309Y-3452533D01*
X-28380884Y-3565139D01*
X-28299817Y-3658696D01*
X-28299812Y-3658699D01*
X-28217835Y-3711383D01*
X-28195675Y-3725624D01*
X-28076898Y-3760499D01*
X-28076898Y-3760500D01*
X-28076897Y-3760500D01*
X-27953102Y-3760500D01*
X-27953100Y-3760499D01*
X-27834327Y-3725625D01*
X-27834322Y-3725623D01*
X-27730187Y-3658699D01*
X-27730185Y-3658697D01*
X-27730183Y-3658696D01*
X-27649116Y-3565139D01*
X-27640453Y-3546170D01*
X-27597690Y-3452533D01*
X-27580073Y-3330000D01*
X-27597690Y-3207466D01*
X-27649115Y-3094862D01*
X-27649117Y-3094859D01*
X-27730185Y-3001302D01*
X-27730187Y-3001300D01*
X-27834322Y-2934376D01*
X-27834327Y-2934374D01*
X-27953100Y-2899500D01*
X-27953103Y-2899500D01*
X-28037614Y-2899500D01*
X-28104653Y-2879815D01*
X-28125295Y-2863181D01*
X-30191581Y-796895D01*
X-30225066Y-735572D01*
X-30227900Y-709214D01*
X-30227900Y6601239D01*
X-30208215Y6668278D01*
X-30155411Y6714033D01*
X-30139898Y6719899D01*
X-30114495Y6727605D01*
X-29949376Y6815862D01*
X-29949373Y6815864D01*
X-29804642Y6934642D01*
X-29685864Y7079373D01*
X-29685862Y7079376D01*
X-29597604Y7244497D01*
X-29543253Y7423666D01*
X-29543252Y7423668D01*
X-29524901Y7610000D01*
X-28895099Y7610000D01*
X-28876747Y7423669D01*
X-28859830Y7367900D01*
X-28822395Y7244497D01*
X-28734137Y7079376D01*
X-28734135Y7079373D01*
X-28615357Y6934642D01*
X-28470626Y6815864D01*
X-28470623Y6815862D01*
X-28305502Y6727604D01*
X-28126333Y6673253D01*
X-28126331Y6673252D01*
X-27940000Y6654901D01*
X-27753668Y6673252D01*
X-27753666Y6673253D01*
X-27574497Y6727604D01*
X-27409376Y6815862D01*
X-27409373Y6815864D01*
X-27264642Y6934642D01*
X-27145864Y7079373D01*
X-27145862Y7079376D01*
X-27057604Y7244497D01*
X-27003253Y7423666D01*
X-27003252Y7423668D01*
X-26984901Y7610000D01*
X-26355099Y7610000D01*
X-26336747Y7423669D01*
X-26319830Y7367900D01*
X-26282395Y7244497D01*
X-26194137Y7079376D01*
X-26194135Y7079373D01*
X-26075357Y6934642D01*
X-25930626Y6815864D01*
X-25930623Y6815862D01*
X-25765502Y6727604D01*
X-25586333Y6673253D01*
X-25586331Y6673252D01*
X-25400000Y6654901D01*
X-25213668Y6673252D01*
X-25213666Y6673253D01*
X-25034497Y6727604D01*
X-24869376Y6815862D01*
X-24869373Y6815864D01*
X-24724642Y6934642D01*
X-24605864Y7079373D01*
X-24605862Y7079376D01*
X-24517604Y7244497D01*
X-24463253Y7423666D01*
X-24463252Y7423668D01*
X-24444901Y7610000D01*
X-24463252Y7796331D01*
X-24463253Y7796333D01*
X-24517604Y7975502D01*
X-24605862Y8140623D01*
X-24605864Y8140626D01*
X-24724642Y8285357D01*
X-24869373Y8404135D01*
X-24869376Y8404137D01*
X-25034497Y8492395D01*
X-25034499Y8492396D01*
X-25213666Y8546746D01*
X-25213668Y8546747D01*
X-25400000Y8565099D01*
X-25586331Y8546747D01*
X-25765501Y8492396D01*
X-25930625Y8404136D01*
X-26075357Y8285357D01*
X-26194136Y8140625D01*
X-26282396Y7975501D01*
X-26336747Y7796331D01*
X-26355099Y7610000D01*
X-26984901Y7610000D01*
X-27003252Y7796331D01*
X-27003253Y7796333D01*
X-27057604Y7975502D01*
X-27145862Y8140623D01*
X-27145864Y8140626D01*
X-27264642Y8285357D01*
X-27409373Y8404135D01*
X-27409376Y8404137D01*
X-27574497Y8492395D01*
X-27574499Y8492396D01*
X-27753666Y8546746D01*
X-27753668Y8546747D01*
X-27940000Y8565099D01*
X-28126331Y8546747D01*
X-28305501Y8492396D01*
X-28470625Y8404136D01*
X-28615357Y8285357D01*
X-28734136Y8140625D01*
X-28822396Y7975501D01*
X-28876747Y7796331D01*
X-28895099Y7610000D01*
X-29524901Y7610000D01*
X-29543252Y7796331D01*
X-29543253Y7796333D01*
X-29597602Y7975497D01*
X-29597605Y7975504D01*
X-29610114Y7998907D01*
X-29624355Y8067310D01*
X-29599354Y8132553D01*
X-29588436Y8145039D01*
X-28891896Y8841581D01*
X-28830573Y8875066D01*
X-28804215Y8877900D01*
X-16915785Y8877900D01*
X-16848746Y8858215D01*
X-16828104Y8841581D01*
X-16131563Y8145040D01*
X-16098078Y8083717D01*
X-16103062Y8014025D01*
X-16109884Y7998907D01*
X-16122396Y7975501D01*
X-16176747Y7796331D01*
X-16195099Y7610000D01*
X-16176747Y7423669D01*
X-16159830Y7367900D01*
X-16122395Y7244497D01*
X-16034137Y7079376D01*
X-16034135Y7079373D01*
X-15915357Y6934642D01*
X-15770626Y6815864D01*
X-15770623Y6815862D01*
X-15620196Y6735458D01*
X-15570352Y6686496D01*
X-15554891Y6618358D01*
X-15578722Y6552679D01*
X-15634280Y6510310D01*
X-15678649Y6502100D01*
X-17341351Y6502100D01*
X-17408390Y6521785D01*
X-17454145Y6574589D01*
X-17464089Y6643747D01*
X-17435064Y6707303D01*
X-17399804Y6735458D01*
X-17249376Y6815862D01*
X-17249373Y6815864D01*
X-17104642Y6934642D01*
X-16985864Y7079373D01*
X-16985862Y7079376D01*
X-16897604Y7244497D01*
X-16843253Y7423666D01*
X-16843252Y7423668D01*
X-16824901Y7610000D01*
X-16843252Y7796331D01*
X-16843253Y7796333D01*
X-16897604Y7975502D01*
X-16985862Y8140623D01*
X-16985864Y8140626D01*
X-17104642Y8285357D01*
X-17249373Y8404135D01*
X-17249376Y8404137D01*
X-17414497Y8492395D01*
X-17414499Y8492396D01*
X-17593666Y8546746D01*
X-17593668Y8546747D01*
X-17780000Y8565099D01*
X-17966331Y8546747D01*
X-18145501Y8492396D01*
X-18310625Y8404136D01*
X-18455357Y8285357D01*
X-18574136Y8140625D01*
X-18662396Y7975501D01*
X-18716747Y7796331D01*
X-18735099Y7610000D01*
X-18716747Y7423669D01*
X-18699830Y7367900D01*
X-18662395Y7244497D01*
X-18574137Y7079376D01*
X-18574135Y7079373D01*
X-18455357Y6934642D01*
X-18310626Y6815864D01*
X-18310623Y6815862D01*
X-18160196Y6735458D01*
X-18110352Y6686496D01*
X-18094891Y6618358D01*
X-18118722Y6552679D01*
X-18174280Y6510310D01*
X-18218649Y6502100D01*
X-19881351Y6502100D01*
X-19948390Y6521785D01*
X-19994145Y6574589D01*
X-20004089Y6643747D01*
X-19975064Y6707303D01*
X-19939804Y6735458D01*
X-19789376Y6815862D01*
X-19789373Y6815864D01*
X-19644642Y6934642D01*
X-19525864Y7079373D01*
X-19525862Y7079376D01*
X-19437604Y7244497D01*
X-19383253Y7423666D01*
X-19383252Y7423668D01*
X-19364901Y7610000D01*
X-19383252Y7796331D01*
X-19383253Y7796333D01*
X-19437604Y7975502D01*
X-19525862Y8140623D01*
X-19525864Y8140626D01*
X-19644642Y8285357D01*
X-19789373Y8404135D01*
X-19789376Y8404137D01*
X-19954497Y8492395D01*
X-19954499Y8492396D01*
X-20133666Y8546746D01*
X-20133668Y8546747D01*
X-20320000Y8565099D01*
X-20506331Y8546747D01*
X-20685501Y8492396D01*
X-20850625Y8404136D01*
X-20995357Y8285357D01*
X-21114136Y8140625D01*
X-21202396Y7975501D01*
X-21256747Y7796331D01*
X-21275099Y7610000D01*
X-21256747Y7423669D01*
X-21239830Y7367900D01*
X-21202395Y7244497D01*
X-21114137Y7079376D01*
X-21114135Y7079373D01*
X-20995357Y6934642D01*
X-20850626Y6815864D01*
X-20850623Y6815862D01*
X-20700196Y6735458D01*
X-20650352Y6686496D01*
X-20634891Y6618358D01*
X-20658722Y6552679D01*
X-20714280Y6510310D01*
X-20758649Y6502100D01*
X-21344215Y6502100D01*
X-21411254Y6521785D01*
X-21431896Y6538419D01*
X-21968436Y7074959D01*
X-22001921Y7136282D01*
X-21996937Y7205974D01*
X-21990116Y7221088D01*
X-21977605Y7244496D01*
X-21977602Y7244502D01*
X-21923253Y7423666D01*
X-21923252Y7423668D01*
X-21904901Y7610000D01*
X-21923252Y7796331D01*
X-21923253Y7796333D01*
X-21977604Y7975502D01*
X-22065862Y8140623D01*
X-22065864Y8140626D01*
X-22184642Y8285357D01*
X-22329373Y8404135D01*
X-22329376Y8404137D01*
X-22494497Y8492395D01*
X-22494499Y8492396D01*
X-22673666Y8546746D01*
X-22673668Y8546747D01*
X-22860000Y8565099D01*
X-23046331Y8546747D01*
X-23225501Y8492396D01*
X-23390625Y8404136D01*
X-23535357Y8285357D01*
X-23654136Y8140625D01*
X-23742396Y7975501D01*
X-23796747Y7796331D01*
X-23815099Y7610000D01*
X-23796747Y7423669D01*
X-23779830Y7367900D01*
X-23742395Y7244497D01*
X-23654137Y7079376D01*
X-23654135Y7079373D01*
X-23535357Y6934642D01*
X-23390626Y6815864D01*
X-23390623Y6815862D01*
X-23225502Y6727604D01*
X-23046333Y6673253D01*
X-23046331Y6673252D01*
X-22860000Y6654901D01*
X-22673668Y6673252D01*
X-22673666Y6673253D01*
X-22494502Y6727602D01*
X-22494496Y6727605D01*
X-22471088Y6740116D01*
X-22402685Y6754355D01*
X-22337442Y6729352D01*
X-22324959Y6718436D01*
X-21713720Y6107197D01*
X-21642803Y6036280D01*
X-21550146Y5997900D01*
X-11469853Y5997900D01*
X-11377195Y6036281D01*
X-10695039Y6718436D01*
X-10633716Y6751921D01*
X-10564024Y6746937D01*
X-10548907Y6740114D01*
X-10525504Y6727605D01*
X-10525497Y6727602D01*
X-10346333Y6673253D01*
X-10346331Y6673252D01*
X-10160000Y6654901D01*
X-9973668Y6673252D01*
X-9973666Y6673253D01*
X-9794497Y6727604D01*
X-9629376Y6815862D01*
X-9629373Y6815864D01*
X-9484642Y6934642D01*
X-9441403Y6987330D01*
X-9383657Y7026664D01*
X-9313813Y7028535D01*
X-9257869Y6996346D01*
X-8368720Y6107197D01*
X-8297803Y6036280D01*
X-8205146Y5997900D01*
X-1979853Y5997900D01*
X-1887195Y6036281D01*
X-1597681Y6325796D01*
X-1536358Y6359281D01*
X-1466666Y6354297D01*
X-1422319Y6325796D01*
X4711581Y191896D01*
X4745066Y130573D01*
X4747900Y104215D01*
X4747900Y-2727297D01*
X4728215Y-2794336D01*
X4717613Y-2808499D01*
X4634120Y-2904855D01*
X4634115Y-2904862D01*
X4582690Y-3017466D01*
X4565073Y-3140000D01*
X4582690Y-3262533D01*
X4634115Y-3375137D01*
X4634116Y-3375139D01*
X4715183Y-3468696D01*
X4715185Y-3468697D01*
X4715187Y-3468699D01*
X4819322Y-3535623D01*
X4819327Y-3535625D01*
X4938100Y-3570499D01*
X4938102Y-3570500D01*
X4938103Y-3570500D01*
X5061898Y-3570500D01*
X5061898Y-3570499D01*
X5180675Y-3535624D01*
X5206081Y-3519297D01*
X5284812Y-3468699D01*
X5284811Y-3468699D01*
X5284817Y-3468696D01*
X5365884Y-3375139D01*
X5417309Y-3262533D01*
X5434927Y-3140000D01*
X5417309Y-3017467D01*
X5415325Y-3013123D01*
X5365884Y-2904862D01*
X5365884Y-2904861D01*
X5361239Y-2899500D01*
X5282387Y-2808499D01*
X5253362Y-2744944D01*
X5252100Y-2727297D01*
X5252100Y310144D01*
X5252100Y310146D01*
X5213720Y402803D01*
X5142803Y473720D01*
X-1070796Y6687319D01*
X-1104281Y6748642D01*
X-1099297Y6818334D01*
X-1070796Y6862681D01*
X-1016281Y6917195D01*
X-1016278Y6917199D01*
X-976292Y7013732D01*
X-932451Y7068135D01*
X-866156Y7090199D01*
X-798457Y7072919D01*
X-765879Y7044943D01*
X-675357Y6934642D01*
X-530626Y6815864D01*
X-530623Y6815862D01*
X-365502Y6727604D01*
X-186333Y6673253D01*
X-186331Y6673252D01*
X0Y6654901D01*
X186331Y6673252D01*
X186333Y6673253D01*
X365497Y6727602D01*
X365504Y6727605D01*
X388907Y6740114D01*
X457310Y6754355D01*
X522553Y6729354D01*
X535039Y6718436D01*
X1217195Y6036281D01*
X1309853Y5997900D01*
X1309854Y5997900D01*
X1410146Y5997900D01*
X10104215Y5997900D01*
X10171254Y5978215D01*
X10191896Y5961581D01*
X10581280Y5572197D01*
X12461581Y3691895D01*
X12495066Y3630572D01*
X12497900Y3604214D01*
X12497900Y-2486862D01*
X12478215Y-2553901D01*
X12440942Y-2591176D01*
X12425183Y-2601303D01*
X12425177Y-2601309D01*
X12344120Y-2694855D01*
X12344115Y-2694862D01*
X12292690Y-2807466D01*
X12275073Y-2930000D01*
X12292690Y-3052533D01*
X12337202Y-3150000D01*
X12344116Y-3165139D01*
X12425183Y-3258696D01*
X12425185Y-3258697D01*
X12425187Y-3258699D01*
X12529322Y-3325623D01*
X12529327Y-3325625D01*
X12648100Y-3360499D01*
X12648102Y-3360500D01*
X12648103Y-3360500D01*
X12771898Y-3360500D01*
X12771898Y-3360499D01*
X12875775Y-3329999D01*
X12890672Y-3325625D01*
X12890673Y-3325624D01*
X12890675Y-3325624D01*
X12994817Y-3258696D01*
X13075884Y-3165139D01*
X13127309Y-3052533D01*
X13144927Y-2930000D01*
X13127861Y-2811304D01*
X13127309Y-2807466D01*
X13075884Y-2694862D01*
X13075884Y-2694861D01*
X13032386Y-2644661D01*
X13003362Y-2581107D01*
X13002100Y-2563460D01*
X13002100Y137775D01*
X26955500Y137775D01*
X26955500Y-157775D01*
X26983810Y-372799D01*
X26994076Y-450775D01*
X27023433Y-560336D01*
X27070566Y-736242D01*
X27183660Y-1009275D01*
X27183665Y-1009286D01*
X27331425Y-1265212D01*
X27331436Y-1265228D01*
X27511339Y-1499682D01*
X27511345Y-1499689D01*
X27720310Y-1708654D01*
X27720317Y-1708660D01*
X27814856Y-1781202D01*
X27954780Y-1888570D01*
X27954787Y-1888574D01*
X28210713Y-2036334D01*
X28210718Y-2036336D01*
X28210721Y-2036338D01*
X28347240Y-2092886D01*
X28483757Y-2149433D01*
X28483758Y-2149433D01*
X28483760Y-2149434D01*
X28769225Y-2225924D01*
X29062232Y-2264500D01*
X29062239Y-2264500D01*
X29357761Y-2264500D01*
X29357768Y-2264500D01*
X29650775Y-2225924D01*
X29936240Y-2149434D01*
X30209279Y-2036338D01*
X30465220Y-1888570D01*
X30699684Y-1708659D01*
X30908659Y-1499684D01*
X31088570Y-1265220D01*
X31236338Y-1009279D01*
X31349434Y-736240D01*
X31425924Y-450775D01*
X31464500Y-157768D01*
X31464500Y137768D01*
X31425924Y430775D01*
X31349434Y716240D01*
X31236338Y989279D01*
X31088570Y1245220D01*
X30908659Y1479684D01*
X30699684Y1688659D01*
X30465220Y1868570D01*
X30209279Y2016338D01*
X29936240Y2129434D01*
X29650775Y2205924D01*
X29357768Y2244500D01*
X29062232Y2244500D01*
X28769225Y2205924D01*
X28483760Y2129434D01*
X28483758Y2129433D01*
X28483757Y2129433D01*
X28402823Y2095909D01*
X28210721Y2016338D01*
X28210718Y2016336D01*
X28210713Y2016334D01*
X27970858Y1877852D01*
X27954780Y1868570D01*
X27954771Y1868563D01*
X27720317Y1688660D01*
X27720310Y1688654D01*
X27511345Y1479689D01*
X27511339Y1479682D01*
X27342771Y1260000D01*
X27331430Y1245220D01*
X27331427Y1245215D01*
X27331425Y1245212D01*
X27183665Y989286D01*
X27183660Y989275D01*
X27070566Y716242D01*
X27032855Y575500D01*
X26994076Y430775D01*
X26990393Y402803D01*
X26955500Y137775D01*
X13002100Y137775D01*
X13002100Y2530002D01*
X22874723Y2530002D01*
X22874723Y2529997D01*
X22893793Y2312024D01*
X22893793Y2312020D01*
X22950422Y2100677D01*
X22950426Y2100668D01*
X23042897Y1902361D01*
X23126627Y1782782D01*
X23159764Y1735459D01*
X23168406Y1723118D01*
X23323118Y1568406D01*
X23323121Y1568403D01*
X23323123Y1568402D01*
X23374096Y1532710D01*
X23502361Y1442897D01*
X23700668Y1350426D01*
X23700677Y1350422D01*
X23912022Y1293793D01*
X24129998Y1274723D01*
X24130000Y1274723D01*
X24130002Y1274723D01*
X24238988Y1284258D01*
X24347977Y1293793D01*
X24347979Y1293793D01*
X24559322Y1350422D01*
X24559326Y1350424D01*
X24559330Y1350425D01*
X24687812Y1410337D01*
X24757638Y1442897D01*
X24810182Y1479689D01*
X24936877Y1568402D01*
X25091598Y1723123D01*
X25217102Y1902361D01*
X25309575Y2100670D01*
X25366207Y2312023D01*
X25385277Y2530000D01*
X25379153Y2600000D01*
X36665073Y2600000D01*
X36682690Y2477466D01*
X36734115Y2364862D01*
X36734117Y2364859D01*
X36815185Y2271302D01*
X36815187Y2271300D01*
X36919322Y2204376D01*
X36919327Y2204374D01*
X37038100Y2169500D01*
X37122614Y2169500D01*
X37189653Y2149815D01*
X37210295Y2133181D01*
X37515680Y1827797D01*
X37586595Y1756881D01*
X37679253Y1718500D01*
X37679254Y1718500D01*
X39292184Y1718500D01*
X39359223Y1698815D01*
X39385898Y1675701D01*
X39415182Y1641903D01*
X39415183Y1641902D01*
X39519322Y1574976D01*
X39519329Y1574973D01*
X39534615Y1570485D01*
X39593393Y1532710D01*
X39622416Y1469153D01*
X39612471Y1399995D01*
X39566715Y1347192D01*
X39561695Y1344132D01*
X39491631Y1303681D01*
X38446032Y258082D01*
X38393282Y226786D01*
X38389325Y225624D01*
X38389321Y225621D01*
X38389318Y225620D01*
X38285187Y158699D01*
X38285185Y158697D01*
X38285183Y158696D01*
X38218035Y81202D01*
X38204117Y65140D01*
X38204115Y65137D01*
X38152690Y-47466D01*
X38135073Y-170000D01*
X38152690Y-292533D01*
X38189347Y-372799D01*
X38204116Y-405139D01*
X38285183Y-498696D01*
X38285185Y-498697D01*
X38285187Y-498699D01*
X38389322Y-565623D01*
X38389327Y-565625D01*
X38508100Y-600499D01*
X38508102Y-600500D01*
X38508103Y-600500D01*
X38631898Y-600500D01*
X38631898Y-600499D01*
X38750675Y-565624D01*
X38758890Y-560345D01*
X38854812Y-498699D01*
X38854811Y-498699D01*
X38854817Y-498696D01*
X38935884Y-405139D01*
X38935886Y-405133D01*
X38940679Y-397677D01*
X38941577Y-398254D01*
X38959245Y-372802D01*
X39871231Y539181D01*
X39932554Y572666D01*
X39958912Y575500D01*
X46271089Y575500D01*
X46338128Y555815D01*
X46358770Y539181D01*
X46561628Y336322D01*
X46561631Y336320D01*
X46653867Y283066D01*
X46653869Y283065D01*
X46667172Y279500D01*
X46675608Y277240D01*
X46705306Y269282D01*
X46756744Y255500D01*
X46756747Y255500D01*
X46901500Y255500D01*
X46968539Y235815D01*
X47014294Y183011D01*
X47025500Y131500D01*
X47025500Y-1533253D01*
X47048421Y-1618797D01*
X47053067Y-1636133D01*
X47053067Y-1636134D01*
X47086321Y-1693731D01*
X47091728Y-1704219D01*
X47124115Y-1775137D01*
X47124116Y-1775139D01*
X47205183Y-1868696D01*
X47205185Y-1868697D01*
X47205187Y-1868699D01*
X47309322Y-1935623D01*
X47309327Y-1935625D01*
X47428100Y-1970499D01*
X47428102Y-1970500D01*
X47428103Y-1970500D01*
X47551898Y-1970500D01*
X47551898Y-1970499D01*
X47670675Y-1935624D01*
X47774817Y-1868696D01*
X47855884Y-1775139D01*
X47907309Y-1662533D01*
X47924927Y-1540000D01*
X47907309Y-1417467D01*
X47904055Y-1410342D01*
X47855883Y-1304859D01*
X47854181Y-1302211D01*
X47853294Y-1299191D01*
X47852200Y-1296795D01*
X47852544Y-1296637D01*
X47834500Y-1235177D01*
X47834500Y482444D01*
X47845704Y533952D01*
X47847309Y537466D01*
X47850598Y560345D01*
X47864927Y660000D01*
X47847309Y782533D01*
X47795884Y895139D01*
X47714817Y988696D01*
X47610675Y1055624D01*
X47491898Y1090499D01*
X47491898Y1090500D01*
X47491897Y1090500D01*
X47368103Y1090500D01*
X47368102Y1090500D01*
X47332636Y1080086D01*
X47296660Y1069522D01*
X47261727Y1064500D01*
X47028911Y1064500D01*
X46961872Y1084185D01*
X46941230Y1100819D01*
X46902387Y1139662D01*
X46738369Y1303680D01*
X46646131Y1356934D01*
X46543253Y1384500D01*
X40006594Y1384500D01*
X39939555Y1404185D01*
X39893800Y1456989D01*
X39883856Y1526147D01*
X39912881Y1589703D01*
X39939555Y1612815D01*
X39984812Y1641900D01*
X39984814Y1641902D01*
X39984815Y1641903D01*
X39984817Y1641904D01*
X40065884Y1735461D01*
X40117309Y1848067D01*
X40134927Y1970600D01*
X40117309Y2093133D01*
X40102756Y2125000D01*
X57419610Y2125000D01*
X57439068Y1989662D01*
X57439070Y1989654D01*
X57495867Y1865285D01*
X57495870Y1865281D01*
X57568724Y1781202D01*
X57597748Y1717645D01*
X57587804Y1648487D01*
X57568724Y1618798D01*
X57495870Y1534718D01*
X57495867Y1534714D01*
X57439070Y1410345D01*
X57439068Y1410337D01*
X57419610Y1275000D01*
X57439068Y1139662D01*
X57439070Y1139654D01*
X57495867Y1015285D01*
X57495870Y1015281D01*
X57568724Y931202D01*
X57597748Y867645D01*
X57587804Y798487D01*
X57568724Y768798D01*
X57495870Y684718D01*
X57495867Y684714D01*
X57439070Y560345D01*
X57439068Y560337D01*
X57419610Y425000D01*
X57439068Y289662D01*
X57439070Y289654D01*
X57495867Y165285D01*
X57495870Y165281D01*
X57568724Y81202D01*
X57597748Y17645D01*
X57587804Y-51513D01*
X57568724Y-81202D01*
X57495870Y-165281D01*
X57495867Y-165285D01*
X57439070Y-289654D01*
X57439068Y-289662D01*
X57419610Y-425000D01*
X57439068Y-560337D01*
X57439070Y-560345D01*
X57495867Y-684714D01*
X57495870Y-684718D01*
X57568724Y-768798D01*
X57597748Y-832355D01*
X57587804Y-901513D01*
X57568724Y-931202D01*
X57495870Y-1015281D01*
X57495867Y-1015285D01*
X57439070Y-1139654D01*
X57439068Y-1139662D01*
X57419610Y-1275000D01*
X57439068Y-1410337D01*
X57439070Y-1410345D01*
X57495867Y-1534714D01*
X57495870Y-1534718D01*
X57568724Y-1618798D01*
X57597748Y-1682355D01*
X57587804Y-1751513D01*
X57568724Y-1781202D01*
X57495870Y-1865281D01*
X57495867Y-1865285D01*
X57439070Y-1989654D01*
X57439068Y-1989662D01*
X57419610Y-2125000D01*
X57439068Y-2260337D01*
X57439070Y-2260345D01*
X57495867Y-2384714D01*
X57495869Y-2384716D01*
X57495870Y-2384718D01*
X57571470Y-2471966D01*
X57577966Y-2479463D01*
X57580426Y-2484851D01*
X57585410Y-2488054D01*
X57585411Y-2488055D01*
X57586569Y-2488799D01*
X57607208Y-2505432D01*
X57899999Y-2798222D01*
X58192789Y-2505432D01*
X58213430Y-2488799D01*
X58214589Y-2488055D01*
X58214591Y-2488052D01*
X58217261Y-2486336D01*
X58222034Y-2479461D01*
X58304130Y-2384718D01*
X58360931Y-2260342D01*
X58380390Y-2125000D01*
X58360931Y-1989658D01*
X58336255Y-1935625D01*
X58304132Y-1865285D01*
X58304130Y-1865283D01*
X58304130Y-1865282D01*
X58231273Y-1781200D01*
X58202250Y-1717647D01*
X58212194Y-1648489D01*
X58231272Y-1618801D01*
X58304130Y-1534718D01*
X58360931Y-1410342D01*
X58380390Y-1275000D01*
X58360931Y-1139658D01*
X58335453Y-1083870D01*
X58304132Y-1015285D01*
X58304130Y-1015283D01*
X58304130Y-1015282D01*
X58231273Y-931200D01*
X58202250Y-867647D01*
X58212194Y-798489D01*
X58231272Y-768801D01*
X58304130Y-684718D01*
X58360931Y-560342D01*
X58376321Y-453298D01*
X58405346Y-389743D01*
X58464123Y-351968D01*
X58533993Y-351968D01*
X58586740Y-383264D01*
X58794474Y-590997D01*
X58819587Y-627166D01*
X58845869Y-684716D01*
X58845871Y-684719D01*
X58918724Y-768798D01*
X58947748Y-832355D01*
X58937804Y-901513D01*
X58918724Y-931202D01*
X58845870Y-1015281D01*
X58845867Y-1015285D01*
X58789070Y-1139654D01*
X58789068Y-1139662D01*
X58769610Y-1275000D01*
X58789068Y-1410337D01*
X58789070Y-1410345D01*
X58845867Y-1534714D01*
X58845870Y-1534718D01*
X58918724Y-1618798D01*
X58947748Y-1682355D01*
X58937804Y-1751513D01*
X58918724Y-1781202D01*
X58845870Y-1865281D01*
X58845867Y-1865285D01*
X58789070Y-1989654D01*
X58789068Y-1989662D01*
X58769610Y-2125000D01*
X58789068Y-2260337D01*
X58789070Y-2260345D01*
X58845867Y-2384714D01*
X58845869Y-2384716D01*
X58845870Y-2384718D01*
X58921470Y-2471966D01*
X58927966Y-2479463D01*
X58930426Y-2484851D01*
X58935410Y-2488054D01*
X58935411Y-2488055D01*
X58936569Y-2488799D01*
X58957208Y-2505432D01*
X59249999Y-2798222D01*
X59542789Y-2505432D01*
X59563430Y-2488799D01*
X59564589Y-2488055D01*
X59564591Y-2488052D01*
X59567261Y-2486336D01*
X59572034Y-2479461D01*
X59654130Y-2384718D01*
X59710931Y-2260342D01*
X59730390Y-2125000D01*
X59710931Y-1989658D01*
X59686255Y-1935625D01*
X59654132Y-1865285D01*
X59654130Y-1865283D01*
X59654130Y-1865282D01*
X59581273Y-1781200D01*
X59552250Y-1717647D01*
X59562194Y-1648489D01*
X59581272Y-1618801D01*
X59654130Y-1534718D01*
X59710931Y-1410342D01*
X59730390Y-1275000D01*
X59710931Y-1139658D01*
X59685453Y-1083870D01*
X59654132Y-1015285D01*
X59654130Y-1015283D01*
X59654130Y-1015282D01*
X59581273Y-931200D01*
X59552250Y-867647D01*
X59562194Y-798489D01*
X59581272Y-768801D01*
X59654130Y-684718D01*
X59710931Y-560342D01*
X59730390Y-425000D01*
X59710931Y-289658D01*
X59656285Y-170000D01*
X59654132Y-165285D01*
X59654130Y-165283D01*
X59654130Y-165282D01*
X59581273Y-81200D01*
X59552250Y-17647D01*
X59562194Y51511D01*
X59581272Y81198D01*
X59654130Y165282D01*
X59654130Y165283D01*
X59654132Y165285D01*
X59707920Y283065D01*
X59710931Y289658D01*
X59730390Y425000D01*
X59710931Y560342D01*
X59654130Y684718D01*
X59581273Y768799D01*
X59552250Y832353D01*
X59562194Y901511D01*
X59581272Y931198D01*
X59654130Y1015282D01*
X59654130Y1015283D01*
X59654132Y1015285D01*
X59710929Y1139654D01*
X59710931Y1139658D01*
X59730390Y1275000D01*
X59710931Y1410342D01*
X59654130Y1534718D01*
X59581273Y1618799D01*
X59552250Y1682353D01*
X59562194Y1751511D01*
X59581272Y1781198D01*
X59654130Y1865282D01*
X59654130Y1865283D01*
X59654132Y1865285D01*
X59710929Y1989654D01*
X59710931Y1989658D01*
X59730390Y2125000D01*
X59710931Y2260342D01*
X59654130Y2384718D01*
X59572037Y2479458D01*
X59569575Y2484849D01*
X59564591Y2488052D01*
X59564589Y2488055D01*
X59563430Y2488799D01*
X59542789Y2505432D01*
X59250000Y2798223D01*
X58957208Y2505432D01*
X58936570Y2488799D01*
X58935411Y2488055D01*
X58932738Y2486337D01*
X58927966Y2479463D01*
X58926236Y2477466D01*
X58845870Y2384718D01*
X58845870Y2384717D01*
X58845867Y2384714D01*
X58789070Y2260345D01*
X58789068Y2260337D01*
X58769610Y2125000D01*
X58789068Y1989662D01*
X58789070Y1989654D01*
X58845867Y1865285D01*
X58845870Y1865281D01*
X58918724Y1781202D01*
X58947748Y1717645D01*
X58937804Y1648487D01*
X58918724Y1618798D01*
X58845870Y1534718D01*
X58845867Y1534714D01*
X58789070Y1410345D01*
X58789068Y1410337D01*
X58769610Y1275000D01*
X58789068Y1139662D01*
X58789070Y1139654D01*
X58845867Y1015285D01*
X58845870Y1015281D01*
X58918724Y931202D01*
X58947748Y867645D01*
X58937804Y798487D01*
X58918724Y768798D01*
X58845870Y684718D01*
X58845867Y684714D01*
X58789070Y560345D01*
X58789068Y560337D01*
X58769907Y427068D01*
X58740882Y363512D01*
X58682104Y325738D01*
X58612234Y325738D01*
X58559489Y357033D01*
X58380741Y535780D01*
X58355631Y571947D01*
X58354008Y575500D01*
X58332774Y621995D01*
X58304132Y684714D01*
X58304131Y684714D01*
X58304130Y684718D01*
X58231273Y768799D01*
X58202250Y832353D01*
X58212194Y901511D01*
X58231272Y931198D01*
X58304130Y1015282D01*
X58304130Y1015283D01*
X58304132Y1015285D01*
X58360929Y1139654D01*
X58360931Y1139658D01*
X58380390Y1275000D01*
X58360931Y1410342D01*
X58304130Y1534718D01*
X58231273Y1618799D01*
X58202250Y1682353D01*
X58212194Y1751511D01*
X58231272Y1781198D01*
X58304130Y1865282D01*
X58304130Y1865283D01*
X58304132Y1865285D01*
X58360929Y1989654D01*
X58360931Y1989658D01*
X58380390Y2125000D01*
X58360931Y2260342D01*
X58304130Y2384718D01*
X58222037Y2479458D01*
X58219575Y2484849D01*
X58214591Y2488052D01*
X58214589Y2488055D01*
X58213430Y2488799D01*
X58192789Y2505432D01*
X57900000Y2798223D01*
X57607208Y2505432D01*
X57586570Y2488799D01*
X57585411Y2488055D01*
X57582738Y2486337D01*
X57577966Y2479463D01*
X57576236Y2477466D01*
X57495870Y2384718D01*
X57495870Y2384717D01*
X57495867Y2384714D01*
X57439070Y2260345D01*
X57439068Y2260337D01*
X57419610Y2125000D01*
X40102756Y2125000D01*
X40065884Y2205739D01*
X39984817Y2299296D01*
X39882796Y2364861D01*
X39880677Y2366223D01*
X39880672Y2366225D01*
X39817703Y2384714D01*
X39761898Y2401099D01*
X39761898Y2401100D01*
X39761897Y2401100D01*
X39638103Y2401100D01*
X39638102Y2401100D01*
X39638100Y2401099D01*
X39519327Y2366225D01*
X39519322Y2366223D01*
X39415183Y2299297D01*
X39415182Y2299296D01*
X39385898Y2265499D01*
X39327121Y2227724D01*
X39292184Y2222700D01*
X37885185Y2222700D01*
X37818146Y2242385D01*
X37797508Y2259014D01*
X37568958Y2487563D01*
X37535476Y2548882D01*
X37533905Y2592891D01*
X37534927Y2599998D01*
X37534927Y2599999D01*
X37525591Y2664928D01*
X37517309Y2722533D01*
X37465884Y2835139D01*
X37384817Y2928696D01*
X37312767Y2975000D01*
X57320038Y2975000D01*
X57320038Y2974999D01*
X57339800Y2824895D01*
X57339801Y2824891D01*
X57397736Y2685021D01*
X57413153Y2664928D01*
X57415855Y2664751D01*
X57417900Y2669228D01*
X57423933Y2675709D01*
X57723223Y2975000D01*
X57723223Y2975001D01*
X57688414Y3009810D01*
X57725000Y3009810D01*
X57725000Y2940190D01*
X57751643Y2875871D01*
X57800871Y2826643D01*
X57865190Y2800000D01*
X57934810Y2800000D01*
X57999129Y2826643D01*
X58048357Y2875871D01*
X58075000Y2940190D01*
X58075000Y2975000D01*
X58076776Y2975000D01*
X58376063Y2675711D01*
X58381760Y2665276D01*
X58382792Y2664974D01*
X58383147Y2664687D01*
X58386845Y2664929D01*
X58402263Y2685022D01*
X58402264Y2685023D01*
X58460439Y2825471D01*
X58504279Y2879875D01*
X58570574Y2901940D01*
X58638273Y2884661D01*
X58685884Y2833524D01*
X58689561Y2825471D01*
X58747736Y2685021D01*
X58763153Y2664928D01*
X58765855Y2664751D01*
X58767900Y2669228D01*
X58773933Y2675709D01*
X59073223Y2975000D01*
X59073223Y2975001D01*
X59038414Y3009810D01*
X59075000Y3009810D01*
X59075000Y2940190D01*
X59101643Y2875871D01*
X59150871Y2826643D01*
X59215190Y2800000D01*
X59284810Y2800000D01*
X59349129Y2826643D01*
X59398357Y2875871D01*
X59425000Y2940190D01*
X59425000Y2975000D01*
X59426776Y2975000D01*
X59726063Y2675711D01*
X59731760Y2665276D01*
X59732792Y2664974D01*
X59733147Y2664687D01*
X59736845Y2664929D01*
X59752263Y2685022D01*
X59752264Y2685023D01*
X59810198Y2824891D01*
X59810199Y2824895D01*
X59829962Y2974999D01*
X59829962Y2975000D01*
X59810199Y3125104D01*
X59810198Y3125108D01*
X59752265Y3264974D01*
X59752260Y3264983D01*
X59736846Y3285069D01*
X59736845Y3285069D01*
X59426776Y2975000D01*
X59425000Y2975000D01*
X59425000Y3009810D01*
X59398357Y3074129D01*
X59349129Y3123357D01*
X59284810Y3150000D01*
X59215190Y3150000D01*
X59150871Y3123357D01*
X59101643Y3074129D01*
X59075000Y3009810D01*
X59038414Y3009810D01*
X58763154Y3285069D01*
X58763153Y3285069D01*
X58747736Y3264978D01*
X58689561Y3124528D01*
X58645721Y3070124D01*
X58579426Y3048059D01*
X58511727Y3065338D01*
X58464116Y3116475D01*
X58460439Y3124528D01*
X58402265Y3264974D01*
X58402260Y3264983D01*
X58386846Y3285069D01*
X58386845Y3285069D01*
X58076776Y2975000D01*
X58075000Y2975000D01*
X58075000Y3009810D01*
X58048357Y3074129D01*
X57999129Y3123357D01*
X57934810Y3150000D01*
X57865190Y3150000D01*
X57800871Y3123357D01*
X57751643Y3074129D01*
X57725000Y3009810D01*
X57688414Y3009810D01*
X57413154Y3285069D01*
X57413153Y3285069D01*
X57397736Y3264978D01*
X57339801Y3125108D01*
X57339800Y3125104D01*
X57320038Y2975000D01*
X37312767Y2975000D01*
X37280675Y2995624D01*
X37161898Y3030499D01*
X37161898Y3030500D01*
X37161897Y3030500D01*
X37038103Y3030500D01*
X37038102Y3030500D01*
X37038100Y3030499D01*
X36919327Y2995625D01*
X36919322Y2995623D01*
X36815187Y2928699D01*
X36815185Y2928697D01*
X36815183Y2928696D01*
X36737895Y2839500D01*
X36734117Y2835140D01*
X36734115Y2835137D01*
X36682690Y2722533D01*
X36665073Y2600000D01*
X25379153Y2600000D01*
X25366207Y2747977D01*
X25309575Y2959330D01*
X25217102Y3157638D01*
X25091598Y3336877D01*
X24936877Y3491598D01*
X24757639Y3617102D01*
X24559330Y3709575D01*
X24347977Y3766207D01*
X24162462Y3782437D01*
X24130002Y3785277D01*
X24129998Y3785277D01*
X24099787Y3782633D01*
X23912023Y3766207D01*
X23819084Y3741304D01*
X23707418Y3711383D01*
X23700670Y3709575D01*
X23502362Y3617102D01*
X23502361Y3617101D01*
X23502357Y3617099D01*
X23323121Y3491597D01*
X23168402Y3336878D01*
X23042900Y3157642D01*
X23042898Y3157638D01*
X22950425Y2959330D01*
X22950424Y2959326D01*
X22950422Y2959322D01*
X22893793Y2747979D01*
X22893793Y2747977D01*
X22889596Y2700000D01*
X22874723Y2530002D01*
X13002100Y2530002D01*
X13002100Y3810144D01*
X13002100Y3810146D01*
X12991863Y3834861D01*
X12963721Y3902803D01*
X11239203Y5627319D01*
X11205719Y5688642D01*
X11210703Y5758334D01*
X11239204Y5802681D01*
X12158442Y6721919D01*
X12219765Y6755404D01*
X12289457Y6750420D01*
X12304571Y6743599D01*
X12334496Y6727605D01*
X12334502Y6727602D01*
X12513666Y6673253D01*
X12513668Y6673252D01*
X12700000Y6654901D01*
X12886331Y6673252D01*
X12886333Y6673253D01*
X13065502Y6727604D01*
X13230623Y6815862D01*
X13230626Y6815864D01*
X13375357Y6934642D01*
X13465878Y7044943D01*
X13494136Y7079375D01*
X13499061Y7088589D01*
X13548024Y7138433D01*
X13616162Y7153893D01*
X13681841Y7130061D01*
X13722979Y7077589D01*
X13756278Y6997199D01*
X13756281Y6997195D01*
X15252195Y5501281D01*
X15344853Y5462900D01*
X15344854Y5462900D01*
X27899215Y5462900D01*
X27966254Y5443215D01*
X27986896Y5426581D01*
X30031038Y3382437D01*
X30064523Y3321114D01*
X30066095Y3277112D01*
X30065073Y3270002D01*
X30065073Y3270000D01*
X30082690Y3147466D01*
X30134115Y3034862D01*
X30134117Y3034859D01*
X30185985Y2975001D01*
X30199570Y2959322D01*
X30215185Y2941302D01*
X30215187Y2941300D01*
X30319322Y2874376D01*
X30319327Y2874374D01*
X30438100Y2839500D01*
X30438103Y2839500D01*
X30561899Y2839500D01*
X30680672Y2874374D01*
X30680677Y2874376D01*
X30784812Y2941300D01*
X30784814Y2941302D01*
X30784817Y2941304D01*
X30865884Y3034861D01*
X30903156Y3116475D01*
X30917309Y3147466D01*
X30919523Y3162869D01*
X30934927Y3270000D01*
X30917309Y3392533D01*
X30865884Y3505139D01*
X30784817Y3598696D01*
X30784814Y3598697D01*
X30783394Y3600337D01*
X30754368Y3663892D01*
X30764311Y3733051D01*
X30783390Y3762739D01*
X30845884Y3834861D01*
X30897309Y3947467D01*
X30914927Y4070000D01*
X30897309Y4192533D01*
X30845884Y4305139D01*
X30764817Y4398696D01*
X30756477Y4404056D01*
X57529500Y4404056D01*
X57529500Y4245943D01*
X57570423Y4093216D01*
X57570426Y4093209D01*
X57649475Y3956290D01*
X57649481Y3956282D01*
X57761282Y3844481D01*
X57761287Y3844477D01*
X57879036Y3776496D01*
X57927251Y3725929D01*
X57940475Y3657322D01*
X57914507Y3592458D01*
X57857593Y3551929D01*
X57833221Y3546170D01*
X57749896Y3535200D01*
X57749891Y3535198D01*
X57610023Y3477264D01*
X57610022Y3477263D01*
X57589929Y3461845D01*
X57900000Y3151777D01*
X58210069Y3461844D01*
X58210069Y3461846D01*
X58189983Y3477260D01*
X58189974Y3477265D01*
X58169034Y3485939D01*
X58114630Y3529779D01*
X58092565Y3596073D01*
X58109844Y3663773D01*
X58160981Y3711383D01*
X58216486Y3724500D01*
X58933514Y3724500D01*
X59000553Y3704815D01*
X59046308Y3652011D01*
X59056252Y3582853D01*
X59027227Y3519297D01*
X58980966Y3485939D01*
X58960023Y3477264D01*
X58960022Y3477263D01*
X58939929Y3461845D01*
X59250000Y3151777D01*
X59560069Y3461844D01*
X59560069Y3461846D01*
X59539983Y3477260D01*
X59539974Y3477265D01*
X59519034Y3485939D01*
X59464630Y3529779D01*
X59442565Y3596073D01*
X59459844Y3663773D01*
X59510981Y3711383D01*
X59566486Y3724500D01*
X59709056Y3724500D01*
X59709057Y3724500D01*
X59861784Y3765423D01*
X59861786Y3765424D01*
X59861790Y3765426D01*
X59998709Y3844475D01*
X59998717Y3844481D01*
X60110518Y3956282D01*
X60110524Y3956290D01*
X60189573Y4093209D01*
X60189577Y4093216D01*
X60230500Y4245943D01*
X60230500Y4404056D01*
X61259500Y4404056D01*
X61259500Y4245943D01*
X61300423Y4093216D01*
X61300426Y4093209D01*
X61379475Y3956290D01*
X61379481Y3956282D01*
X61491282Y3844481D01*
X61491290Y3844475D01*
X61628209Y3765426D01*
X61628216Y3765423D01*
X61780943Y3724500D01*
X62739056Y3724500D01*
X62739057Y3724500D01*
X62891784Y3765423D01*
X62891786Y3765424D01*
X62891790Y3765426D01*
X63028709Y3844475D01*
X63028717Y3844481D01*
X63140518Y3956282D01*
X63140524Y3956290D01*
X63219573Y4093209D01*
X63219577Y4093216D01*
X63260500Y4245943D01*
X63260500Y4404057D01*
X63219577Y4556784D01*
X63140520Y4693716D01*
X63028716Y4805520D01*
X62891784Y4884577D01*
X62739057Y4925500D01*
X61780943Y4925500D01*
X61628216Y4884577D01*
X61628209Y4884573D01*
X61491290Y4805524D01*
X61491286Y4805521D01*
X61491284Y4805520D01*
X61491282Y4805518D01*
X61379481Y4693717D01*
X61379475Y4693709D01*
X61300426Y4556790D01*
X61300423Y4556783D01*
X61259500Y4404056D01*
X60230500Y4404056D01*
X60230500Y4404057D01*
X60189577Y4556784D01*
X60110520Y4693716D01*
X59998716Y4805520D01*
X59861784Y4884577D01*
X59709057Y4925500D01*
X58050943Y4925500D01*
X57898216Y4884577D01*
X57898209Y4884573D01*
X57761290Y4805524D01*
X57761286Y4805521D01*
X57761284Y4805520D01*
X57761282Y4805518D01*
X57649481Y4693717D01*
X57649475Y4693709D01*
X57570426Y4556790D01*
X57570423Y4556783D01*
X57529500Y4404056D01*
X30756477Y4404056D01*
X30666698Y4461752D01*
X30620946Y4514554D01*
X30611002Y4583712D01*
X30640026Y4647268D01*
X30666701Y4670382D01*
X30702999Y4693709D01*
X30714817Y4701304D01*
X30795884Y4794861D01*
X30836856Y4884577D01*
X30841772Y4895342D01*
X30887526Y4948146D01*
X30954566Y4967831D01*
X31021605Y4948147D01*
X31067360Y4895344D01*
X31073285Y4882371D01*
X31104116Y4814861D01*
X31104117Y4814860D01*
X31104117Y4814859D01*
X31185185Y4721302D01*
X31185187Y4721300D01*
X31289322Y4654376D01*
X31289327Y4654374D01*
X31408100Y4619500D01*
X31408103Y4619500D01*
X31531899Y4619500D01*
X31650672Y4654374D01*
X31650677Y4654376D01*
X31754812Y4721300D01*
X31754814Y4721302D01*
X31754817Y4721304D01*
X31835884Y4814861D01*
X31872639Y4895344D01*
X31887309Y4927466D01*
X31889523Y4942869D01*
X31904927Y5050000D01*
X31887309Y5172533D01*
X31835884Y5285139D01*
X31825252Y5297408D01*
X31812005Y5312698D01*
X31782980Y5376254D01*
X31792924Y5445412D01*
X31838679Y5498216D01*
X31905718Y5517900D01*
X34672184Y5517900D01*
X34739223Y5498215D01*
X34765898Y5475101D01*
X34795182Y5441303D01*
X34795183Y5441302D01*
X34899322Y5374376D01*
X34899327Y5374374D01*
X35018100Y5339500D01*
X35018103Y5339500D01*
X35141899Y5339500D01*
X35260672Y5374374D01*
X35260677Y5374376D01*
X35364812Y5441300D01*
X35364814Y5441302D01*
X35364815Y5441303D01*
X35364817Y5441304D01*
X35445884Y5534861D01*
X35497309Y5647467D01*
X35514927Y5770000D01*
X35504804Y5840401D01*
X35514747Y5909556D01*
X35560501Y5962361D01*
X35627540Y5982046D01*
X35662473Y5977024D01*
X35688099Y5969500D01*
X35688103Y5969500D01*
X35811899Y5969500D01*
X35930672Y6004374D01*
X35930677Y6004376D01*
X36034812Y6071300D01*
X36034814Y6071302D01*
X36034817Y6071304D01*
X36115884Y6164861D01*
X36167309Y6277467D01*
X36184927Y6400000D01*
X36167309Y6522533D01*
X36115884Y6635139D01*
X36034817Y6728696D01*
X35930675Y6795624D01*
X35811898Y6830499D01*
X35811898Y6830500D01*
X35811897Y6830500D01*
X35688103Y6830500D01*
X35688102Y6830500D01*
X35688100Y6830499D01*
X35569327Y6795625D01*
X35569322Y6795623D01*
X35465183Y6728697D01*
X35465182Y6728696D01*
X35435898Y6694899D01*
X35377121Y6657124D01*
X35342184Y6652100D01*
X32095785Y6652100D01*
X32028746Y6671785D01*
X32008104Y6688419D01*
X30824423Y7872100D01*
X29592803Y9103720D01*
X29500146Y9142100D01*
X29500145Y9142100D01*
X21351409Y9142100D01*
X21284370Y9161785D01*
X21238615Y9214589D01*
X21228671Y9283747D01*
X21257696Y9347303D01*
X21311815Y9383609D01*
X21598862Y9480327D01*
X21938374Y9637402D01*
X21938387Y9637409D01*
X22258918Y9830265D01*
X22258934Y9830276D01*
X22556753Y10056671D01*
X22556763Y10056679D01*
X22669629Y10163592D01*
X22669629Y10163593D01*
X21362982Y11470240D01*
X21539758Y11647016D01*
X22848782Y10337991D01*
X22848783Y10337992D01*
X23070548Y10599074D01*
X23070555Y10599084D01*
X23280498Y10908726D01*
X23455729Y11239246D01*
X23455738Y11239264D01*
X23594206Y11586795D01*
X23594208Y11586802D01*
X23694285Y11947249D01*
X23694291Y11947275D01*
X23754811Y12316427D01*
X23754813Y12316444D01*
X23775067Y12690000D01*
X23775067Y12690002D01*
X23754813Y13063555D01*
X23754811Y13063572D01*
X23694291Y13432724D01*
X23694285Y13432750D01*
X23594208Y13793197D01*
X23594206Y13793204D01*
X23455738Y14140735D01*
X23455729Y14140753D01*
X23280498Y14471273D01*
X23070555Y14780916D01*
X22848783Y15042006D01*
X22848782Y15042007D01*
X21539758Y13732983D01*
X21362982Y13909759D01*
X22669629Y15216405D01*
X22556758Y15323324D01*
X22258934Y15549723D01*
X22258918Y15549734D01*
X21938387Y15742590D01*
X21938374Y15742597D01*
X21598862Y15899672D01*
X21244327Y16019130D01*
X20878966Y16099552D01*
X20507055Y16139999D01*
X20507048Y16140000D01*
X20132952Y16140000D01*
X20132944Y16139999D01*
X19761033Y16099552D01*
X19395672Y16019130D01*
X19041137Y15899672D01*
X18701625Y15742597D01*
X18701612Y15742590D01*
X18381081Y15549734D01*
X18381065Y15549723D01*
X18083246Y15323328D01*
X18083237Y15323320D01*
X17970369Y15216406D01*
X17970369Y15216405D01*
X19277016Y13909758D01*
X19100240Y13732982D01*
X17791216Y15042007D01*
X17791215Y15042006D01*
X17569451Y14780925D01*
X17569444Y14780915D01*
X17359501Y14471273D01*
X17184270Y14140753D01*
X17184261Y14140735D01*
X17045793Y13793204D01*
X17045791Y13793197D01*
X16945714Y13432750D01*
X16945708Y13432724D01*
X16885188Y13063572D01*
X16885186Y13063555D01*
X16864933Y12690002D01*
X16864933Y12690000D01*
X16885186Y12316444D01*
X16885188Y12316427D01*
X16945708Y11947275D01*
X16945714Y11947249D01*
X17045791Y11586802D01*
X17045793Y11586795D01*
X17184261Y11239264D01*
X17184267Y11239253D01*
X17222630Y11166892D01*
X17236640Y11098441D01*
X17211418Y11033283D01*
X17154974Y10992103D01*
X17085226Y10987978D01*
X17025395Y11021127D01*
X13862803Y14183720D01*
X13770146Y14222100D01*
X13770145Y14222100D01*
X13407816Y14222100D01*
X13340777Y14241785D01*
X13314102Y14264899D01*
X13284817Y14298696D01*
X13284816Y14298697D01*
X13180677Y14365623D01*
X13180672Y14365625D01*
X13154069Y14373435D01*
X13061898Y14400499D01*
X13061898Y14400500D01*
X13061897Y14400500D01*
X12938103Y14400500D01*
X12938102Y14400500D01*
X12938100Y14400499D01*
X12819327Y14365625D01*
X12819322Y14365623D01*
X12715187Y14298699D01*
X12715185Y14298697D01*
X12715183Y14298696D01*
X12665870Y14241785D01*
X12634117Y14205140D01*
X12634115Y14205137D01*
X12582690Y14092533D01*
X12565073Y13970000D01*
X12582690Y13847466D01*
X12634115Y13734862D01*
X12634117Y13734859D01*
X12715185Y13641302D01*
X12715187Y13641300D01*
X12819322Y13574376D01*
X12819327Y13574374D01*
X12938100Y13539500D01*
X12938103Y13539500D01*
X13061899Y13539500D01*
X13180672Y13574374D01*
X13180677Y13574376D01*
X13284816Y13641302D01*
X13284817Y13641303D01*
X13314102Y13675101D01*
X13372879Y13712876D01*
X13407816Y13717900D01*
X13564215Y13717900D01*
X13631254Y13698215D01*
X13651896Y13681581D01*
X14309696Y13023781D01*
X14343181Y12962458D01*
X14338197Y12892766D01*
X14296325Y12836833D01*
X14230861Y12812416D01*
X14222015Y12812100D01*
X295785Y12812100D01*
X228746Y12831785D01*
X208104Y12848419D01*
X-801038Y13857561D01*
X-834523Y13918884D01*
X-836096Y13962883D01*
X-835073Y13969999D01*
X-852690Y14092533D01*
X-904115Y14205137D01*
X-904117Y14205140D01*
X-935870Y14241785D01*
X-985183Y14298696D01*
X-985185Y14298697D01*
X-985187Y14298699D01*
X-1089322Y14365623D01*
X-1089327Y14365625D01*
X-1208100Y14400499D01*
X-1208102Y14400500D01*
X-1208103Y14400500D01*
X-1331897Y14400500D01*
X-1331898Y14400500D01*
X-1331898Y14400499D01*
X-1450675Y14365624D01*
X-1554817Y14298696D01*
X-1635884Y14205139D01*
X-1687309Y14092533D01*
X-1704927Y13970000D01*
X-1687309Y13847467D01*
X-1635884Y13734861D01*
X-1554817Y13641304D01*
X-1554815Y13641303D01*
X-1554814Y13641302D01*
X-1554812Y13641300D01*
X-1450677Y13574376D01*
X-1450672Y13574374D01*
X-1331899Y13539500D01*
X-1247385Y13539500D01*
X-1180346Y13519815D01*
X-1159704Y13503181D01*
X-70304Y12413781D01*
X-36819Y12352458D01*
X-41803Y12282766D01*
X-83675Y12226833D01*
X-149139Y12202416D01*
X-157985Y12202100D01*
X-10524215Y12202100D01*
X-10591254Y12221785D01*
X-10611896Y12238419D01*
X-12231038Y13857561D01*
X-12264523Y13918884D01*
X-12266096Y13962883D01*
X-12265073Y13969999D01*
X-12282690Y14092533D01*
X-12334115Y14205137D01*
X-12334117Y14205140D01*
X-12365870Y14241785D01*
X-12415183Y14298696D01*
X-12415185Y14298697D01*
X-12415187Y14298699D01*
X-12519322Y14365623D01*
X-12519327Y14365625D01*
X-12638100Y14400499D01*
X-12638102Y14400500D01*
X-12638103Y14400500D01*
X-12761897Y14400500D01*
X-12761898Y14400500D01*
X-12761898Y14400499D01*
X-12880675Y14365624D01*
X-12984817Y14298696D01*
X-13065884Y14205139D01*
X-13117309Y14092533D01*
X-13134927Y13970000D01*
X-13117309Y13847467D01*
X-13065884Y13734861D01*
X-12984817Y13641304D01*
X-12984815Y13641303D01*
X-12984814Y13641302D01*
X-12984812Y13641300D01*
X-12880677Y13574376D01*
X-12880672Y13574374D01*
X-12761899Y13539500D01*
X-12677385Y13539500D01*
X-12610346Y13519815D01*
X-12589704Y13503181D01*
X-10893720Y11807197D01*
X-10822803Y11736280D01*
X-10760952Y11710660D01*
X-10706550Y11666819D01*
X-10684486Y11600525D01*
X-10701766Y11532826D01*
X-10752903Y11485216D01*
X-10808407Y11472100D01*
X-23764215Y11472100D01*
X-23831254Y11491785D01*
X-23851896Y11508419D01*
X-26201038Y13857561D01*
X-26234523Y13918884D01*
X-26236096Y13962883D01*
X-26235073Y13969999D01*
X-26252690Y14092533D01*
X-26304115Y14205137D01*
X-26304117Y14205140D01*
X-26335870Y14241785D01*
X-26385183Y14298696D01*
X-26385185Y14298697D01*
X-26385187Y14298699D01*
X-26489322Y14365623D01*
X-26489327Y14365625D01*
X-26608100Y14400499D01*
X-26608102Y14400500D01*
X-26608103Y14400500D01*
X-26731897Y14400500D01*
X-26731898Y14400500D01*
X-26731898Y14400499D01*
X-26850675Y14365624D01*
X-26954817Y14298696D01*
X-27035884Y14205139D01*
X-27087309Y14092533D01*
X-27104927Y13970000D01*
X-27087309Y13847467D01*
X-27035884Y13734861D01*
X-26954817Y13641304D01*
X-26954815Y13641303D01*
X-26954814Y13641302D01*
X-26954812Y13641300D01*
X-26850677Y13574376D01*
X-26850672Y13574374D01*
X-26731899Y13539500D01*
X-26647385Y13539500D01*
X-26580346Y13519815D01*
X-26559704Y13503181D01*
X-24100304Y11043781D01*
X-24066819Y10982458D01*
X-24071803Y10912766D01*
X-24113675Y10856833D01*
X-24179139Y10832416D01*
X-24187985Y10832100D01*
X-34554215Y10832100D01*
X-34621254Y10851785D01*
X-34641896Y10868419D01*
X-37631038Y13857561D01*
X-37664523Y13918884D01*
X-37666096Y13962883D01*
X-37665073Y13969999D01*
X-37682690Y14092533D01*
X-37734115Y14205137D01*
X-37734117Y14205140D01*
X-37765870Y14241785D01*
X-37815183Y14298696D01*
X-37815185Y14298697D01*
X-37815187Y14298699D01*
X-37919322Y14365623D01*
X-37919327Y14365625D01*
X-38038100Y14400499D01*
X-38038102Y14400500D01*
X-38038103Y14400500D01*
X-38161897Y14400500D01*
X-38161898Y14400500D01*
X-38161898Y14400499D01*
X-38280675Y14365624D01*
X-38384817Y14298696D01*
X-38465884Y14205139D01*
X-38517309Y14092533D01*
X-38534927Y13970000D01*
X-38517309Y13847467D01*
X-38465884Y13734861D01*
X-38384817Y13641304D01*
X-38384815Y13641303D01*
X-38384814Y13641302D01*
X-38384812Y13641300D01*
X-38280677Y13574376D01*
X-38280672Y13574374D01*
X-38161899Y13539500D01*
X-38077385Y13539500D01*
X-38010346Y13519815D01*
X-37989704Y13503181D01*
X-34923720Y10437197D01*
X-34852803Y10366280D01*
X-34815094Y10350660D01*
X-34760691Y10306820D01*
X-34738627Y10240525D01*
X-34755907Y10172826D01*
X-34807044Y10125216D01*
X-34862548Y10112100D01*
X-47804215Y10112100D01*
X-47871254Y10131785D01*
X-47891896Y10148419D01*
X-51601038Y13857561D01*
X-51634523Y13918884D01*
X-51636096Y13962883D01*
X-51635073Y13969999D01*
X-51652690Y14092533D01*
X-51704115Y14205137D01*
X-51704117Y14205140D01*
X-51735870Y14241785D01*
X-51785183Y14298696D01*
X-51785185Y14298697D01*
X-51785187Y14298699D01*
X-51889322Y14365623D01*
X-51889327Y14365625D01*
X-52008100Y14400499D01*
X-52008102Y14400500D01*
X-52008103Y14400500D01*
X-52131897Y14400500D01*
X-52131898Y14400500D01*
X-52131898Y14400499D01*
X-52250675Y14365624D01*
X-52354817Y14298696D01*
X-52435884Y14205139D01*
X-52487309Y14092533D01*
X-52504927Y13970000D01*
X-52487309Y13847467D01*
X-52435884Y13734861D01*
X-52354817Y13641304D01*
X-52354815Y13641303D01*
X-52354814Y13641302D01*
X-52354812Y13641300D01*
X-52250677Y13574376D01*
X-52250672Y13574374D01*
X-52131899Y13539500D01*
X-52047385Y13539500D01*
X-51980346Y13519815D01*
X-51959704Y13503181D01*
X-48180304Y9723781D01*
X-48146819Y9662458D01*
X-48151803Y9592766D01*
X-48193675Y9536833D01*
X-48259139Y9512416D01*
X-48267985Y9512100D01*
X-54179854Y9512100D01*
X-54280146Y9512100D01*
X-54372803Y9473720D01*
X-55344961Y8501560D01*
X-55406282Y8468077D01*
X-55475973Y8473061D01*
X-55491085Y8479881D01*
X-55514499Y8492396D01*
X-55693666Y8546746D01*
X-55693668Y8546747D01*
X-55880000Y8565099D01*
X-56066331Y8546747D01*
X-56245501Y8492396D01*
X-56410625Y8404136D01*
X-56555357Y8285357D01*
X-56674136Y8140625D01*
X-56762396Y7975501D01*
X-56816747Y7796331D01*
X-56835099Y7610000D01*
X-65840062Y7610000D01*
X-65725793Y7896795D01*
X-65725791Y7896802D01*
X-65625714Y8257249D01*
X-65625708Y8257275D01*
X-65565188Y8626427D01*
X-65565186Y8626444D01*
X-65544933Y8999997D01*
X-65544933Y9000002D01*
X-65565186Y9373555D01*
X-65565188Y9373572D01*
X-65625708Y9742724D01*
X-65625714Y9742750D01*
X-65725791Y10103197D01*
X-65725793Y10103204D01*
X-65864261Y10450735D01*
X-65864270Y10450753D01*
X-66039501Y10781273D01*
X-66249444Y11090915D01*
X-66249451Y11090925D01*
X-66471215Y11352006D01*
X-66471216Y11352007D01*
X-67780240Y10042982D01*
X-67957016Y10219758D01*
X-66650369Y11526405D01*
X-66650369Y11526406D01*
X-66763237Y11633320D01*
X-66763246Y11633328D01*
X-67061065Y11859723D01*
X-67061081Y11859734D01*
X-67381612Y12052590D01*
X-67381625Y12052597D01*
X-67721137Y12209672D01*
X-68075672Y12329130D01*
X-68441033Y12409552D01*
X-68812944Y12449999D01*
X-68812952Y12450000D01*
X-69187048Y12450000D01*
X-69187055Y12449999D01*
X-69558966Y12409552D01*
X-69924327Y12329130D01*
X-70278862Y12209672D01*
X-70618374Y12052597D01*
X-70618387Y12052590D01*
X-70938918Y11859734D01*
X-70938934Y11859723D01*
X-71236758Y11633324D01*
X-71349629Y11526405D01*
X-70042982Y10219759D01*
X-70219758Y10042983D01*
X-71528782Y11352007D01*
X-71528783Y11352006D01*
X-71750555Y11090916D01*
X-71960498Y10781273D01*
X-72135729Y10450753D01*
X-72135738Y10450735D01*
X-72274206Y10103204D01*
X-72274208Y10103197D01*
X-72374285Y9742750D01*
X-72374291Y9742724D01*
X-72434811Y9373572D01*
X-72434813Y9373555D01*
X-72455067Y9000002D01*
X-73699500Y9000002D01*
X-73699500Y12690002D01*
X-64415067Y12690002D01*
X-64415067Y12690000D01*
X-64394813Y12316444D01*
X-64394811Y12316427D01*
X-64334291Y11947275D01*
X-64334285Y11947249D01*
X-64234208Y11586802D01*
X-64234206Y11586795D01*
X-64095738Y11239264D01*
X-64095729Y11239246D01*
X-63920498Y10908726D01*
X-63710555Y10599084D01*
X-63710548Y10599074D01*
X-63488783Y10337992D01*
X-63488782Y10337991D01*
X-62179758Y11647016D01*
X-62002982Y11470240D01*
X-63309629Y10163593D01*
X-63309629Y10163592D01*
X-63196763Y10056679D01*
X-63196753Y10056671D01*
X-62898934Y9830276D01*
X-62898918Y9830265D01*
X-62578387Y9637409D01*
X-62578374Y9637402D01*
X-62238862Y9480327D01*
X-61884327Y9360869D01*
X-61518966Y9280447D01*
X-61147055Y9240000D01*
X-60772944Y9240000D01*
X-60401033Y9280447D01*
X-60035672Y9360869D01*
X-59681137Y9480327D01*
X-59341625Y9637402D01*
X-59341612Y9637409D01*
X-59021081Y9830265D01*
X-59021065Y9830276D01*
X-58723236Y10056678D01*
X-58723235Y10056679D01*
X-58610369Y10163592D01*
X-58610368Y10163593D01*
X-59917017Y11470240D01*
X-59740240Y11647017D01*
X-58431216Y10337991D01*
X-58431215Y10337992D01*
X-58209447Y10599079D01*
X-57999501Y10908726D01*
X-57824270Y11239246D01*
X-57824261Y11239264D01*
X-57685793Y11586795D01*
X-57685791Y11586802D01*
X-57585714Y11947249D01*
X-57585708Y11947275D01*
X-57525188Y12316427D01*
X-57525186Y12316444D01*
X-57504933Y12690000D01*
X-57504933Y12690002D01*
X-57525186Y13063555D01*
X-57525188Y13063572D01*
X-57585708Y13432724D01*
X-57585714Y13432750D01*
X-57685791Y13793197D01*
X-57685793Y13793204D01*
X-57824261Y14140735D01*
X-57824270Y14140753D01*
X-57999501Y14471273D01*
X-58209444Y14780915D01*
X-58209451Y14780925D01*
X-58431215Y15042006D01*
X-58431216Y15042007D01*
X-59740240Y13732982D01*
X-59917016Y13909758D01*
X-58610369Y15216405D01*
X-58610369Y15216406D01*
X-58723237Y15323320D01*
X-58723246Y15323328D01*
X-59021065Y15549723D01*
X-59021081Y15549734D01*
X-59341612Y15742590D01*
X-59341625Y15742597D01*
X-59681137Y15899672D01*
X-60035672Y16019130D01*
X-60401033Y16099552D01*
X-60772944Y16139999D01*
X-60772952Y16140000D01*
X-61147048Y16140000D01*
X-61147055Y16139999D01*
X-61518966Y16099552D01*
X-61884327Y16019130D01*
X-62238862Y15899672D01*
X-62578374Y15742597D01*
X-62578387Y15742590D01*
X-62898918Y15549734D01*
X-62898934Y15549723D01*
X-63196758Y15323324D01*
X-63309629Y15216405D01*
X-62002982Y13909759D01*
X-62179758Y13732983D01*
X-63488782Y15042007D01*
X-63488783Y15042006D01*
X-63710555Y14780916D01*
X-63920498Y14471273D01*
X-64095729Y14140753D01*
X-64095738Y14140735D01*
X-64234206Y13793204D01*
X-64234208Y13793197D01*
X-64334285Y13432750D01*
X-64334291Y13432724D01*
X-64394811Y13063572D01*
X-64394813Y13063555D01*
X-64415067Y12690002D01*
X-73699500Y12690002D01*
X-73699500Y15995572D01*
X-73699184Y16004418D01*
X-73682834Y16233019D01*
X-73680316Y16250531D01*
X-73632545Y16470134D01*
X-73627561Y16487110D01*
X-73549018Y16697691D01*
X-73541668Y16713784D01*
X-73433960Y16911036D01*
X-73424395Y16925919D01*
X-73289711Y17105836D01*
X-73278125Y17119207D01*
X-73119207Y17278125D01*
X-73105836Y17289711D01*
X-72925919Y17424395D01*
X-72911036Y17433960D01*
X-72713784Y17541668D01*
X-72697691Y17549018D01*
X-72487110Y17627561D01*
X-72470134Y17632545D01*
X-72250531Y17680316D01*
X-72233019Y17682834D01*
X-72004418Y17699184D01*
X-71995572Y17699500D01*
X-71952406Y17699500D01*
X61952405Y17699500D01*
X61995572Y17699500D01*
X62004418Y17699184D01*
G37*
%TD.AperFunction*%
%TD*%
M02*
