%TF.GenerationSoftware,KiCad,Pcbnew,8.0.4*%
%TF.CreationDate,2024-09-01T22:21:07-05:00*%
%TF.ProjectId,caliper,63616c69-7065-4722-9e6b-696361645f70,rev?*%
%TF.SameCoordinates,Original*%
%TF.FileFunction,Soldermask,Top*%
%TF.FilePolarity,Negative*%
%FSLAX46Y46*%
G04 Gerber Fmt 4.6, Leading zero omitted, Abs format (unit mm)*
G04 Created by KiCad (PCBNEW 8.0.4) date 2024-09-01 22:21:07*
%MOMM*%
%LPD*%
G01*
G04 APERTURE LIST*
%ADD10C,0.800000*%
%ADD11C,6.400000*%
%ADD12R,1.700000X1.700000*%
%ADD13O,1.700000X1.700000*%
%ADD14O,1.700000X0.900000*%
%ADD15O,2.400000X0.900000*%
%ADD16C,0.650000*%
%ADD17R,1.600000X1.600000*%
%ADD18O,1.600000X1.600000*%
%ADD19C,4.000000*%
%ADD20C,2.200000*%
G04 APERTURE END LIST*
D10*
%TO.C,M5*%
X-71400000Y9000000D03*
X-70697056Y10697056D03*
X-70697056Y7302944D03*
X-69000000Y11400000D03*
D11*
X-69000000Y9000000D03*
D10*
X-69000000Y6600000D03*
X-67302944Y10697056D03*
X-67302944Y7302944D03*
X-66600000Y9000000D03*
%TD*%
%TO.C,M1*%
X-63360000Y12690000D03*
X-62657056Y14387056D03*
X-62657056Y10992944D03*
X-60960000Y15090000D03*
D11*
X-60960000Y12690000D03*
D10*
X-60960000Y10290000D03*
X-59262944Y14387056D03*
X-59262944Y10992944D03*
X-58560000Y12690000D03*
%TD*%
%TO.C,M3*%
X17920000Y12690000D03*
X18622944Y14387056D03*
X18622944Y10992944D03*
X20320000Y15090000D03*
D11*
X20320000Y12690000D03*
D10*
X20320000Y10290000D03*
X22017056Y14387056D03*
X22017056Y10992944D03*
X22720000Y12690000D03*
%TD*%
D12*
%TO.C,J2*%
X-63500000Y3800000D03*
D13*
X-63500000Y1260000D03*
X-63500000Y-1280000D03*
X-63500000Y-3820000D03*
%TD*%
D14*
%TO.C,J1*%
X62260000Y-4325000D03*
D15*
X58880000Y-4325000D03*
D14*
X62260000Y4325000D03*
D15*
X58880000Y4325000D03*
D16*
X57900000Y-2975000D03*
X57900000Y-2125000D03*
X57900000Y-1275000D03*
X57900000Y-425000D03*
X57900000Y425000D03*
X57900000Y1275000D03*
X57900000Y2125000D03*
X57900000Y2975000D03*
X59250000Y2975000D03*
X59250000Y2125000D03*
X59250000Y1275000D03*
X59250000Y425000D03*
X59250000Y-425000D03*
X59250000Y-1275000D03*
X59250000Y-2125000D03*
X59250000Y-2975000D03*
%TD*%
D17*
%TO.C,U4*%
X-5080000Y-7630000D03*
D18*
X-2540000Y-7630000D03*
X0Y-7630000D03*
X2540000Y-7630000D03*
X5080000Y-7630000D03*
X7620000Y-7630000D03*
X10160000Y-7630000D03*
X12700000Y-7630000D03*
X15240000Y-7630000D03*
X15240000Y7610000D03*
X12700000Y7610000D03*
X10160000Y7610000D03*
X7620000Y7610000D03*
X5080000Y7610000D03*
X2540000Y7610000D03*
X0Y7610000D03*
X-2540000Y7610000D03*
X-5080000Y7610000D03*
%TD*%
D17*
%TO.C,U3*%
X-30480000Y-7630000D03*
D18*
X-27940000Y-7630000D03*
X-25400000Y-7630000D03*
X-22860000Y-7630000D03*
X-20320000Y-7630000D03*
X-17780000Y-7630000D03*
X-15240000Y-7630000D03*
X-12700000Y-7630000D03*
X-10160000Y-7630000D03*
X-10160000Y7610000D03*
X-12700000Y7610000D03*
X-15240000Y7610000D03*
X-17780000Y7610000D03*
X-20320000Y7610000D03*
X-22860000Y7610000D03*
X-25400000Y7610000D03*
X-27940000Y7610000D03*
X-30480000Y7610000D03*
%TD*%
D10*
%TO.C,M4*%
X17920000Y-12710000D03*
X18622944Y-11012944D03*
X18622944Y-14407056D03*
X20320000Y-10310000D03*
D11*
X20320000Y-12710000D03*
D10*
X20320000Y-15110000D03*
X22017056Y-11012944D03*
X22017056Y-14407056D03*
X22720000Y-12710000D03*
%TD*%
D19*
%TO.C,SW3*%
X29210000Y-10000D03*
D20*
X24130000Y2530000D03*
X26670000Y-3820000D03*
%TD*%
D17*
%TO.C,U2*%
X-55880000Y-7630000D03*
D18*
X-53340000Y-7630000D03*
X-50800000Y-7630000D03*
X-48260000Y-7630000D03*
X-45720000Y-7630000D03*
X-43180000Y-7630000D03*
X-40640000Y-7630000D03*
X-38100000Y-7630000D03*
X-35560000Y-7630000D03*
X-35560000Y7610000D03*
X-38100000Y7610000D03*
X-40640000Y7610000D03*
X-43180000Y7610000D03*
X-45720000Y7610000D03*
X-48260000Y7610000D03*
X-50800000Y7610000D03*
X-53340000Y7610000D03*
X-55880000Y7610000D03*
%TD*%
D10*
%TO.C,M2*%
X-63360000Y-12710000D03*
X-62657056Y-11012944D03*
X-62657056Y-14407056D03*
X-60960000Y-10310000D03*
D11*
X-60960000Y-12710000D03*
D10*
X-60960000Y-15110000D03*
X-59262944Y-11012944D03*
X-59262944Y-14407056D03*
X-58560000Y-12710000D03*
%TD*%
M02*
